G04 #@! TF.GenerationSoftware,KiCad,Pcbnew,5.1.9*
G04 #@! TF.CreationDate,2021-04-01T15:39:56-06:00*
G04 #@! TF.ProjectId,BluetoothBlinker-PCB,426c7565-746f-46f7-9468-426c696e6b65,rev?*
G04 #@! TF.SameCoordinates,Original*
G04 #@! TF.FileFunction,Soldermask,Bot*
G04 #@! TF.FilePolarity,Negative*
%FSLAX46Y46*%
G04 Gerber Fmt 4.6, Leading zero omitted, Abs format (unit mm)*
G04 Created by KiCad (PCBNEW 5.1.9) date 2021-04-01 15:39:56*
%MOMM*%
%LPD*%
G01*
G04 APERTURE LIST*
%ADD10C,2.000000*%
%ADD11C,1.000000*%
%ADD12O,1.700000X1.700000*%
%ADD13R,1.700000X1.700000*%
%ADD14O,1.700000X0.900000*%
%ADD15O,2.400000X0.900000*%
%ADD16C,0.700000*%
%ADD17C,1.500000*%
%ADD18O,1.000000X1.000000*%
%ADD19R,1.000000X1.000000*%
G04 APERTURE END LIST*
D10*
G04 #@! TO.C,SW1*
X209296000Y33528000D03*
X209296000Y38028000D03*
X215796000Y33528000D03*
X215796000Y38028000D03*
G04 #@! TD*
D11*
G04 #@! TO.C,Y2*
X207264000Y29332000D03*
X207264000Y27432000D03*
G04 #@! TD*
D12*
G04 #@! TO.C,J3*
X193294000Y12446000D03*
X193294000Y9906000D03*
X190754000Y12446000D03*
X190754000Y9906000D03*
X188214000Y12446000D03*
X188214000Y9906000D03*
X185674000Y12446000D03*
X185674000Y9906000D03*
X183134000Y12446000D03*
X183134000Y9906000D03*
X180594000Y12446000D03*
D13*
X180594000Y9906000D03*
G04 #@! TD*
D14*
G04 #@! TO.C,J1*
X156676000Y14544000D03*
X156676000Y23194000D03*
D15*
X160056000Y14544000D03*
X160056000Y23194000D03*
D16*
X159686000Y18444000D03*
X159686000Y15894000D03*
X159686000Y16744000D03*
X159686000Y17594000D03*
X159686000Y21844000D03*
X159686000Y20144000D03*
X159686000Y19294000D03*
X159686000Y20994000D03*
X161036000Y15894000D03*
X161036000Y16744000D03*
X161036000Y17594000D03*
X161036000Y18444000D03*
X161036000Y19294000D03*
X161036000Y20144000D03*
X161036000Y20994000D03*
X161036000Y21844000D03*
G04 #@! TD*
D17*
G04 #@! TO.C,Y1*
X210820000Y11938000D03*
X210820000Y16818000D03*
G04 #@! TD*
D18*
G04 #@! TO.C,J2*
X176530000Y26924000D03*
X176530000Y25654000D03*
X175260000Y26924000D03*
X175260000Y25654000D03*
X173990000Y26924000D03*
X173990000Y25654000D03*
X172720000Y26924000D03*
X172720000Y25654000D03*
X171450000Y26924000D03*
D19*
X171450000Y25654000D03*
G04 #@! TD*
M02*
