G04 #@! TF.GenerationSoftware,KiCad,Pcbnew,5.1.9*
G04 #@! TF.CreationDate,2021-04-01T15:39:56-06:00*
G04 #@! TF.ProjectId,BluetoothBlinker-PCB,426c7565-746f-46f7-9468-426c696e6b65,rev?*
G04 #@! TF.SameCoordinates,Original*
G04 #@! TF.FileFunction,Legend,Top*
G04 #@! TF.FilePolarity,Positive*
%FSLAX46Y46*%
G04 Gerber Fmt 4.6, Leading zero omitted, Abs format (unit mm)*
G04 Created by KiCad (PCBNEW 5.1.9) date 2021-04-01 15:39:56*
%MOMM*%
%LPD*%
G01*
G04 APERTURE LIST*
%ADD10C,0.300000*%
%ADD11C,0.200000*%
%ADD12C,0.120000*%
%ADD13C,0.150000*%
G04 APERTURE END LIST*
D10*
X197711428Y38437428D02*
X196997142Y38437428D01*
X196997142Y39937428D01*
X198211428Y39223142D02*
X198711428Y39223142D01*
X198925714Y38437428D02*
X198211428Y38437428D01*
X198211428Y39937428D01*
X198925714Y39937428D01*
X199568571Y38437428D02*
X199568571Y39937428D01*
X199925714Y39937428D01*
X200140000Y39866000D01*
X200282857Y39723142D01*
X200354285Y39580285D01*
X200425714Y39294571D01*
X200425714Y39080285D01*
X200354285Y38794571D01*
X200282857Y38651714D01*
X200140000Y38508857D01*
X199925714Y38437428D01*
X199568571Y38437428D01*
X200997142Y39794571D02*
X201068571Y39866000D01*
X201211428Y39937428D01*
X201568571Y39937428D01*
X201711428Y39866000D01*
X201782857Y39794571D01*
X201854285Y39651714D01*
X201854285Y39508857D01*
X201782857Y39294571D01*
X200925714Y38437428D01*
X201854285Y38437428D01*
X191361428Y38437428D02*
X190647142Y38437428D01*
X190647142Y39937428D01*
X191861428Y39223142D02*
X192361428Y39223142D01*
X192575714Y38437428D02*
X191861428Y38437428D01*
X191861428Y39937428D01*
X192575714Y39937428D01*
X193218571Y38437428D02*
X193218571Y39937428D01*
X193575714Y39937428D01*
X193790000Y39866000D01*
X193932857Y39723142D01*
X194004285Y39580285D01*
X194075714Y39294571D01*
X194075714Y39080285D01*
X194004285Y38794571D01*
X193932857Y38651714D01*
X193790000Y38508857D01*
X193575714Y38437428D01*
X193218571Y38437428D01*
X195504285Y38437428D02*
X194647142Y38437428D01*
X195075714Y38437428D02*
X195075714Y39937428D01*
X194932857Y39723142D01*
X194790000Y39580285D01*
X194647142Y39508857D01*
D11*
X158308476Y9985238D02*
X159451333Y9985238D01*
X158879904Y7985238D02*
X158879904Y9985238D01*
X160022761Y8080476D02*
X160213238Y7985238D01*
X160594190Y7985238D01*
X160784666Y8080476D01*
X160879904Y8270952D01*
X160879904Y8366190D01*
X160784666Y8556666D01*
X160594190Y8651904D01*
X160308476Y8651904D01*
X160118000Y8747142D01*
X160022761Y8937619D01*
X160022761Y9032857D01*
X160118000Y9223333D01*
X160308476Y9318571D01*
X160594190Y9318571D01*
X160784666Y9223333D01*
X161737047Y9318571D02*
X161737047Y7318571D01*
X161737047Y9223333D02*
X161927523Y9318571D01*
X162308476Y9318571D01*
X162498952Y9223333D01*
X162594190Y9128095D01*
X162689428Y8937619D01*
X162689428Y8366190D01*
X162594190Y8175714D01*
X162498952Y8080476D01*
X162308476Y7985238D01*
X161927523Y7985238D01*
X161737047Y8080476D01*
X163546571Y8175714D02*
X163641809Y8080476D01*
X163546571Y7985238D01*
X163451333Y8080476D01*
X163546571Y8175714D01*
X163546571Y7985238D01*
X166022761Y7985238D02*
X166022761Y9985238D01*
X166498952Y9985238D01*
X166784666Y9890000D01*
X166975142Y9699523D01*
X167070380Y9509047D01*
X167165619Y9128095D01*
X167165619Y8842380D01*
X167070380Y8461428D01*
X166975142Y8270952D01*
X166784666Y8080476D01*
X166498952Y7985238D01*
X166022761Y7985238D01*
X168784666Y8080476D02*
X168594190Y7985238D01*
X168213238Y7985238D01*
X168022761Y8080476D01*
X167927523Y8270952D01*
X167927523Y9032857D01*
X168022761Y9223333D01*
X168213238Y9318571D01*
X168594190Y9318571D01*
X168784666Y9223333D01*
X168879904Y9032857D01*
X168879904Y8842380D01*
X167927523Y8651904D01*
X169641809Y8080476D02*
X169832285Y7985238D01*
X170213238Y7985238D01*
X170403714Y8080476D01*
X170498952Y8270952D01*
X170498952Y8366190D01*
X170403714Y8556666D01*
X170213238Y8651904D01*
X169927523Y8651904D01*
X169737047Y8747142D01*
X169641809Y8937619D01*
X169641809Y9032857D01*
X169737047Y9223333D01*
X169927523Y9318571D01*
X170213238Y9318571D01*
X170403714Y9223333D01*
X171356095Y7985238D02*
X171356095Y9318571D01*
X171356095Y9985238D02*
X171260857Y9890000D01*
X171356095Y9794761D01*
X171451333Y9890000D01*
X171356095Y9985238D01*
X171356095Y9794761D01*
X173165619Y9318571D02*
X173165619Y7699523D01*
X173070380Y7509047D01*
X172975142Y7413809D01*
X172784666Y7318571D01*
X172498952Y7318571D01*
X172308476Y7413809D01*
X173165619Y8080476D02*
X172975142Y7985238D01*
X172594190Y7985238D01*
X172403714Y8080476D01*
X172308476Y8175714D01*
X172213238Y8366190D01*
X172213238Y8937619D01*
X172308476Y9128095D01*
X172403714Y9223333D01*
X172594190Y9318571D01*
X172975142Y9318571D01*
X173165619Y9223333D01*
X174118000Y9318571D02*
X174118000Y7985238D01*
X174118000Y9128095D02*
X174213238Y9223333D01*
X174403714Y9318571D01*
X174689428Y9318571D01*
X174879904Y9223333D01*
X174975142Y9032857D01*
X174975142Y7985238D01*
X175832285Y8080476D02*
X176022761Y7985238D01*
X176403714Y7985238D01*
X176594190Y8080476D01*
X176689428Y8270952D01*
X176689428Y8366190D01*
X176594190Y8556666D01*
X176403714Y8651904D01*
X176118000Y8651904D01*
X175927523Y8747142D01*
X175832285Y8937619D01*
X175832285Y9032857D01*
X175927523Y9223333D01*
X176118000Y9318571D01*
X176403714Y9318571D01*
X176594190Y9223333D01*
D12*
G04 #@! TO.C,R7*
X200867742Y32497500D02*
X201342258Y32497500D01*
X200867742Y33542500D02*
X201342258Y33542500D01*
G04 #@! TO.C,SW1*
X209046000Y36528000D02*
X209046000Y35028000D01*
X210296000Y32528000D02*
X214796000Y32528000D01*
X216046000Y35028000D02*
X216046000Y36528000D01*
X214796000Y39028000D02*
X210296000Y39028000D01*
G04 #@! TO.C,L5*
X180659721Y33018000D02*
X180985279Y33018000D01*
X180659721Y34038000D02*
X180985279Y34038000D01*
G04 #@! TO.C,C18*
X182878000Y32893580D02*
X182878000Y32612420D01*
X183898000Y32893580D02*
X183898000Y32612420D01*
G04 #@! TO.C,C8*
X176020000Y32893580D02*
X176020000Y32612420D01*
X177040000Y32893580D02*
X177040000Y32612420D01*
G04 #@! TO.C,C9*
X177798000Y32893580D02*
X177798000Y32612420D01*
X178818000Y32893580D02*
X178818000Y32612420D01*
G04 #@! TO.C,D4*
X198818500Y36603000D02*
X201103500Y36603000D01*
X201103500Y36603000D02*
X201103500Y38073000D01*
X201103500Y38073000D02*
X198818500Y38073000D01*
G04 #@! TO.C,D3*
X192214500Y36603000D02*
X194499500Y36603000D01*
X194499500Y36603000D02*
X194499500Y38073000D01*
X194499500Y38073000D02*
X192214500Y38073000D01*
G04 #@! TO.C,D2*
X180073500Y36349000D02*
X182358500Y36349000D01*
X182358500Y36349000D02*
X182358500Y37819000D01*
X182358500Y37819000D02*
X180073500Y37819000D01*
G04 #@! TO.C,C14*
X204316420Y26922000D02*
X204597580Y26922000D01*
X204316420Y27942000D02*
X204597580Y27942000D01*
G04 #@! TO.C,Y2*
X208164000Y29332000D02*
X207964000Y29332000D01*
X209064000Y28732000D02*
X208164000Y29332000D01*
X208164000Y27432000D02*
X207964000Y27432000D01*
X209064000Y28032000D02*
X208164000Y27432000D01*
X209064000Y29612000D02*
X209064000Y27152000D01*
X215964000Y29612000D02*
X209064000Y29612000D01*
X215964000Y27152000D02*
X215964000Y29612000D01*
X209064000Y27152000D02*
X215964000Y27152000D01*
G04 #@! TO.C,C15*
X204342420Y28954000D02*
X204623580Y28954000D01*
X204342420Y29974000D02*
X204623580Y29974000D01*
G04 #@! TO.C,J3*
X179264000Y8576000D02*
X179264000Y9906000D01*
X180594000Y8576000D02*
X179264000Y8576000D01*
X179264000Y11176000D02*
X179264000Y13776000D01*
X181864000Y11176000D02*
X179264000Y11176000D01*
X181864000Y8576000D02*
X181864000Y11176000D01*
X179264000Y13776000D02*
X194624000Y13776000D01*
X181864000Y8576000D02*
X194624000Y8576000D01*
X194624000Y8576000D02*
X194624000Y13776000D01*
G04 #@! TO.C,RV1*
X166101500Y32432258D02*
X166101500Y31957742D01*
X167146500Y32432258D02*
X167146500Y31957742D01*
G04 #@! TO.C,J1*
X158636000Y23464000D02*
X157736000Y23464000D01*
X158636000Y14274000D02*
X157736000Y14274000D01*
X155036000Y23464000D02*
X152306000Y23464000D01*
X155036000Y14274000D02*
X152306000Y14274000D01*
X161716000Y23344000D02*
X161716000Y14394000D01*
X152306000Y23464000D02*
X152306000Y14274000D01*
G04 #@! TO.C,R6*
X178547500Y26208258D02*
X178547500Y25733742D01*
X179592500Y26208258D02*
X179592500Y25733742D01*
G04 #@! TO.C,D1*
X165864000Y20376000D02*
X165864000Y19446000D01*
X165864000Y17216000D02*
X165864000Y18146000D01*
X165864000Y17216000D02*
X168024000Y17216000D01*
X165864000Y20376000D02*
X167324000Y20376000D01*
G04 #@! TO.C,R5*
X196864500Y32528742D02*
X196864500Y33003258D01*
X195819500Y32528742D02*
X195819500Y33003258D01*
G04 #@! TO.C,R4*
X195086500Y32528742D02*
X195086500Y33003258D01*
X194041500Y32528742D02*
X194041500Y33003258D01*
G04 #@! TO.C,R3*
X181022258Y35828500D02*
X180547742Y35828500D01*
X181022258Y34783500D02*
X180547742Y34783500D01*
G04 #@! TO.C,R2*
X166798258Y15254500D02*
X166323742Y15254500D01*
X166798258Y14209500D02*
X166323742Y14209500D01*
G04 #@! TO.C,R1*
X166798258Y23636500D02*
X166323742Y23636500D01*
X166798258Y22591500D02*
X166323742Y22591500D01*
G04 #@! TO.C,L6*
X185676000Y18353721D02*
X185676000Y18679279D01*
X184656000Y18353721D02*
X184656000Y18679279D01*
G04 #@! TO.C,L4*
X209387221Y23366000D02*
X209712779Y23366000D01*
X209387221Y24386000D02*
X209712779Y24386000D01*
G04 #@! TO.C,L3*
X202757721Y23366000D02*
X203083279Y23366000D01*
X202757721Y24386000D02*
X203083279Y24386000D01*
G04 #@! TO.C,L2*
X198693721Y24636000D02*
X199019279Y24636000D01*
X198693721Y25656000D02*
X199019279Y25656000D01*
G04 #@! TO.C,L1*
X195070000Y22006779D02*
X195070000Y21681221D01*
X196090000Y22006779D02*
X196090000Y21681221D01*
G04 #@! TO.C,C22*
X191768000Y18695580D02*
X191768000Y18414420D01*
X192788000Y18695580D02*
X192788000Y18414420D01*
G04 #@! TO.C,C21*
X185418000Y32919580D02*
X185418000Y32638420D01*
X186438000Y32919580D02*
X186438000Y32638420D01*
G04 #@! TO.C,C20*
X189990000Y18682580D02*
X189990000Y18401420D01*
X191010000Y18682580D02*
X191010000Y18401420D01*
G04 #@! TO.C,C19*
X186434000Y18682580D02*
X186434000Y18401420D01*
X187454000Y18682580D02*
X187454000Y18401420D01*
G04 #@! TO.C,C17*
X183274580Y25402000D02*
X182993420Y25402000D01*
X183274580Y24382000D02*
X182993420Y24382000D01*
G04 #@! TO.C,C16*
X188212000Y18682580D02*
X188212000Y18401420D01*
X189232000Y18682580D02*
X189232000Y18401420D01*
G04 #@! TO.C,C13*
X206758000Y11022420D02*
X206758000Y11303580D01*
X205738000Y11022420D02*
X205738000Y11303580D01*
G04 #@! TO.C,C12*
X205738000Y17666580D02*
X205738000Y17385420D01*
X206758000Y17666580D02*
X206758000Y17385420D01*
G04 #@! TO.C,C11*
X189232000Y32638420D02*
X189232000Y32919580D01*
X188212000Y32638420D02*
X188212000Y32919580D01*
G04 #@! TO.C,C10*
X191010000Y32638420D02*
X191010000Y32919580D01*
X189990000Y32638420D02*
X189990000Y32919580D01*
G04 #@! TO.C,C7*
X167892000Y32398580D02*
X167892000Y32117420D01*
X168912000Y32398580D02*
X168912000Y32117420D01*
G04 #@! TO.C,C6*
X217831580Y24386000D02*
X217550420Y24386000D01*
X217831580Y23366000D02*
X217550420Y23366000D01*
G04 #@! TO.C,C5*
X213767580Y24386000D02*
X213486420Y24386000D01*
X213767580Y23366000D02*
X213486420Y23366000D01*
G04 #@! TO.C,C4*
X205738000Y23267580D02*
X205738000Y22986420D01*
X206758000Y23267580D02*
X206758000Y22986420D01*
G04 #@! TO.C,C3*
X199009580Y23116000D02*
X198728420Y23116000D01*
X199009580Y22096000D02*
X198728420Y22096000D01*
G04 #@! TO.C,C2*
X196090000Y25767420D02*
X196090000Y26048580D01*
X195070000Y25767420D02*
X195070000Y26048580D01*
G04 #@! TO.C,C1*
X195070000Y17920580D02*
X195070000Y17639420D01*
X196090000Y17920580D02*
X196090000Y17639420D01*
G04 #@! TO.C,U1*
X173990000Y22586000D02*
X172040000Y22586000D01*
X173990000Y22586000D02*
X175940000Y22586000D01*
X173990000Y12466000D02*
X172040000Y12466000D01*
X173990000Y12466000D02*
X177440000Y12466000D01*
G04 #@! TO.C,Y1*
X208295000Y17503000D02*
X208295000Y11253000D01*
X213345000Y17503000D02*
X213345000Y11253000D01*
X208295000Y11253000D02*
G75*
G03*
X213345000Y11253000I2525000J0D01*
G01*
X208295000Y17503000D02*
G75*
G02*
X213345000Y17503000I2525000J0D01*
G01*
G04 #@! TO.C,F1*
X165714000Y28921064D02*
X165714000Y27466936D01*
X167534000Y28921064D02*
X167534000Y27466936D01*
G04 #@! TO.C,U3*
X193734000Y23666000D02*
G75*
G03*
X193734000Y23666000I-200000J0D01*
G01*
G04 #@! TO.C,U2*
X171704000Y30698000D02*
X172504000Y30698000D01*
X171704000Y30698000D02*
X170904000Y30698000D01*
X171704000Y33818000D02*
X172504000Y33818000D01*
X171704000Y33818000D02*
X169904000Y33818000D01*
G04 #@! TO.C,J2*
X177225000Y24524000D02*
X177225000Y25346470D01*
X177225000Y27231530D02*
X177225000Y28054000D01*
X177225000Y25961530D02*
X177225000Y26616470D01*
X172210000Y24524000D02*
X177225000Y24524000D01*
X170755000Y28054000D02*
X177225000Y28054000D01*
X172210000Y24524000D02*
X172210000Y25090529D01*
X172210000Y26217471D02*
X172210000Y26360529D01*
X172156529Y26414000D02*
X172013471Y26414000D01*
X170886529Y26414000D02*
X170755000Y26414000D01*
X170755000Y26414000D02*
X170755000Y26616470D01*
X170755000Y27231530D02*
X170755000Y28054000D01*
X171450000Y24524000D02*
X170690000Y24524000D01*
X170690000Y24524000D02*
X170690000Y25654000D01*
G04 #@! TO.C,R7*
D13*
X203541333Y32567619D02*
X203208000Y33043809D01*
X202969904Y32567619D02*
X202969904Y33567619D01*
X203350857Y33567619D01*
X203446095Y33520000D01*
X203493714Y33472380D01*
X203541333Y33377142D01*
X203541333Y33234285D01*
X203493714Y33139047D01*
X203446095Y33091428D01*
X203350857Y33043809D01*
X202969904Y33043809D01*
X203874666Y33567619D02*
X204541333Y33567619D01*
X204112761Y32567619D01*
G04 #@! TO.C,SW1*
X211212666Y39981238D02*
X211355523Y39933619D01*
X211593619Y39933619D01*
X211688857Y39981238D01*
X211736476Y40028857D01*
X211784095Y40124095D01*
X211784095Y40219333D01*
X211736476Y40314571D01*
X211688857Y40362190D01*
X211593619Y40409809D01*
X211403142Y40457428D01*
X211307904Y40505047D01*
X211260285Y40552666D01*
X211212666Y40647904D01*
X211212666Y40743142D01*
X211260285Y40838380D01*
X211307904Y40886000D01*
X211403142Y40933619D01*
X211641238Y40933619D01*
X211784095Y40886000D01*
X212117428Y40933619D02*
X212355523Y39933619D01*
X212546000Y40647904D01*
X212736476Y39933619D01*
X212974571Y40933619D01*
X213879333Y39933619D02*
X213307904Y39933619D01*
X213593619Y39933619D02*
X213593619Y40933619D01*
X213498380Y40790761D01*
X213403142Y40695523D01*
X213307904Y40647904D01*
G04 #@! TO.C,L5*
X180681333Y31551619D02*
X180205142Y31551619D01*
X180205142Y32551619D01*
X181490857Y32551619D02*
X181014666Y32551619D01*
X180967047Y32075428D01*
X181014666Y32123047D01*
X181109904Y32170666D01*
X181348000Y32170666D01*
X181443238Y32123047D01*
X181490857Y32075428D01*
X181538476Y31980190D01*
X181538476Y31742095D01*
X181490857Y31646857D01*
X181443238Y31599238D01*
X181348000Y31551619D01*
X181109904Y31551619D01*
X181014666Y31599238D01*
X180967047Y31646857D01*
G04 #@! TO.C,C18*
X183745142Y35171142D02*
X183792761Y35123523D01*
X183840380Y34980666D01*
X183840380Y34885428D01*
X183792761Y34742571D01*
X183697523Y34647333D01*
X183602285Y34599714D01*
X183411809Y34552095D01*
X183268952Y34552095D01*
X183078476Y34599714D01*
X182983238Y34647333D01*
X182888000Y34742571D01*
X182840380Y34885428D01*
X182840380Y34980666D01*
X182888000Y35123523D01*
X182935619Y35171142D01*
X183840380Y36123523D02*
X183840380Y35552095D01*
X183840380Y35837809D02*
X182840380Y35837809D01*
X182983238Y35742571D01*
X183078476Y35647333D01*
X183126095Y35552095D01*
X183268952Y36694952D02*
X183221333Y36599714D01*
X183173714Y36552095D01*
X183078476Y36504476D01*
X183030857Y36504476D01*
X182935619Y36552095D01*
X182888000Y36599714D01*
X182840380Y36694952D01*
X182840380Y36885428D01*
X182888000Y36980666D01*
X182935619Y37028285D01*
X183030857Y37075904D01*
X183078476Y37075904D01*
X183173714Y37028285D01*
X183221333Y36980666D01*
X183268952Y36885428D01*
X183268952Y36694952D01*
X183316571Y36599714D01*
X183364190Y36552095D01*
X183459428Y36504476D01*
X183649904Y36504476D01*
X183745142Y36552095D01*
X183792761Y36599714D01*
X183840380Y36694952D01*
X183840380Y36885428D01*
X183792761Y36980666D01*
X183745142Y37028285D01*
X183649904Y37075904D01*
X183459428Y37075904D01*
X183364190Y37028285D01*
X183316571Y36980666D01*
X183268952Y36885428D01*
G04 #@! TO.C,C8*
X176887142Y30059333D02*
X176934761Y30011714D01*
X176982380Y29868857D01*
X176982380Y29773619D01*
X176934761Y29630761D01*
X176839523Y29535523D01*
X176744285Y29487904D01*
X176553809Y29440285D01*
X176410952Y29440285D01*
X176220476Y29487904D01*
X176125238Y29535523D01*
X176030000Y29630761D01*
X175982380Y29773619D01*
X175982380Y29868857D01*
X176030000Y30011714D01*
X176077619Y30059333D01*
X176410952Y30630761D02*
X176363333Y30535523D01*
X176315714Y30487904D01*
X176220476Y30440285D01*
X176172857Y30440285D01*
X176077619Y30487904D01*
X176030000Y30535523D01*
X175982380Y30630761D01*
X175982380Y30821238D01*
X176030000Y30916476D01*
X176077619Y30964095D01*
X176172857Y31011714D01*
X176220476Y31011714D01*
X176315714Y30964095D01*
X176363333Y30916476D01*
X176410952Y30821238D01*
X176410952Y30630761D01*
X176458571Y30535523D01*
X176506190Y30487904D01*
X176601428Y30440285D01*
X176791904Y30440285D01*
X176887142Y30487904D01*
X176934761Y30535523D01*
X176982380Y30630761D01*
X176982380Y30821238D01*
X176934761Y30916476D01*
X176887142Y30964095D01*
X176791904Y31011714D01*
X176601428Y31011714D01*
X176506190Y30964095D01*
X176458571Y30916476D01*
X176410952Y30821238D01*
G04 #@! TO.C,C9*
X178665142Y30059333D02*
X178712761Y30011714D01*
X178760380Y29868857D01*
X178760380Y29773619D01*
X178712761Y29630761D01*
X178617523Y29535523D01*
X178522285Y29487904D01*
X178331809Y29440285D01*
X178188952Y29440285D01*
X177998476Y29487904D01*
X177903238Y29535523D01*
X177808000Y29630761D01*
X177760380Y29773619D01*
X177760380Y29868857D01*
X177808000Y30011714D01*
X177855619Y30059333D01*
X178760380Y30535523D02*
X178760380Y30726000D01*
X178712761Y30821238D01*
X178665142Y30868857D01*
X178522285Y30964095D01*
X178331809Y31011714D01*
X177950857Y31011714D01*
X177855619Y30964095D01*
X177808000Y30916476D01*
X177760380Y30821238D01*
X177760380Y30630761D01*
X177808000Y30535523D01*
X177855619Y30487904D01*
X177950857Y30440285D01*
X178188952Y30440285D01*
X178284190Y30487904D01*
X178331809Y30535523D01*
X178379428Y30630761D01*
X178379428Y30821238D01*
X178331809Y30916476D01*
X178284190Y30964095D01*
X178188952Y31011714D01*
G04 #@! TO.C,D4*
X201445904Y36885619D02*
X201445904Y37885619D01*
X201684000Y37885619D01*
X201826857Y37838000D01*
X201922095Y37742761D01*
X201969714Y37647523D01*
X202017333Y37457047D01*
X202017333Y37314190D01*
X201969714Y37123714D01*
X201922095Y37028476D01*
X201826857Y36933238D01*
X201684000Y36885619D01*
X201445904Y36885619D01*
X202874476Y37552285D02*
X202874476Y36885619D01*
X202636380Y37933238D02*
X202398285Y37218952D01*
X203017333Y37218952D01*
G04 #@! TO.C,D3*
X194841904Y36885619D02*
X194841904Y37885619D01*
X195080000Y37885619D01*
X195222857Y37838000D01*
X195318095Y37742761D01*
X195365714Y37647523D01*
X195413333Y37457047D01*
X195413333Y37314190D01*
X195365714Y37123714D01*
X195318095Y37028476D01*
X195222857Y36933238D01*
X195080000Y36885619D01*
X194841904Y36885619D01*
X195746666Y37885619D02*
X196365714Y37885619D01*
X196032380Y37504666D01*
X196175238Y37504666D01*
X196270476Y37457047D01*
X196318095Y37409428D01*
X196365714Y37314190D01*
X196365714Y37076095D01*
X196318095Y36980857D01*
X196270476Y36933238D01*
X196175238Y36885619D01*
X195889523Y36885619D01*
X195794285Y36933238D01*
X195746666Y36980857D01*
G04 #@! TO.C,D2*
X177569904Y36631619D02*
X177569904Y37631619D01*
X177808000Y37631619D01*
X177950857Y37584000D01*
X178046095Y37488761D01*
X178093714Y37393523D01*
X178141333Y37203047D01*
X178141333Y37060190D01*
X178093714Y36869714D01*
X178046095Y36774476D01*
X177950857Y36679238D01*
X177808000Y36631619D01*
X177569904Y36631619D01*
X178522285Y37536380D02*
X178569904Y37584000D01*
X178665142Y37631619D01*
X178903238Y37631619D01*
X178998476Y37584000D01*
X179046095Y37536380D01*
X179093714Y37441142D01*
X179093714Y37345904D01*
X179046095Y37203047D01*
X178474666Y36631619D01*
X179093714Y36631619D01*
G04 #@! TO.C,C14*
X200779142Y27074857D02*
X200731523Y27027238D01*
X200588666Y26979619D01*
X200493428Y26979619D01*
X200350571Y27027238D01*
X200255333Y27122476D01*
X200207714Y27217714D01*
X200160095Y27408190D01*
X200160095Y27551047D01*
X200207714Y27741523D01*
X200255333Y27836761D01*
X200350571Y27932000D01*
X200493428Y27979619D01*
X200588666Y27979619D01*
X200731523Y27932000D01*
X200779142Y27884380D01*
X201731523Y26979619D02*
X201160095Y26979619D01*
X201445809Y26979619D02*
X201445809Y27979619D01*
X201350571Y27836761D01*
X201255333Y27741523D01*
X201160095Y27693904D01*
X202588666Y27646285D02*
X202588666Y26979619D01*
X202350571Y28027238D02*
X202112476Y27312952D01*
X202731523Y27312952D01*
G04 #@! TO.C,Y2*
X217400190Y27971809D02*
X217876380Y27971809D01*
X216876380Y27638476D02*
X217400190Y27971809D01*
X216876380Y28305142D01*
X216971619Y28590857D02*
X216924000Y28638476D01*
X216876380Y28733714D01*
X216876380Y28971809D01*
X216924000Y29067047D01*
X216971619Y29114666D01*
X217066857Y29162285D01*
X217162095Y29162285D01*
X217304952Y29114666D01*
X217876380Y28543238D01*
X217876380Y29162285D01*
G04 #@! TO.C,C15*
X200805142Y29106857D02*
X200757523Y29059238D01*
X200614666Y29011619D01*
X200519428Y29011619D01*
X200376571Y29059238D01*
X200281333Y29154476D01*
X200233714Y29249714D01*
X200186095Y29440190D01*
X200186095Y29583047D01*
X200233714Y29773523D01*
X200281333Y29868761D01*
X200376571Y29964000D01*
X200519428Y30011619D01*
X200614666Y30011619D01*
X200757523Y29964000D01*
X200805142Y29916380D01*
X201757523Y29011619D02*
X201186095Y29011619D01*
X201471809Y29011619D02*
X201471809Y30011619D01*
X201376571Y29868761D01*
X201281333Y29773523D01*
X201186095Y29725904D01*
X202662285Y30011619D02*
X202186095Y30011619D01*
X202138476Y29535428D01*
X202186095Y29583047D01*
X202281333Y29630666D01*
X202519428Y29630666D01*
X202614666Y29583047D01*
X202662285Y29535428D01*
X202709904Y29440190D01*
X202709904Y29202095D01*
X202662285Y29106857D01*
X202614666Y29059238D01*
X202519428Y29011619D01*
X202281333Y29011619D01*
X202186095Y29059238D01*
X202138476Y29106857D01*
G04 #@! TO.C,J3*
X177716380Y10842666D02*
X178430666Y10842666D01*
X178573523Y10795047D01*
X178668761Y10699809D01*
X178716380Y10556952D01*
X178716380Y10461714D01*
X177716380Y11223619D02*
X177716380Y11842666D01*
X178097333Y11509333D01*
X178097333Y11652190D01*
X178144952Y11747428D01*
X178192571Y11795047D01*
X178287809Y11842666D01*
X178525904Y11842666D01*
X178621142Y11795047D01*
X178668761Y11747428D01*
X178716380Y11652190D01*
X178716380Y11366476D01*
X178668761Y11271238D01*
X178621142Y11223619D01*
G04 #@! TO.C,RV1*
X167076380Y34710761D02*
X166600190Y34377428D01*
X167076380Y34139333D02*
X166076380Y34139333D01*
X166076380Y34520285D01*
X166124000Y34615523D01*
X166171619Y34663142D01*
X166266857Y34710761D01*
X166409714Y34710761D01*
X166504952Y34663142D01*
X166552571Y34615523D01*
X166600190Y34520285D01*
X166600190Y34139333D01*
X166076380Y34996476D02*
X167076380Y35329809D01*
X166076380Y35663142D01*
X167076380Y36520285D02*
X167076380Y35948857D01*
X167076380Y36234571D02*
X166076380Y36234571D01*
X166219238Y36139333D01*
X166314476Y36044095D01*
X166362095Y35948857D01*
G04 #@! TO.C,J1*
X162288380Y13636666D02*
X163002666Y13636666D01*
X163145523Y13589047D01*
X163240761Y13493809D01*
X163288380Y13350952D01*
X163288380Y13255714D01*
X163288380Y14636666D02*
X163288380Y14065238D01*
X163288380Y14350952D02*
X162288380Y14350952D01*
X162431238Y14255714D01*
X162526476Y14160476D01*
X162574095Y14065238D01*
G04 #@! TO.C,R6*
X179522380Y23201333D02*
X179046190Y22868000D01*
X179522380Y22629904D02*
X178522380Y22629904D01*
X178522380Y23010857D01*
X178570000Y23106095D01*
X178617619Y23153714D01*
X178712857Y23201333D01*
X178855714Y23201333D01*
X178950952Y23153714D01*
X178998571Y23106095D01*
X179046190Y23010857D01*
X179046190Y22629904D01*
X178522380Y24058476D02*
X178522380Y23868000D01*
X178570000Y23772761D01*
X178617619Y23725142D01*
X178760476Y23629904D01*
X178950952Y23582285D01*
X179331904Y23582285D01*
X179427142Y23629904D01*
X179474761Y23677523D01*
X179522380Y23772761D01*
X179522380Y23963238D01*
X179474761Y24058476D01*
X179427142Y24106095D01*
X179331904Y24153714D01*
X179093809Y24153714D01*
X178998571Y24106095D01*
X178950952Y24058476D01*
X178903333Y23963238D01*
X178903333Y23772761D01*
X178950952Y23677523D01*
X178998571Y23629904D01*
X179093809Y23582285D01*
G04 #@! TO.C,D1*
X165885904Y20883619D02*
X165885904Y21883619D01*
X166124000Y21883619D01*
X166266857Y21836000D01*
X166362095Y21740761D01*
X166409714Y21645523D01*
X166457333Y21455047D01*
X166457333Y21312190D01*
X166409714Y21121714D01*
X166362095Y21026476D01*
X166266857Y20931238D01*
X166124000Y20883619D01*
X165885904Y20883619D01*
X167409714Y20883619D02*
X166838285Y20883619D01*
X167124000Y20883619D02*
X167124000Y21883619D01*
X167028761Y21740761D01*
X166933523Y21645523D01*
X166838285Y21597904D01*
G04 #@! TO.C,R5*
X196794380Y35076333D02*
X196318190Y34743000D01*
X196794380Y34504904D02*
X195794380Y34504904D01*
X195794380Y34885857D01*
X195842000Y34981095D01*
X195889619Y35028714D01*
X195984857Y35076333D01*
X196127714Y35076333D01*
X196222952Y35028714D01*
X196270571Y34981095D01*
X196318190Y34885857D01*
X196318190Y34504904D01*
X195794380Y35981095D02*
X195794380Y35504904D01*
X196270571Y35457285D01*
X196222952Y35504904D01*
X196175333Y35600142D01*
X196175333Y35838238D01*
X196222952Y35933476D01*
X196270571Y35981095D01*
X196365809Y36028714D01*
X196603904Y36028714D01*
X196699142Y35981095D01*
X196746761Y35933476D01*
X196794380Y35838238D01*
X196794380Y35600142D01*
X196746761Y35504904D01*
X196699142Y35457285D01*
G04 #@! TO.C,R4*
X195016380Y35330333D02*
X194540190Y34997000D01*
X195016380Y34758904D02*
X194016380Y34758904D01*
X194016380Y35139857D01*
X194064000Y35235095D01*
X194111619Y35282714D01*
X194206857Y35330333D01*
X194349714Y35330333D01*
X194444952Y35282714D01*
X194492571Y35235095D01*
X194540190Y35139857D01*
X194540190Y34758904D01*
X194349714Y36187476D02*
X195016380Y36187476D01*
X193968761Y35949380D02*
X194683047Y35711285D01*
X194683047Y36330333D01*
G04 #@! TO.C,R3*
X178141333Y34853619D02*
X177808000Y35329809D01*
X177569904Y34853619D02*
X177569904Y35853619D01*
X177950857Y35853619D01*
X178046095Y35806000D01*
X178093714Y35758380D01*
X178141333Y35663142D01*
X178141333Y35520285D01*
X178093714Y35425047D01*
X178046095Y35377428D01*
X177950857Y35329809D01*
X177569904Y35329809D01*
X178474666Y35853619D02*
X179093714Y35853619D01*
X178760380Y35472666D01*
X178903238Y35472666D01*
X178998476Y35425047D01*
X179046095Y35377428D01*
X179093714Y35282190D01*
X179093714Y35044095D01*
X179046095Y34948857D01*
X178998476Y34901238D01*
X178903238Y34853619D01*
X178617523Y34853619D01*
X178522285Y34901238D01*
X178474666Y34948857D01*
G04 #@! TO.C,R2*
X166457333Y15803619D02*
X166124000Y16279809D01*
X165885904Y15803619D02*
X165885904Y16803619D01*
X166266857Y16803619D01*
X166362095Y16756000D01*
X166409714Y16708380D01*
X166457333Y16613142D01*
X166457333Y16470285D01*
X166409714Y16375047D01*
X166362095Y16327428D01*
X166266857Y16279809D01*
X165885904Y16279809D01*
X166838285Y16708380D02*
X166885904Y16756000D01*
X166981142Y16803619D01*
X167219238Y16803619D01*
X167314476Y16756000D01*
X167362095Y16708380D01*
X167409714Y16613142D01*
X167409714Y16517904D01*
X167362095Y16375047D01*
X166790666Y15803619D01*
X167409714Y15803619D01*
G04 #@! TO.C,R1*
X166457333Y24185619D02*
X166124000Y24661809D01*
X165885904Y24185619D02*
X165885904Y25185619D01*
X166266857Y25185619D01*
X166362095Y25138000D01*
X166409714Y25090380D01*
X166457333Y24995142D01*
X166457333Y24852285D01*
X166409714Y24757047D01*
X166362095Y24709428D01*
X166266857Y24661809D01*
X165885904Y24661809D01*
X167409714Y24185619D02*
X166838285Y24185619D01*
X167124000Y24185619D02*
X167124000Y25185619D01*
X167028761Y25042761D01*
X166933523Y24947523D01*
X166838285Y24899904D01*
G04 #@! TO.C,L6*
X185618380Y15835333D02*
X185618380Y15359142D01*
X184618380Y15359142D01*
X184618380Y16597238D02*
X184618380Y16406761D01*
X184666000Y16311523D01*
X184713619Y16263904D01*
X184856476Y16168666D01*
X185046952Y16121047D01*
X185427904Y16121047D01*
X185523142Y16168666D01*
X185570761Y16216285D01*
X185618380Y16311523D01*
X185618380Y16502000D01*
X185570761Y16597238D01*
X185523142Y16644857D01*
X185427904Y16692476D01*
X185189809Y16692476D01*
X185094571Y16644857D01*
X185046952Y16597238D01*
X184999333Y16502000D01*
X184999333Y16311523D01*
X185046952Y16216285D01*
X185094571Y16168666D01*
X185189809Y16121047D01*
G04 #@! TO.C,L4*
X209383333Y24947619D02*
X208907142Y24947619D01*
X208907142Y25947619D01*
X210145238Y25614285D02*
X210145238Y24947619D01*
X209907142Y25995238D02*
X209669047Y25280952D01*
X210288095Y25280952D01*
G04 #@! TO.C,L3*
X202753833Y24947619D02*
X202277642Y24947619D01*
X202277642Y25947619D01*
X202991928Y25947619D02*
X203610976Y25947619D01*
X203277642Y25566666D01*
X203420500Y25566666D01*
X203515738Y25519047D01*
X203563357Y25471428D01*
X203610976Y25376190D01*
X203610976Y25138095D01*
X203563357Y25042857D01*
X203515738Y24995238D01*
X203420500Y24947619D01*
X203134785Y24947619D01*
X203039547Y24995238D01*
X202991928Y25042857D01*
G04 #@! TO.C,L2*
X198689833Y26217619D02*
X198213642Y26217619D01*
X198213642Y27217619D01*
X198975547Y27122380D02*
X199023166Y27170000D01*
X199118404Y27217619D01*
X199356500Y27217619D01*
X199451738Y27170000D01*
X199499357Y27122380D01*
X199546976Y27027142D01*
X199546976Y26931904D01*
X199499357Y26789047D01*
X198927928Y26217619D01*
X199546976Y26217619D01*
G04 #@! TO.C,L1*
X194508380Y21677333D02*
X194508380Y21201142D01*
X193508380Y21201142D01*
X194508380Y22534476D02*
X194508380Y21963047D01*
X194508380Y22248761D02*
X193508380Y22248761D01*
X193651238Y22153523D01*
X193746476Y22058285D01*
X193794095Y21963047D01*
G04 #@! TO.C,C22*
X192635142Y14851142D02*
X192682761Y14803523D01*
X192730380Y14660666D01*
X192730380Y14565428D01*
X192682761Y14422571D01*
X192587523Y14327333D01*
X192492285Y14279714D01*
X192301809Y14232095D01*
X192158952Y14232095D01*
X191968476Y14279714D01*
X191873238Y14327333D01*
X191778000Y14422571D01*
X191730380Y14565428D01*
X191730380Y14660666D01*
X191778000Y14803523D01*
X191825619Y14851142D01*
X191825619Y15232095D02*
X191778000Y15279714D01*
X191730380Y15374952D01*
X191730380Y15613047D01*
X191778000Y15708285D01*
X191825619Y15755904D01*
X191920857Y15803523D01*
X192016095Y15803523D01*
X192158952Y15755904D01*
X192730380Y15184476D01*
X192730380Y15803523D01*
X191825619Y16184476D02*
X191778000Y16232095D01*
X191730380Y16327333D01*
X191730380Y16565428D01*
X191778000Y16660666D01*
X191825619Y16708285D01*
X191920857Y16755904D01*
X192016095Y16755904D01*
X192158952Y16708285D01*
X192730380Y16136857D01*
X192730380Y16755904D01*
G04 #@! TO.C,C21*
X186285142Y35171142D02*
X186332761Y35123523D01*
X186380380Y34980666D01*
X186380380Y34885428D01*
X186332761Y34742571D01*
X186237523Y34647333D01*
X186142285Y34599714D01*
X185951809Y34552095D01*
X185808952Y34552095D01*
X185618476Y34599714D01*
X185523238Y34647333D01*
X185428000Y34742571D01*
X185380380Y34885428D01*
X185380380Y34980666D01*
X185428000Y35123523D01*
X185475619Y35171142D01*
X185475619Y35552095D02*
X185428000Y35599714D01*
X185380380Y35694952D01*
X185380380Y35933047D01*
X185428000Y36028285D01*
X185475619Y36075904D01*
X185570857Y36123523D01*
X185666095Y36123523D01*
X185808952Y36075904D01*
X186380380Y35504476D01*
X186380380Y36123523D01*
X186380380Y37075904D02*
X186380380Y36504476D01*
X186380380Y36790190D02*
X185380380Y36790190D01*
X185523238Y36694952D01*
X185618476Y36599714D01*
X185666095Y36504476D01*
G04 #@! TO.C,C20*
X190857142Y14838142D02*
X190904761Y14790523D01*
X190952380Y14647666D01*
X190952380Y14552428D01*
X190904761Y14409571D01*
X190809523Y14314333D01*
X190714285Y14266714D01*
X190523809Y14219095D01*
X190380952Y14219095D01*
X190190476Y14266714D01*
X190095238Y14314333D01*
X190000000Y14409571D01*
X189952380Y14552428D01*
X189952380Y14647666D01*
X190000000Y14790523D01*
X190047619Y14838142D01*
X190047619Y15219095D02*
X190000000Y15266714D01*
X189952380Y15361952D01*
X189952380Y15600047D01*
X190000000Y15695285D01*
X190047619Y15742904D01*
X190142857Y15790523D01*
X190238095Y15790523D01*
X190380952Y15742904D01*
X190952380Y15171476D01*
X190952380Y15790523D01*
X189952380Y16409571D02*
X189952380Y16504809D01*
X190000000Y16600047D01*
X190047619Y16647666D01*
X190142857Y16695285D01*
X190333333Y16742904D01*
X190571428Y16742904D01*
X190761904Y16695285D01*
X190857142Y16647666D01*
X190904761Y16600047D01*
X190952380Y16504809D01*
X190952380Y16409571D01*
X190904761Y16314333D01*
X190857142Y16266714D01*
X190761904Y16219095D01*
X190571428Y16171476D01*
X190333333Y16171476D01*
X190142857Y16219095D01*
X190047619Y16266714D01*
X190000000Y16314333D01*
X189952380Y16409571D01*
G04 #@! TO.C,C19*
X187301142Y14864142D02*
X187348761Y14816523D01*
X187396380Y14673666D01*
X187396380Y14578428D01*
X187348761Y14435571D01*
X187253523Y14340333D01*
X187158285Y14292714D01*
X186967809Y14245095D01*
X186824952Y14245095D01*
X186634476Y14292714D01*
X186539238Y14340333D01*
X186444000Y14435571D01*
X186396380Y14578428D01*
X186396380Y14673666D01*
X186444000Y14816523D01*
X186491619Y14864142D01*
X187396380Y15816523D02*
X187396380Y15245095D01*
X187396380Y15530809D02*
X186396380Y15530809D01*
X186539238Y15435571D01*
X186634476Y15340333D01*
X186682095Y15245095D01*
X187396380Y16292714D02*
X187396380Y16483190D01*
X187348761Y16578428D01*
X187301142Y16626047D01*
X187158285Y16721285D01*
X186967809Y16768904D01*
X186586857Y16768904D01*
X186491619Y16721285D01*
X186444000Y16673666D01*
X186396380Y16578428D01*
X186396380Y16387952D01*
X186444000Y16292714D01*
X186491619Y16245095D01*
X186586857Y16197476D01*
X186824952Y16197476D01*
X186920190Y16245095D01*
X186967809Y16292714D01*
X187015428Y16387952D01*
X187015428Y16578428D01*
X186967809Y16673666D01*
X186920190Y16721285D01*
X186824952Y16768904D01*
G04 #@! TO.C,C17*
X182491142Y26058857D02*
X182443523Y26011238D01*
X182300666Y25963619D01*
X182205428Y25963619D01*
X182062571Y26011238D01*
X181967333Y26106476D01*
X181919714Y26201714D01*
X181872095Y26392190D01*
X181872095Y26535047D01*
X181919714Y26725523D01*
X181967333Y26820761D01*
X182062571Y26916000D01*
X182205428Y26963619D01*
X182300666Y26963619D01*
X182443523Y26916000D01*
X182491142Y26868380D01*
X183443523Y25963619D02*
X182872095Y25963619D01*
X183157809Y25963619D02*
X183157809Y26963619D01*
X183062571Y26820761D01*
X182967333Y26725523D01*
X182872095Y26677904D01*
X183776857Y26963619D02*
X184443523Y26963619D01*
X184014952Y25963619D01*
G04 #@! TO.C,C16*
X189079142Y14864142D02*
X189126761Y14816523D01*
X189174380Y14673666D01*
X189174380Y14578428D01*
X189126761Y14435571D01*
X189031523Y14340333D01*
X188936285Y14292714D01*
X188745809Y14245095D01*
X188602952Y14245095D01*
X188412476Y14292714D01*
X188317238Y14340333D01*
X188222000Y14435571D01*
X188174380Y14578428D01*
X188174380Y14673666D01*
X188222000Y14816523D01*
X188269619Y14864142D01*
X189174380Y15816523D02*
X189174380Y15245095D01*
X189174380Y15530809D02*
X188174380Y15530809D01*
X188317238Y15435571D01*
X188412476Y15340333D01*
X188460095Y15245095D01*
X188174380Y16673666D02*
X188174380Y16483190D01*
X188222000Y16387952D01*
X188269619Y16340333D01*
X188412476Y16245095D01*
X188602952Y16197476D01*
X188983904Y16197476D01*
X189079142Y16245095D01*
X189126761Y16292714D01*
X189174380Y16387952D01*
X189174380Y16578428D01*
X189126761Y16673666D01*
X189079142Y16721285D01*
X188983904Y16768904D01*
X188745809Y16768904D01*
X188650571Y16721285D01*
X188602952Y16673666D01*
X188555333Y16578428D01*
X188555333Y16387952D01*
X188602952Y16292714D01*
X188650571Y16245095D01*
X188745809Y16197476D01*
G04 #@! TO.C,C13*
X205081142Y10533142D02*
X205128761Y10485523D01*
X205176380Y10342666D01*
X205176380Y10247428D01*
X205128761Y10104571D01*
X205033523Y10009333D01*
X204938285Y9961714D01*
X204747809Y9914095D01*
X204604952Y9914095D01*
X204414476Y9961714D01*
X204319238Y10009333D01*
X204224000Y10104571D01*
X204176380Y10247428D01*
X204176380Y10342666D01*
X204224000Y10485523D01*
X204271619Y10533142D01*
X205176380Y11485523D02*
X205176380Y10914095D01*
X205176380Y11199809D02*
X204176380Y11199809D01*
X204319238Y11104571D01*
X204414476Y11009333D01*
X204462095Y10914095D01*
X204176380Y11818857D02*
X204176380Y12437904D01*
X204557333Y12104571D01*
X204557333Y12247428D01*
X204604952Y12342666D01*
X204652571Y12390285D01*
X204747809Y12437904D01*
X204985904Y12437904D01*
X205081142Y12390285D01*
X205128761Y12342666D01*
X205176380Y12247428D01*
X205176380Y11961714D01*
X205128761Y11866476D01*
X205081142Y11818857D01*
G04 #@! TO.C,C12*
X205081142Y16883142D02*
X205128761Y16835523D01*
X205176380Y16692666D01*
X205176380Y16597428D01*
X205128761Y16454571D01*
X205033523Y16359333D01*
X204938285Y16311714D01*
X204747809Y16264095D01*
X204604952Y16264095D01*
X204414476Y16311714D01*
X204319238Y16359333D01*
X204224000Y16454571D01*
X204176380Y16597428D01*
X204176380Y16692666D01*
X204224000Y16835523D01*
X204271619Y16883142D01*
X205176380Y17835523D02*
X205176380Y17264095D01*
X205176380Y17549809D02*
X204176380Y17549809D01*
X204319238Y17454571D01*
X204414476Y17359333D01*
X204462095Y17264095D01*
X204271619Y18216476D02*
X204224000Y18264095D01*
X204176380Y18359333D01*
X204176380Y18597428D01*
X204224000Y18692666D01*
X204271619Y18740285D01*
X204366857Y18787904D01*
X204462095Y18787904D01*
X204604952Y18740285D01*
X205176380Y18168857D01*
X205176380Y18787904D01*
G04 #@! TO.C,C11*
X189079142Y35184142D02*
X189126761Y35136523D01*
X189174380Y34993666D01*
X189174380Y34898428D01*
X189126761Y34755571D01*
X189031523Y34660333D01*
X188936285Y34612714D01*
X188745809Y34565095D01*
X188602952Y34565095D01*
X188412476Y34612714D01*
X188317238Y34660333D01*
X188222000Y34755571D01*
X188174380Y34898428D01*
X188174380Y34993666D01*
X188222000Y35136523D01*
X188269619Y35184142D01*
X189174380Y36136523D02*
X189174380Y35565095D01*
X189174380Y35850809D02*
X188174380Y35850809D01*
X188317238Y35755571D01*
X188412476Y35660333D01*
X188460095Y35565095D01*
X189174380Y37088904D02*
X189174380Y36517476D01*
X189174380Y36803190D02*
X188174380Y36803190D01*
X188317238Y36707952D01*
X188412476Y36612714D01*
X188460095Y36517476D01*
G04 #@! TO.C,C10*
X190857142Y35171142D02*
X190904761Y35123523D01*
X190952380Y34980666D01*
X190952380Y34885428D01*
X190904761Y34742571D01*
X190809523Y34647333D01*
X190714285Y34599714D01*
X190523809Y34552095D01*
X190380952Y34552095D01*
X190190476Y34599714D01*
X190095238Y34647333D01*
X190000000Y34742571D01*
X189952380Y34885428D01*
X189952380Y34980666D01*
X190000000Y35123523D01*
X190047619Y35171142D01*
X190952380Y36123523D02*
X190952380Y35552095D01*
X190952380Y35837809D02*
X189952380Y35837809D01*
X190095238Y35742571D01*
X190190476Y35647333D01*
X190238095Y35552095D01*
X189952380Y36742571D02*
X189952380Y36837809D01*
X190000000Y36933047D01*
X190047619Y36980666D01*
X190142857Y37028285D01*
X190333333Y37075904D01*
X190571428Y37075904D01*
X190761904Y37028285D01*
X190857142Y36980666D01*
X190904761Y36933047D01*
X190952380Y36837809D01*
X190952380Y36742571D01*
X190904761Y36647333D01*
X190857142Y36599714D01*
X190761904Y36552095D01*
X190571428Y36504476D01*
X190333333Y36504476D01*
X190142857Y36552095D01*
X190047619Y36599714D01*
X190000000Y36647333D01*
X189952380Y36742571D01*
G04 #@! TO.C,C7*
X168759142Y34631333D02*
X168806761Y34583714D01*
X168854380Y34440857D01*
X168854380Y34345619D01*
X168806761Y34202761D01*
X168711523Y34107523D01*
X168616285Y34059904D01*
X168425809Y34012285D01*
X168282952Y34012285D01*
X168092476Y34059904D01*
X167997238Y34107523D01*
X167902000Y34202761D01*
X167854380Y34345619D01*
X167854380Y34440857D01*
X167902000Y34583714D01*
X167949619Y34631333D01*
X167854380Y34964666D02*
X167854380Y35631333D01*
X168854380Y35202761D01*
G04 #@! TO.C,C6*
X217511333Y25042857D02*
X217463714Y24995238D01*
X217320857Y24947619D01*
X217225619Y24947619D01*
X217082761Y24995238D01*
X216987523Y25090476D01*
X216939904Y25185714D01*
X216892285Y25376190D01*
X216892285Y25519047D01*
X216939904Y25709523D01*
X216987523Y25804761D01*
X217082761Y25900000D01*
X217225619Y25947619D01*
X217320857Y25947619D01*
X217463714Y25900000D01*
X217511333Y25852380D01*
X218368476Y25947619D02*
X218178000Y25947619D01*
X218082761Y25900000D01*
X218035142Y25852380D01*
X217939904Y25709523D01*
X217892285Y25519047D01*
X217892285Y25138095D01*
X217939904Y25042857D01*
X217987523Y24995238D01*
X218082761Y24947619D01*
X218273238Y24947619D01*
X218368476Y24995238D01*
X218416095Y25042857D01*
X218463714Y25138095D01*
X218463714Y25376190D01*
X218416095Y25471428D01*
X218368476Y25519047D01*
X218273238Y25566666D01*
X218082761Y25566666D01*
X217987523Y25519047D01*
X217939904Y25471428D01*
X217892285Y25376190D01*
G04 #@! TO.C,C5*
X213447333Y25042857D02*
X213399714Y24995238D01*
X213256857Y24947619D01*
X213161619Y24947619D01*
X213018761Y24995238D01*
X212923523Y25090476D01*
X212875904Y25185714D01*
X212828285Y25376190D01*
X212828285Y25519047D01*
X212875904Y25709523D01*
X212923523Y25804761D01*
X213018761Y25900000D01*
X213161619Y25947619D01*
X213256857Y25947619D01*
X213399714Y25900000D01*
X213447333Y25852380D01*
X214352095Y25947619D02*
X213875904Y25947619D01*
X213828285Y25471428D01*
X213875904Y25519047D01*
X213971142Y25566666D01*
X214209238Y25566666D01*
X214304476Y25519047D01*
X214352095Y25471428D01*
X214399714Y25376190D01*
X214399714Y25138095D01*
X214352095Y25042857D01*
X214304476Y24995238D01*
X214209238Y24947619D01*
X213971142Y24947619D01*
X213875904Y24995238D01*
X213828285Y25042857D01*
G04 #@! TO.C,C4*
X206605142Y20407333D02*
X206652761Y20359714D01*
X206700380Y20216857D01*
X206700380Y20121619D01*
X206652761Y19978761D01*
X206557523Y19883523D01*
X206462285Y19835904D01*
X206271809Y19788285D01*
X206128952Y19788285D01*
X205938476Y19835904D01*
X205843238Y19883523D01*
X205748000Y19978761D01*
X205700380Y20121619D01*
X205700380Y20216857D01*
X205748000Y20359714D01*
X205795619Y20407333D01*
X206033714Y21264476D02*
X206700380Y21264476D01*
X205652761Y21026380D02*
X206367047Y20788285D01*
X206367047Y21407333D01*
G04 #@! TO.C,C3*
X198715333Y20724857D02*
X198667714Y20677238D01*
X198524857Y20629619D01*
X198429619Y20629619D01*
X198286761Y20677238D01*
X198191523Y20772476D01*
X198143904Y20867714D01*
X198096285Y21058190D01*
X198096285Y21201047D01*
X198143904Y21391523D01*
X198191523Y21486761D01*
X198286761Y21582000D01*
X198429619Y21629619D01*
X198524857Y21629619D01*
X198667714Y21582000D01*
X198715333Y21534380D01*
X199048666Y21629619D02*
X199667714Y21629619D01*
X199334380Y21248666D01*
X199477238Y21248666D01*
X199572476Y21201047D01*
X199620095Y21153428D01*
X199667714Y21058190D01*
X199667714Y20820095D01*
X199620095Y20724857D01*
X199572476Y20677238D01*
X199477238Y20629619D01*
X199191523Y20629619D01*
X199096285Y20677238D01*
X199048666Y20724857D01*
G04 #@! TO.C,C2*
X195937142Y28491333D02*
X195984761Y28443714D01*
X196032380Y28300857D01*
X196032380Y28205619D01*
X195984761Y28062761D01*
X195889523Y27967523D01*
X195794285Y27919904D01*
X195603809Y27872285D01*
X195460952Y27872285D01*
X195270476Y27919904D01*
X195175238Y27967523D01*
X195080000Y28062761D01*
X195032380Y28205619D01*
X195032380Y28300857D01*
X195080000Y28443714D01*
X195127619Y28491333D01*
X195127619Y28872285D02*
X195080000Y28919904D01*
X195032380Y29015142D01*
X195032380Y29253238D01*
X195080000Y29348476D01*
X195127619Y29396095D01*
X195222857Y29443714D01*
X195318095Y29443714D01*
X195460952Y29396095D01*
X196032380Y28824666D01*
X196032380Y29443714D01*
G04 #@! TO.C,C1*
X194413142Y17613333D02*
X194460761Y17565714D01*
X194508380Y17422857D01*
X194508380Y17327619D01*
X194460761Y17184761D01*
X194365523Y17089523D01*
X194270285Y17041904D01*
X194079809Y16994285D01*
X193936952Y16994285D01*
X193746476Y17041904D01*
X193651238Y17089523D01*
X193556000Y17184761D01*
X193508380Y17327619D01*
X193508380Y17422857D01*
X193556000Y17565714D01*
X193603619Y17613333D01*
X194508380Y18565714D02*
X194508380Y17994285D01*
X194508380Y18280000D02*
X193508380Y18280000D01*
X193651238Y18184761D01*
X193746476Y18089523D01*
X193794095Y17994285D01*
G04 #@! TO.C,U1*
X173228095Y24169619D02*
X173228095Y23360095D01*
X173275714Y23264857D01*
X173323333Y23217238D01*
X173418571Y23169619D01*
X173609047Y23169619D01*
X173704285Y23217238D01*
X173751904Y23264857D01*
X173799523Y23360095D01*
X173799523Y24169619D01*
X174799523Y23169619D02*
X174228095Y23169619D01*
X174513809Y23169619D02*
X174513809Y24169619D01*
X174418571Y24026761D01*
X174323333Y23931523D01*
X174228095Y23883904D01*
G04 #@! TO.C,AE1*
X227302666Y18159333D02*
X227302666Y18635523D01*
X227588380Y18064095D02*
X226588380Y18397428D01*
X227588380Y18730761D01*
X227064571Y19064095D02*
X227064571Y19397428D01*
X227588380Y19540285D02*
X227588380Y19064095D01*
X226588380Y19064095D01*
X226588380Y19540285D01*
X227588380Y20492666D02*
X227588380Y19921238D01*
X227588380Y20206952D02*
X226588380Y20206952D01*
X226731238Y20111714D01*
X226826476Y20016476D01*
X226874095Y19921238D01*
G04 #@! TO.C,Y1*
X214321190Y13901809D02*
X214797380Y13901809D01*
X213797380Y13568476D02*
X214321190Y13901809D01*
X213797380Y14235142D01*
X214797380Y15092285D02*
X214797380Y14520857D01*
X214797380Y14806571D02*
X213797380Y14806571D01*
X213940238Y14711333D01*
X214035476Y14616095D01*
X214083095Y14520857D01*
G04 #@! TO.C,F1*
X164774571Y27860666D02*
X164774571Y27527333D01*
X165298380Y27527333D02*
X164298380Y27527333D01*
X164298380Y28003523D01*
X165298380Y28908285D02*
X165298380Y28336857D01*
X165298380Y28622571D02*
X164298380Y28622571D01*
X164441238Y28527333D01*
X164536476Y28432095D01*
X164584095Y28336857D01*
G04 #@! TO.C,U3*
X184658095Y30519619D02*
X184658095Y29710095D01*
X184705714Y29614857D01*
X184753333Y29567238D01*
X184848571Y29519619D01*
X185039047Y29519619D01*
X185134285Y29567238D01*
X185181904Y29614857D01*
X185229523Y29710095D01*
X185229523Y30519619D01*
X185610476Y30519619D02*
X186229523Y30519619D01*
X185896190Y30138666D01*
X186039047Y30138666D01*
X186134285Y30091047D01*
X186181904Y30043428D01*
X186229523Y29948190D01*
X186229523Y29710095D01*
X186181904Y29614857D01*
X186134285Y29567238D01*
X186039047Y29519619D01*
X185753333Y29519619D01*
X185658095Y29567238D01*
X185610476Y29614857D01*
G04 #@! TO.C,U2*
X170942095Y30265619D02*
X170942095Y29456095D01*
X170989714Y29360857D01*
X171037333Y29313238D01*
X171132571Y29265619D01*
X171323047Y29265619D01*
X171418285Y29313238D01*
X171465904Y29360857D01*
X171513523Y29456095D01*
X171513523Y30265619D01*
X171942095Y30170380D02*
X171989714Y30218000D01*
X172084952Y30265619D01*
X172323047Y30265619D01*
X172418285Y30218000D01*
X172465904Y30170380D01*
X172513523Y30075142D01*
X172513523Y29979904D01*
X172465904Y29837047D01*
X171894476Y29265619D01*
X172513523Y29265619D01*
G04 #@! TO.C,J2*
X168830666Y26836619D02*
X168830666Y26122333D01*
X168783047Y25979476D01*
X168687809Y25884238D01*
X168544952Y25836619D01*
X168449714Y25836619D01*
X169259238Y26741380D02*
X169306857Y26789000D01*
X169402095Y26836619D01*
X169640190Y26836619D01*
X169735428Y26789000D01*
X169783047Y26741380D01*
X169830666Y26646142D01*
X169830666Y26550904D01*
X169783047Y26408047D01*
X169211619Y25836619D01*
X169830666Y25836619D01*
G04 #@! TD*
M02*
