M48
INCH,TZ
T1C0.0118
T2C0.0157
T3C0.0197
T4C0.0236
T5C0.0256
T6C0.0315
T7C0.0394
T8C0.0433
%
G90
G05
T1
X61400Y16600
X61400Y16300
X61400Y16000
X61400Y15700
X61400Y15400
X61400Y15100
X61400Y14800
X61400Y14500
X61400Y14200
X61400Y13900
X61400Y13600
X61400Y13300
X61400Y13000
X61400Y12700
X61400Y12400
X61400Y12100
X61400Y11800
X61400Y11500
X61400Y11200
X61400Y10900
X61400Y10600
X61400Y10300
X61400Y10000
X61400Y9700
X61400Y5200
X61400Y4900
X61400Y4600
X61400Y4300
X61400Y4000
X61400Y3700
X61400Y3400
X61400Y3100
X61400Y2800
X61500Y2500
X61700Y16600
X61800Y2500
X62000Y16600
X62000Y16000
X62000Y15000
X62000Y14000
X62000Y13000
X62000Y12000
X62000Y11000
X62000Y10000
X62000Y5000
X62000Y4000
X62000Y3000
X62100Y2500
X62300Y16600
X62400Y2500
X62600Y16600
X62700Y2500
X62900Y16600
X63000Y16000
X63000Y15000
X63000Y14000
X63000Y13000
X63000Y12000
X63000Y11000
X63000Y10000
X63000Y5000
X63000Y4000
X63000Y3000
X63000Y2500
X63200Y16600
X63300Y2500
X63500Y16600
X63600Y2500
X63800Y16600
X63900Y2500
X64000Y16000
X64000Y15000
X64000Y14000
X64000Y13000
X64000Y12000
X64000Y11000
X64000Y10000
X64000Y5000
X64000Y4000
X64000Y3000
X64100Y16600
X64200Y2500
X64400Y16600
X64500Y2500
X64700Y16600
X64700Y7400
X64800Y2500
X65000Y16600
X65000Y16000
X65000Y15000
X65000Y14000
X65000Y13000
X65000Y12000
X65000Y11000
X65000Y5000
X65000Y4000
X65000Y3000
X65100Y2500
X65300Y16600
X65400Y2500
X65600Y16600
X65700Y2500
X65900Y16600
X66000Y16000
X66000Y15000
X66000Y14000
X66000Y5000
X66000Y4000
X66000Y3000
X66000Y2500
X66200Y16600
X66300Y2500
X66500Y16600
X66500Y9500
X66500Y8500
X66600Y11500
X66600Y10500
X66600Y2500
X66800Y16600
X66900Y5150
X66900Y2500
X67000Y16000
X67000Y15000
X67000Y14000
X67000Y4000
X67000Y3000
X67100Y16600
X67200Y2500
X67400Y16600
X67500Y11500
X67500Y2500
X67600Y12700
X67700Y16600
X67800Y2500
X68000Y16600
X68000Y16000
X68000Y15000
X68000Y14000
X68000Y4000
X68000Y3000
X68100Y2500
X68300Y16600
X68400Y2500
X68500Y9000
X68500Y8300
X68500Y7400
X68500Y6000
X68500Y5200
X68600Y16600
X68700Y2500
X68900Y16600
X68900Y6650
X69000Y16000
X69000Y15000
X69000Y14000
X69000Y12000
X69000Y4000
X69000Y3000
X69000Y2500
X69200Y16600
X69300Y2500
X69500Y16600
X69600Y2500
X69800Y16600
X69900Y2500
X70000Y16000
X70000Y15000
X70000Y14000
X70000Y12000
X70000Y4000
X70000Y3000
X70100Y16600
X70200Y2500
X70400Y16600
X70500Y9000
X70500Y8000
X70500Y2500
X70700Y16600
X70800Y2500
X71000Y16600
X71000Y16000
X71000Y15000
X71000Y12000
X71000Y6000
X71000Y3000
X71100Y2500
X71300Y16600
X71400Y2500
X71600Y16600
X71700Y2500
X71900Y16600
X72000Y16000
X72000Y15000
X72000Y14000
X72000Y12000
X72000Y7000
X72000Y6000
X72000Y3000
X72000Y2500
X72200Y16600
X72300Y2500
X72500Y16600
X72600Y2500
X72700Y13200
X72700Y9800
X72800Y16600
X72900Y9500
X72900Y8900
X72900Y2500
X73000Y16000
X73000Y15000
X73000Y14000
X73000Y3000
X73100Y16600
X73117Y8500
X73200Y2500
X73400Y16600
X73400Y8200
X73500Y2500
X73600Y8500
X73700Y16600
X73800Y2500
X73900Y8200
X74000Y16600
X74000Y16000
X74000Y15000
X74000Y14000
X74000Y3000
X74100Y10900
X74100Y10400
X74100Y9900
X74100Y8500
X74100Y2500
X74200Y12100
X74300Y16600
X74400Y8200
X74400Y2500
X74600Y16600
X74600Y10900
X74600Y10400
X74600Y9900
X74600Y8500
X74700Y2500
X74900Y16600
X75000Y16000
X75000Y15000
X75000Y14000
X75000Y6000
X75000Y3000
X75000Y2500
X75100Y12100
X75100Y10900
X75100Y10400
X75100Y9900
X75200Y16600
X75300Y8400
X75300Y2500
X75500Y16600
X75500Y8700
X75600Y2500
X75800Y16600
X75900Y2500
X76000Y16000
X76000Y14000
X76000Y13000
X76000Y12000
X76000Y6000
X76000Y3000
X76100Y16600
X76100Y8400
X76200Y2500
X76300Y8700
X76400Y16600
X76400Y9100
X76500Y2500
X76600Y8900
X76600Y8600
X76600Y8300
X76600Y8000
X76600Y7700
X76600Y7400
X76600Y7100
X76600Y6800
X76600Y6500
X76700Y16600
X76800Y2500
X76900Y9400
X77000Y16600
X77000Y16000
X77000Y15000
X77000Y14000
X77000Y10900
X77000Y6300
X77000Y5000
X77000Y4000
X77000Y3000
X77100Y2500
X77200Y9400
X77300Y16600
X77400Y10800
X77400Y10500
X77400Y8300
X77400Y8000
X77400Y7700
X77400Y7400
X77400Y7100
X77400Y6800
X77400Y6500
X77400Y2500
X77500Y9400
X77600Y16600
X77600Y10300
X77600Y8500
X77700Y2500
X77800Y9400
X77900Y16600
X77900Y10300
X77900Y8500
X78000Y16000
X78000Y14000
X78000Y13000
X78000Y12000
X78000Y8000
X78000Y7000
X78000Y5000
X78000Y4000
X78000Y3000
X78000Y2500
X78100Y9400
X78200Y16600
X78200Y10300
X78200Y8500
X78300Y2500
X78400Y9400
X78500Y16600
X78500Y10300
X78500Y8500
X78600Y2500
X78700Y9400
X78800Y16600
X78800Y10300
X78800Y8500
X78900Y2500
X79000Y16000
X79000Y14000
X79000Y12000
X79000Y10100
X79000Y8700
X79000Y8000
X79000Y7000
X79000Y5000
X79000Y4000
X79000Y3000
X79100Y16600
X79100Y9800
X79100Y9000
X79200Y2500
X79400Y16600
X79400Y9800
X79400Y9000
X79500Y2500
X79700Y16600
X79700Y9800
X79700Y9000
X79800Y2500
X80000Y16600
X80000Y16000
X80000Y15000
X80000Y14000
X80000Y9800
X80000Y9000
X80000Y8000
X80000Y7000
X80000Y5000
X80000Y4000
X80000Y3000
X80100Y2500
X80300Y16600
X80300Y9800
X80300Y9000
X80400Y2500
X80600Y16600
X80600Y9800
X80600Y9000
X80700Y2500
X80800Y8800
X80800Y8500
X80900Y16600
X80900Y9800
X81000Y16000
X81000Y15000
X81000Y14000
X81000Y6000
X81000Y3000
X81000Y2500
X81200Y16600
X81200Y9800
X81200Y8400
X81300Y2500
X81500Y16600
X81500Y9800
X81600Y8800
X81600Y8500
X81600Y2500
X81800Y16600
X81800Y9800
X81800Y9000
X81900Y2500
X82000Y16000
X82000Y12000
X82000Y8000
X82000Y7000
X82000Y6000
X82000Y5000
X82000Y4000
X82000Y3000
X82100Y16600
X82100Y9800
X82100Y9000
X82200Y2500
X82400Y16600
X82400Y9800
X82400Y9000
X82500Y2500
X82700Y16600
X82700Y9800
X82700Y9000
X82800Y2500
X83000Y16600
X83000Y16000
X83000Y14000
X83000Y12000
X83000Y11000
X83000Y9800
X83000Y9000
X83000Y8000
X83000Y6000
X83000Y4000
X83000Y3000
X83100Y2500
X83300Y16600
X83300Y9800
X83300Y9000
X83400Y2500
X83600Y16600
X83600Y9800
X83600Y9000
X83700Y2500
X83900Y16600
X83900Y9800
X83900Y9000
X84000Y16000
X84000Y15000
X84000Y14000
X84000Y12000
X84000Y11000
X84000Y8000
X84000Y7000
X84000Y6000
X84000Y5000
X84000Y4000
X84000Y3000
X84000Y2500
X84200Y16600
X84200Y9800
X84200Y9000
X84300Y2500
X84500Y16600
X84500Y9800
X84500Y9000
X84600Y2500
X84800Y16600
X84800Y9800
X84800Y9000
X84900Y2500
X85000Y16000
X85000Y12000
X85000Y11000
X85000Y8000
X85000Y7000
X85000Y6000
X85000Y5000
X85000Y4000
X85000Y3000
X85100Y16600
X85100Y9800
X85100Y9000
X85200Y2500
X85400Y16600
X85400Y9800
X85400Y9000
X85500Y2500
X85700Y16600
X85700Y9800
X85700Y9000
X85800Y2500
X86000Y16600
X86000Y16000
X86000Y15000
X86000Y14000
X86000Y13000
X86000Y12000
X86000Y11000
X86000Y9800
X86000Y9000
X86000Y8000
X86000Y7000
X86000Y6000
X86000Y5000
X86000Y4000
X86000Y3000
X86100Y2500
X86300Y16600
X86300Y9800
X86300Y9000
X86400Y2500
X86600Y16600
X86600Y9800
X86600Y9000
X86700Y2500
X86900Y16600
X86900Y16300
X86900Y16000
X86900Y15700
X86900Y15400
X86900Y15100
X86900Y14800
X86900Y14500
X86900Y14200
X86900Y13900
X86900Y13600
X86900Y13300
X86900Y13000
X86900Y12700
X86900Y12400
X86900Y12100
X86900Y11800
X86900Y11500
X86900Y11200
X86900Y10900
X86900Y10600
X86900Y10227
X86900Y9800
X86900Y9000
X86900Y8700
X86900Y8400
X86900Y8100
X86900Y7800
X86900Y7500
X86900Y7200
X86900Y6900
X86900Y6600
X86900Y6300
X86900Y6000
X86900Y5700
X86900Y5400
X86900Y5100
X86900Y4800
X86900Y4500
X86900Y4200
X86900Y3900
X86900Y3600
X86900Y3300
X86900Y3000
X86900Y2700
T2
X62869Y8600
X62869Y8265
X62869Y7931
X62869Y7596
X62869Y7261
X62869Y6927
X62869Y6592
X62869Y6257
X63400Y8600
X63400Y8265
X63400Y7931
X63400Y7596
X63400Y7261
X63400Y6927
X63400Y6592
X63400Y6257
T3
X81600Y11548
X81600Y10800
T5
X67500Y10600
X67500Y10100
X68000Y10600
X68000Y10100
X68500Y10600
X68500Y10100
X69000Y10600
X69000Y10100
X69500Y10600
X69500Y10100
T6
X83000Y6621
X83000Y4700
T7
X71100Y4900
X71100Y3900
X72100Y4900
X72100Y3900
X73100Y4900
X73100Y3900
X74100Y4900
X74100Y3900
X75100Y4900
X75100Y3900
X76100Y4900
X76100Y3900
T8
X82400Y14972
X82400Y13200
X84959Y14972
X84959Y13200
T4
G00X61841Y9131
M15
G01X61526Y9131
M16
G05
G00X61841Y5726
M15
G01X61526Y5726
M16
G05
G00X63309Y9131
M15
G01X62719Y9131
M16
G05
G00X63309Y5726
M15
G01X62719Y5726
M16
G05
T0
M30
