G04 #@! TF.GenerationSoftware,KiCad,Pcbnew,5.1.9*
G04 #@! TF.CreationDate,2021-04-01T15:39:56-06:00*
G04 #@! TF.ProjectId,BluetoothBlinker-PCB,426c7565-746f-46f7-9468-426c696e6b65,rev?*
G04 #@! TF.SameCoordinates,Original*
G04 #@! TF.FileFunction,Copper,L2,Bot*
G04 #@! TF.FilePolarity,Positive*
%FSLAX46Y46*%
G04 Gerber Fmt 4.6, Leading zero omitted, Abs format (unit mm)*
G04 Created by KiCad (PCBNEW 5.1.9) date 2021-04-01 15:39:56*
%MOMM*%
%LPD*%
G01*
G04 APERTURE LIST*
G04 #@! TA.AperFunction,ComponentPad*
%ADD10C,2.000000*%
G04 #@! TD*
G04 #@! TA.AperFunction,ComponentPad*
%ADD11C,1.000000*%
G04 #@! TD*
G04 #@! TA.AperFunction,ComponentPad*
%ADD12O,1.700000X1.700000*%
G04 #@! TD*
G04 #@! TA.AperFunction,ComponentPad*
%ADD13R,1.700000X1.700000*%
G04 #@! TD*
G04 #@! TA.AperFunction,ComponentPad*
%ADD14O,1.700000X0.900000*%
G04 #@! TD*
G04 #@! TA.AperFunction,ComponentPad*
%ADD15O,2.400000X0.900000*%
G04 #@! TD*
G04 #@! TA.AperFunction,ComponentPad*
%ADD16C,0.700000*%
G04 #@! TD*
G04 #@! TA.AperFunction,ComponentPad*
%ADD17R,0.500000X0.900000*%
G04 #@! TD*
G04 #@! TA.AperFunction,ComponentPad*
%ADD18C,1.500000*%
G04 #@! TD*
G04 #@! TA.AperFunction,ComponentPad*
%ADD19O,1.000000X1.000000*%
G04 #@! TD*
G04 #@! TA.AperFunction,ComponentPad*
%ADD20R,1.000000X1.000000*%
G04 #@! TD*
G04 #@! TA.AperFunction,ViaPad*
%ADD21C,0.500000*%
G04 #@! TD*
G04 #@! TA.AperFunction,Conductor*
%ADD22C,0.400000*%
G04 #@! TD*
G04 #@! TA.AperFunction,Conductor*
%ADD23C,0.200000*%
G04 #@! TD*
G04 #@! TA.AperFunction,Conductor*
%ADD24C,0.250000*%
G04 #@! TD*
G04 #@! TA.AperFunction,Conductor*
%ADD25C,0.100000*%
G04 #@! TD*
G04 APERTURE END LIST*
D10*
G04 #@! TO.P,SW1,1*
G04 #@! TO.N,Net-(R7-Pad2)*
X209296000Y33528000D03*
G04 #@! TO.P,SW1,2*
G04 #@! TO.N,GND*
X209296000Y38028000D03*
G04 #@! TO.P,SW1,1*
G04 #@! TO.N,Net-(R7-Pad2)*
X215796000Y33528000D03*
G04 #@! TO.P,SW1,2*
G04 #@! TO.N,GND*
X215796000Y38028000D03*
G04 #@! TD*
D11*
G04 #@! TO.P,Y2,2*
G04 #@! TO.N,/X32K_N*
X207264000Y29332000D03*
G04 #@! TO.P,Y2,1*
G04 #@! TO.N,/X32K_P*
X207264000Y27432000D03*
G04 #@! TD*
D12*
G04 #@! TO.P,J3,12*
G04 #@! TO.N,/VDD*
X193294000Y12446000D03*
G04 #@! TO.P,J3,11*
G04 #@! TO.N,GND*
X193294000Y9906000D03*
G04 #@! TO.P,J3,10*
G04 #@! TO.N,/DIO_30*
X190754000Y12446000D03*
G04 #@! TO.P,J3,9*
G04 #@! TO.N,/DIO_29*
X190754000Y9906000D03*
G04 #@! TO.P,J3,8*
G04 #@! TO.N,/DIO_28*
X188214000Y12446000D03*
G04 #@! TO.P,J3,7*
G04 #@! TO.N,/DIO_27*
X188214000Y9906000D03*
G04 #@! TO.P,J3,6*
G04 #@! TO.N,/DIO_26*
X185674000Y12446000D03*
G04 #@! TO.P,J3,5*
G04 #@! TO.N,/DIO_25*
X185674000Y9906000D03*
G04 #@! TO.P,J3,4*
G04 #@! TO.N,/DIO_24*
X183134000Y12446000D03*
G04 #@! TO.P,J3,3*
G04 #@! TO.N,/DIO_23*
X183134000Y9906000D03*
G04 #@! TO.P,J3,2*
G04 #@! TO.N,GND*
X180594000Y12446000D03*
D13*
G04 #@! TO.P,J3,1*
G04 #@! TO.N,/VDD*
X180594000Y9906000D03*
G04 #@! TD*
D14*
G04 #@! TO.P,J1,S1*
G04 #@! TO.N,GND1*
X156676000Y14544000D03*
X156676000Y23194000D03*
D15*
X160056000Y14544000D03*
X160056000Y23194000D03*
D16*
G04 #@! TO.P,J1,B6*
G04 #@! TO.N,/D-*
X159686000Y18444000D03*
G04 #@! TO.P,J1,B1*
G04 #@! TO.N,GND*
X159686000Y15894000D03*
G04 #@! TO.P,J1,B4*
G04 #@! TO.N,Net-(F1-Pad2)*
X159686000Y16744000D03*
G04 #@! TO.P,J1,B5*
G04 #@! TO.N,Net-(J1-PadB5)*
X159686000Y17594000D03*
G04 #@! TO.P,J1,B12*
G04 #@! TO.N,GND*
X159686000Y21844000D03*
G04 #@! TO.P,J1,B8*
G04 #@! TO.N,Net-(J1-PadB8)*
X159686000Y20144000D03*
G04 #@! TO.P,J1,B7*
G04 #@! TO.N,/D+*
X159686000Y19294000D03*
G04 #@! TO.P,J1,B9*
G04 #@! TO.N,Net-(F1-Pad2)*
X159686000Y20994000D03*
G04 #@! TO.P,J1,A12*
G04 #@! TO.N,GND*
X161036000Y15894000D03*
G04 #@! TO.P,J1,A9*
G04 #@! TO.N,Net-(F1-Pad2)*
X161036000Y16744000D03*
G04 #@! TO.P,J1,A8*
G04 #@! TO.N,Net-(J1-PadA8)*
X161036000Y17594000D03*
G04 #@! TO.P,J1,A7*
G04 #@! TO.N,/D+*
X161036000Y18444000D03*
G04 #@! TO.P,J1,A6*
G04 #@! TO.N,/D-*
X161036000Y19294000D03*
G04 #@! TO.P,J1,A5*
G04 #@! TO.N,Net-(J1-PadA5)*
X161036000Y20144000D03*
G04 #@! TO.P,J1,A4*
G04 #@! TO.N,Net-(F1-Pad2)*
X161036000Y20994000D03*
G04 #@! TO.P,J1,A1*
G04 #@! TO.N,GND*
X161036000Y21844000D03*
G04 #@! TD*
D17*
G04 #@! TO.P,AE1,2*
G04 #@! TO.N,GND*
X220726000Y25976000D03*
G04 #@! TD*
D18*
G04 #@! TO.P,Y1,2*
G04 #@! TO.N,/X48M_N*
X210820000Y11938000D03*
G04 #@! TO.P,Y1,1*
G04 #@! TO.N,/X48M_P*
X210820000Y16818000D03*
G04 #@! TD*
D19*
G04 #@! TO.P,J2,10*
G04 #@! TO.N,/JTAG_RESET_MCU*
X176530000Y26924000D03*
G04 #@! TO.P,J2,9*
G04 #@! TO.N,Net-(J2-Pad9)*
X176530000Y25654000D03*
G04 #@! TO.P,J2,8*
G04 #@! TO.N,/JTAG_TDI_MCU*
X175260000Y26924000D03*
G04 #@! TO.P,J2,7*
G04 #@! TO.N,Net-(J2-Pad7)*
X175260000Y25654000D03*
G04 #@! TO.P,J2,6*
G04 #@! TO.N,/JTAG_TDO_MCU*
X173990000Y26924000D03*
G04 #@! TO.P,J2,5*
G04 #@! TO.N,GND*
X173990000Y25654000D03*
G04 #@! TO.P,J2,4*
G04 #@! TO.N,/JTAG_TCKC_MCU*
X172720000Y26924000D03*
G04 #@! TO.P,J2,3*
G04 #@! TO.N,GND*
X172720000Y25654000D03*
G04 #@! TO.P,J2,2*
G04 #@! TO.N,/JTAG_TMSC_MCU*
X171450000Y26924000D03*
D20*
G04 #@! TO.P,J2,1*
G04 #@! TO.N,/VDD*
X171450000Y25654000D03*
G04 #@! TD*
D21*
G04 #@! TO.N,GND*
X190754000Y30734000D03*
X188468000Y30734000D03*
X193040000Y33020000D03*
X198120000Y33020000D03*
X213360000Y35560000D03*
X210820000Y35560000D03*
X213360000Y38100000D03*
X203200000Y38100000D03*
X205740000Y38100000D03*
X208280000Y30480000D03*
X200660000Y30480000D03*
X198120000Y30480000D03*
X187960000Y35560000D03*
X180340000Y30480000D03*
X177800000Y30480000D03*
X175260000Y30480000D03*
X182880000Y30480000D03*
X171704000Y32258000D03*
X157480000Y40640000D03*
X160020000Y40640000D03*
X162560000Y40640000D03*
X165100000Y40640000D03*
X167640000Y40640000D03*
X170180000Y40640000D03*
X172720000Y40640000D03*
X175260000Y40640000D03*
X177800000Y40640000D03*
X180340000Y40640000D03*
X182880000Y40640000D03*
X185420000Y40640000D03*
X187960000Y40640000D03*
X190500000Y40640000D03*
X193040000Y40640000D03*
X165100000Y38100000D03*
X180340000Y38100000D03*
X172720000Y38100000D03*
X160020000Y38100000D03*
X157480000Y38100000D03*
X182880000Y38100000D03*
X185420000Y38100000D03*
X162560000Y38100000D03*
X175260000Y38100000D03*
X170180000Y38100000D03*
X167640000Y38100000D03*
X177800000Y38100000D03*
X165100000Y35560000D03*
X172720000Y35560000D03*
X160020000Y35560000D03*
X157480000Y35560000D03*
X182880000Y35560000D03*
X185420000Y35560000D03*
X162560000Y35560000D03*
X175260000Y35560000D03*
X170180000Y35560000D03*
X167640000Y35560000D03*
X177800000Y35560000D03*
X160020000Y33020000D03*
X157480000Y33020000D03*
X162560000Y33020000D03*
X157480000Y30480000D03*
X160020000Y27940000D03*
X157480000Y27940000D03*
X162560000Y30480000D03*
X162560000Y27940000D03*
X160020000Y30480000D03*
X187960000Y38100000D03*
X190500000Y38100000D03*
X190500000Y35560000D03*
X193040000Y35560000D03*
X195580000Y38100000D03*
X200660000Y35560000D03*
X198120000Y35560000D03*
X203200000Y35560000D03*
X205740000Y35560000D03*
X195580000Y35560000D03*
X193040000Y30480000D03*
X169164000Y29210000D03*
X171450000Y29210000D03*
X169164000Y26670000D03*
X168910000Y24130000D03*
X168910000Y21590000D03*
X173990000Y13208000D03*
X173990000Y15240000D03*
X173990000Y18796000D03*
X173990000Y22860000D03*
X179070000Y22860000D03*
X179070000Y20320000D03*
X190500000Y15240000D03*
X193040000Y15240000D03*
X218440000Y38100000D03*
X218440000Y35560000D03*
X218440000Y33020000D03*
X218440000Y30480000D03*
X218440000Y27940000D03*
X215900000Y27940000D03*
X213360000Y27940000D03*
X215900000Y30480000D03*
X213360000Y30480000D03*
X210820000Y30480000D03*
X210820000Y27940000D03*
X205740000Y15240000D03*
X203200000Y17780000D03*
X200660000Y17780000D03*
X198120000Y17780000D03*
X198120000Y20320000D03*
X200660000Y20320000D03*
X203200000Y20320000D03*
X198120000Y10160000D03*
X200660000Y10160000D03*
X195580000Y10160000D03*
X203200000Y10160000D03*
X198120000Y12700000D03*
X200660000Y12700000D03*
X195580000Y12700000D03*
X203200000Y12700000D03*
X182880000Y15240000D03*
X180340000Y15240000D03*
X182880000Y17780000D03*
X160020000Y10160000D03*
X160020000Y7620000D03*
X162560000Y7620000D03*
X162560000Y12700000D03*
X157480000Y7620000D03*
X157480000Y12700000D03*
X157480000Y10160000D03*
X162560000Y10160000D03*
X160020000Y12700000D03*
X165100000Y12700000D03*
X165100000Y7620000D03*
X165100000Y10160000D03*
X167640000Y12700000D03*
X167640000Y7620000D03*
X167640000Y10160000D03*
X170180000Y10160000D03*
X170180000Y7620000D03*
X172720000Y10160000D03*
X172720000Y7620000D03*
X175260000Y10160000D03*
X175260000Y7620000D03*
X177800000Y10160000D03*
X177800000Y7620000D03*
X187960000Y7620000D03*
X190500000Y7620000D03*
X180340000Y7620000D03*
X193040000Y7620000D03*
X185420000Y7620000D03*
X195580000Y7620000D03*
X182880000Y7620000D03*
X205740000Y7620000D03*
X208280000Y7620000D03*
X198120000Y7620000D03*
X210820000Y7620000D03*
X203200000Y7620000D03*
X213360000Y7620000D03*
X200660000Y7620000D03*
X218440000Y12700000D03*
X218440000Y15240000D03*
X218440000Y17780000D03*
X218440000Y10160000D03*
X218440000Y20320000D03*
X218440000Y7620000D03*
X215900000Y7620000D03*
X215900000Y10160000D03*
X215900000Y20320000D03*
X215900000Y15240000D03*
X215900000Y12700000D03*
X215900000Y17780000D03*
X213360000Y20320000D03*
X210820000Y20320000D03*
X208280000Y20320000D03*
X210820000Y15240000D03*
X208280000Y15240000D03*
X208280000Y12700000D03*
X213360000Y15240000D03*
X213360000Y12700000D03*
X213360000Y10160000D03*
X210820000Y10160000D03*
X208280000Y10160000D03*
X208280000Y17780000D03*
X213360000Y17780000D03*
X165100000Y33020000D03*
X165100000Y30480000D03*
X165100000Y27940000D03*
X162560000Y25400000D03*
X160020000Y25400000D03*
X157480000Y25400000D03*
X205740000Y40640000D03*
X195580000Y40640000D03*
X198120000Y40640000D03*
X200660000Y40640000D03*
X203200000Y40640000D03*
X218440000Y40640000D03*
X208280000Y40640000D03*
X210820000Y40640000D03*
X213360000Y40640000D03*
X215900000Y40640000D03*
X220726000Y24892000D03*
X190754000Y25146000D03*
X188214000Y25146000D03*
X189484000Y25146000D03*
X190754000Y26416000D03*
X188214000Y26416000D03*
X189484000Y26416000D03*
X190754000Y27686000D03*
X189484000Y27686000D03*
X188214000Y27686000D03*
X207264000Y21590000D03*
X206248000Y21336000D03*
X205232000Y21590000D03*
X205232000Y22352000D03*
X204724000Y22860000D03*
X203962000Y22860000D03*
X203200000Y22860000D03*
X202438000Y22860000D03*
X201676000Y22860000D03*
X200914000Y22860000D03*
X200660000Y22098000D03*
X200152000Y21590000D03*
X199390000Y21590000D03*
X198628000Y21590000D03*
X197866000Y21590000D03*
X197104000Y21590000D03*
X196596000Y21082000D03*
X196596000Y20320000D03*
X196596000Y19558000D03*
X196596000Y18796000D03*
X196596000Y18034000D03*
X196596000Y17272000D03*
X196596000Y16510000D03*
X195580000Y16002000D03*
X194564000Y16510000D03*
X194564000Y17272000D03*
X194564000Y18034000D03*
X194564000Y18796000D03*
X194564000Y19558000D03*
X194564000Y20320000D03*
X194564000Y21082000D03*
X194564000Y21844000D03*
X194564000Y22606000D03*
X194056000Y23114000D03*
X213868000Y24892000D03*
X218440000Y24892000D03*
X219964000Y24892000D03*
X208534000Y24892000D03*
X207772000Y24892000D03*
X211582000Y24892000D03*
X209296000Y24892000D03*
X216916000Y24892000D03*
X213106000Y24892000D03*
X210820000Y24892000D03*
X212344000Y24892000D03*
X210058000Y24892000D03*
X216154000Y24892000D03*
X215392000Y24892000D03*
X217678000Y24892000D03*
X219202000Y24892000D03*
X214630000Y24892000D03*
X202438000Y24892000D03*
X203200000Y24892000D03*
X206248000Y24892000D03*
X205486000Y24892000D03*
X207010000Y24892000D03*
X204724000Y24892000D03*
X203962000Y24892000D03*
X201676000Y24892000D03*
X200914000Y24892000D03*
X200660000Y25654000D03*
X200152000Y26162000D03*
X199390000Y26162000D03*
X198628000Y26162000D03*
X197866000Y26162000D03*
X197104000Y26162000D03*
X196596000Y26670000D03*
X196596000Y27432000D03*
X195580000Y27686000D03*
X199898000Y23876000D03*
X199136000Y23876000D03*
X198374000Y23876000D03*
X197612000Y23876000D03*
X196850000Y23876000D03*
X196088000Y23876000D03*
X195326000Y23876000D03*
X173990000Y21082000D03*
X207264000Y22352000D03*
X207772000Y22860000D03*
X208534000Y22860000D03*
X213106000Y22860000D03*
X211582000Y22860000D03*
X209296000Y22860000D03*
X210058000Y22860000D03*
X210820000Y22860000D03*
X213868000Y22860000D03*
X212344000Y22860000D03*
X216154000Y22860000D03*
X214630000Y22860000D03*
X216916000Y22860000D03*
X215392000Y22860000D03*
X217678000Y22860000D03*
X218440000Y22860000D03*
X219202000Y22860000D03*
X173482000Y42164000D03*
X177292000Y42164000D03*
X157480000Y42164000D03*
X204724000Y42164000D03*
X213106000Y42164000D03*
X193294000Y42164000D03*
X178816000Y42164000D03*
X199390000Y42164000D03*
X186436000Y42164000D03*
X192532000Y42164000D03*
X208534000Y42164000D03*
X172720000Y42164000D03*
X197104000Y42164000D03*
X187198000Y42164000D03*
X182626000Y42164000D03*
X167386000Y42164000D03*
X174244000Y42164000D03*
X170434000Y42164000D03*
X185674000Y42164000D03*
X183388000Y42164000D03*
X168148000Y42164000D03*
X200152000Y42164000D03*
X218440000Y42164000D03*
X203200000Y42164000D03*
X211582000Y42164000D03*
X191770000Y42164000D03*
X190246000Y42164000D03*
X214630000Y42164000D03*
X168910000Y42164000D03*
X213868000Y42164000D03*
X175006000Y42164000D03*
X159766000Y42164000D03*
X195580000Y42164000D03*
X184912000Y42164000D03*
X179578000Y42164000D03*
X194056000Y42164000D03*
X207772000Y42164000D03*
X191008000Y42164000D03*
X205486000Y42164000D03*
X165100000Y42164000D03*
X197866000Y42164000D03*
X202438000Y42164000D03*
X189484000Y42164000D03*
X194818000Y42164000D03*
X217678000Y42164000D03*
X181102000Y42164000D03*
X165862000Y42164000D03*
X184150000Y42164000D03*
X162052000Y42164000D03*
X166624000Y42164000D03*
X171196000Y42164000D03*
X196342000Y42164000D03*
X209296000Y42164000D03*
X219202000Y42164000D03*
X206248000Y42164000D03*
X162814000Y42164000D03*
X200914000Y42164000D03*
X159004000Y42164000D03*
X212344000Y42164000D03*
X175768000Y42164000D03*
X180340000Y42164000D03*
X203962000Y42164000D03*
X187960000Y42164000D03*
X215392000Y42164000D03*
X207010000Y42164000D03*
X198628000Y42164000D03*
X176530000Y42164000D03*
X164338000Y42164000D03*
X216154000Y42164000D03*
X160528000Y42164000D03*
X210820000Y42164000D03*
X158242000Y42164000D03*
X201676000Y42164000D03*
X178054000Y42164000D03*
X188722000Y42164000D03*
X181864000Y42164000D03*
X171958000Y42164000D03*
X169672000Y42164000D03*
X163576000Y42164000D03*
X161290000Y42164000D03*
X216916000Y42164000D03*
X210058000Y42164000D03*
X220726000Y26924000D03*
X219964000Y42164000D03*
X220726000Y39878000D03*
X220726000Y41402000D03*
X220726000Y40640000D03*
X220726000Y38354000D03*
X220726000Y39116000D03*
X220726000Y35306000D03*
X220726000Y37592000D03*
X220726000Y36830000D03*
X220726000Y36068000D03*
X220726000Y31496000D03*
X220726000Y32258000D03*
X220726000Y33782000D03*
X220726000Y30734000D03*
X220726000Y33020000D03*
X220726000Y34544000D03*
X220726000Y29210000D03*
X220726000Y28448000D03*
X220726000Y27686000D03*
X220726000Y29972000D03*
X220726000Y42164000D03*
X220218000Y6350000D03*
X220726000Y6858000D03*
X220726000Y7620000D03*
X220726000Y8382000D03*
X220726000Y9144000D03*
X220726000Y10668000D03*
X220726000Y9906000D03*
X220726000Y12192000D03*
X220726000Y11430000D03*
X220726000Y12954000D03*
X220726000Y14478000D03*
X220726000Y13716000D03*
X220726000Y16764000D03*
X220726000Y16002000D03*
X220726000Y21336000D03*
X220726000Y22098000D03*
X220726000Y15240000D03*
X220726000Y18288000D03*
X220726000Y17526000D03*
X220726000Y19050000D03*
X220726000Y19812000D03*
X220726000Y20574000D03*
X219964000Y22860000D03*
X220726000Y22860000D03*
X155956000Y13208000D03*
X155956000Y10922000D03*
X155956000Y11684000D03*
X155956000Y10160000D03*
X155956000Y12446000D03*
X155956000Y8636000D03*
X155956000Y9398000D03*
X155956000Y7874000D03*
X155956000Y7112000D03*
X157734000Y6350000D03*
X158496000Y6350000D03*
X156210000Y6350000D03*
X156972000Y6350000D03*
X160782000Y6350000D03*
X161544000Y6350000D03*
X162306000Y6350000D03*
X160020000Y6350000D03*
X159258000Y6350000D03*
X165354000Y6350000D03*
X166878000Y6350000D03*
X170688000Y6350000D03*
X173736000Y6350000D03*
X171450000Y6350000D03*
X163068000Y6350000D03*
X172974000Y6350000D03*
X167640000Y6350000D03*
X169164000Y6350000D03*
X172212000Y6350000D03*
X163830000Y6350000D03*
X168402000Y6350000D03*
X164592000Y6350000D03*
X166116000Y6350000D03*
X169926000Y6350000D03*
X181356000Y6350000D03*
X174498000Y6350000D03*
X180594000Y6350000D03*
X185166000Y6350000D03*
X175260000Y6350000D03*
X179832000Y6350000D03*
X178308000Y6350000D03*
X183642000Y6350000D03*
X182118000Y6350000D03*
X179070000Y6350000D03*
X177546000Y6350000D03*
X182880000Y6350000D03*
X184404000Y6350000D03*
X176022000Y6350000D03*
X176784000Y6350000D03*
X192786000Y6350000D03*
X187452000Y6350000D03*
X196596000Y6350000D03*
X188214000Y6350000D03*
X191262000Y6350000D03*
X195834000Y6350000D03*
X193548000Y6350000D03*
X185928000Y6350000D03*
X190500000Y6350000D03*
X194310000Y6350000D03*
X188976000Y6350000D03*
X192024000Y6350000D03*
X195072000Y6350000D03*
X186690000Y6350000D03*
X189738000Y6350000D03*
X201168000Y6350000D03*
X206502000Y6350000D03*
X199644000Y6350000D03*
X202692000Y6350000D03*
X201930000Y6350000D03*
X208026000Y6350000D03*
X205740000Y6350000D03*
X197358000Y6350000D03*
X207264000Y6350000D03*
X200406000Y6350000D03*
X203454000Y6350000D03*
X204216000Y6350000D03*
X198882000Y6350000D03*
X214122000Y6350000D03*
X215646000Y6350000D03*
X213360000Y6350000D03*
X214884000Y6350000D03*
X212598000Y6350000D03*
X216408000Y6350000D03*
X217170000Y6350000D03*
X217932000Y6350000D03*
X218694000Y6350000D03*
X219456000Y6350000D03*
X204978000Y6350000D03*
X198120000Y6350000D03*
X208788000Y6350000D03*
X210312000Y6350000D03*
X209550000Y6350000D03*
X211074000Y6350000D03*
X211836000Y6350000D03*
X155956000Y42164000D03*
X156718000Y42164000D03*
X155956000Y26162000D03*
X155956000Y28448000D03*
X155956000Y26924000D03*
X155956000Y24638000D03*
X155956000Y27686000D03*
X155956000Y25400000D03*
X155956000Y35306000D03*
X155956000Y29210000D03*
X155956000Y30734000D03*
X155956000Y29972000D03*
X155956000Y32258000D03*
X155956000Y33020000D03*
X155956000Y34544000D03*
X155956000Y33782000D03*
X155956000Y31496000D03*
X155956000Y40640000D03*
X155956000Y39116000D03*
X155956000Y36830000D03*
X155956000Y37592000D03*
X155956000Y41402000D03*
X155956000Y36068000D03*
X155956000Y38354000D03*
X155956000Y39878000D03*
G04 #@! TO.N,/VDD*
X175006000Y16891000D03*
X169926000Y13081000D03*
G04 #@! TO.N,/VDDS*
X184658000Y33528000D03*
X184658000Y24892000D03*
G04 #@! TO.N,/X48M_P*
X191770000Y22098000D03*
X193802000Y22098000D03*
G04 #@! TO.N,/X48M_N*
X191262000Y21336000D03*
X193294000Y21336000D03*
G04 #@! TO.N,GND1*
X164338000Y18796000D03*
G04 #@! TO.N,/JTAG_RESET_MCU*
X185166000Y24130000D03*
G04 #@! TO.N,/DIO_23*
X185166000Y22606000D03*
G04 #@! TO.N,/DIO_30*
X189484000Y21590000D03*
G04 #@! TO.N,/DIO_25*
X186436000Y20828000D03*
G04 #@! TO.N,/DIO_24*
X185716010Y21590000D03*
G04 #@! TO.N,/DIO_29*
X188976000Y20828018D03*
G04 #@! TO.N,/DIO_26*
X186944000Y21590000D03*
G04 #@! TO.N,/DIO_27*
X187706000Y20828000D03*
G04 #@! TO.N,/DIO_28*
X188214000Y21590000D03*
G04 #@! TD*
D22*
G04 #@! TO.N,/VDD*
X169926000Y24130000D02*
X171450000Y25654000D01*
X170053000Y16891000D02*
X169926000Y17018000D01*
X175006000Y16891000D02*
X170053000Y16891000D01*
X169926000Y17018000D02*
X169926000Y24130000D01*
X169926000Y13081000D02*
X169926000Y17018000D01*
G04 #@! TO.N,/VDDS*
X184658000Y33528000D02*
X184658000Y24892000D01*
D23*
G04 #@! TO.N,/X48M_P*
X191770000Y22098000D02*
X193802000Y22098000D01*
G04 #@! TO.N,/X48M_N*
X191262000Y21336000D02*
X193294000Y21336000D01*
D22*
G04 #@! TO.N,GND1*
X160056000Y23194000D02*
X156676000Y23194000D01*
X156676000Y14544000D02*
X160056000Y14544000D01*
X160056000Y14544000D02*
X162118000Y14544000D01*
X164338000Y16764000D02*
X164338000Y18796000D01*
X162118000Y14544000D02*
X164338000Y16764000D01*
X160056000Y23194000D02*
X162226000Y23194000D01*
X164338000Y21082000D02*
X164338000Y18796000D01*
X162226000Y23194000D02*
X164338000Y21082000D01*
G04 #@! TO.N,Net-(F1-Pad2)*
X161036000Y20994000D02*
X159686000Y20994000D01*
X159686000Y20994000D02*
X158916000Y20994000D01*
X158916000Y20994000D02*
X158242000Y20320000D01*
X158242000Y17693026D02*
X159191026Y16744000D01*
X159191026Y16744000D02*
X159686000Y16744000D01*
X158242000Y20320000D02*
X158242000Y17693026D01*
X159686000Y16744000D02*
X161036000Y16744000D01*
D23*
G04 #@! TO.N,/JTAG_RESET_MCU*
X179324000Y24130000D02*
X176530000Y26924000D01*
X185166000Y24130000D02*
X179324000Y24130000D01*
G04 #@! TO.N,/DIO_23*
X185166000Y16510000D02*
X181983999Y13327999D01*
X185166000Y22606000D02*
X185166000Y16510000D01*
X181983999Y11056001D02*
X183134000Y9906000D01*
X181983999Y13327999D02*
X181983999Y11056001D01*
G04 #@! TO.N,/DIO_30*
X189733999Y13466001D02*
X190754000Y12446000D01*
X189733999Y21340001D02*
X189733999Y13466001D01*
X189484000Y21590000D02*
X189733999Y21340001D01*
G04 #@! TO.N,/DIO_25*
X186436000Y20828000D02*
X186436000Y15182300D01*
X186436000Y15182300D02*
X184404000Y13150300D01*
X184404000Y13150300D02*
X184404000Y11176000D01*
X184404000Y11176000D02*
X185674000Y9906000D01*
G04 #@! TO.N,/DIO_24*
X185716010Y15028010D02*
X185716010Y21590000D01*
X183134000Y12446000D02*
X185716010Y15028010D01*
G04 #@! TO.N,/DIO_29*
X189603999Y11056001D02*
X190754000Y9906000D01*
X189603999Y12758003D02*
X189603999Y11056001D01*
X188976000Y13386002D02*
X189603999Y12758003D01*
X188976000Y20828018D02*
X188976000Y13386002D01*
G04 #@! TO.N,/DIO_26*
X186986001Y13758001D02*
X185674000Y12446000D01*
X186986001Y21547999D02*
X186986001Y13758001D01*
X186944000Y21590000D02*
X186986001Y21547999D01*
G04 #@! TO.N,/DIO_27*
X186944000Y11176000D02*
X188214000Y9906000D01*
X187452000Y13386002D02*
X186944000Y12878002D01*
X187452000Y20574000D02*
X187452000Y13386002D01*
X186944000Y12878002D02*
X186944000Y11176000D01*
X187706000Y20828000D02*
X187452000Y20574000D01*
G04 #@! TO.N,/DIO_28*
X188256001Y12488001D02*
X188214000Y12446000D01*
X188256001Y21547999D02*
X188256001Y12488001D01*
X188214000Y21590000D02*
X188256001Y21547999D01*
G04 #@! TO.N,/D-*
X159686000Y18444000D02*
X159798002Y18444000D01*
D24*
G04 #@! TO.N,/D+*
X160996000Y18432000D02*
X161180000Y18432000D01*
X160886998Y18444000D02*
X161036000Y18444000D01*
D23*
X160036998Y19294000D02*
X160886998Y18444000D01*
X159686000Y19294000D02*
X160036998Y19294000D01*
G04 #@! TD*
G04 #@! TO.N,GND*
X228529001Y5913000D02*
X155265000Y5913000D01*
X155265000Y10756000D01*
X179442549Y10756000D01*
X179442549Y9056000D01*
X179448341Y8997190D01*
X179465496Y8940640D01*
X179493353Y8888523D01*
X179530842Y8842842D01*
X179576523Y8805353D01*
X179628640Y8777496D01*
X179685190Y8760341D01*
X179744000Y8754549D01*
X181444000Y8754549D01*
X181502810Y8760341D01*
X181559360Y8777496D01*
X181611477Y8805353D01*
X181657158Y8842842D01*
X181694647Y8888523D01*
X181722504Y8940640D01*
X181739659Y8997190D01*
X181745451Y9056000D01*
X181745451Y10728864D01*
X182088143Y10386172D01*
X182028194Y10241443D01*
X181984000Y10019265D01*
X181984000Y9792735D01*
X182028194Y9570557D01*
X182114884Y9361271D01*
X182240737Y9172918D01*
X182400918Y9012737D01*
X182589271Y8886884D01*
X182798557Y8800194D01*
X183020735Y8756000D01*
X183247265Y8756000D01*
X183469443Y8800194D01*
X183678729Y8886884D01*
X183867082Y9012737D01*
X184027263Y9172918D01*
X184153116Y9361271D01*
X184239806Y9570557D01*
X184284000Y9792735D01*
X184284000Y10019265D01*
X184239806Y10241443D01*
X184153116Y10450729D01*
X184027263Y10639082D01*
X183867082Y10799263D01*
X183678729Y10925116D01*
X183469443Y11011806D01*
X183247265Y11056000D01*
X183020735Y11056000D01*
X182798557Y11011806D01*
X182653828Y10951857D01*
X182383999Y11221686D01*
X182383999Y11569656D01*
X182400918Y11552737D01*
X182589271Y11426884D01*
X182798557Y11340194D01*
X183020735Y11296000D01*
X183247265Y11296000D01*
X183469443Y11340194D01*
X183678729Y11426884D01*
X183867082Y11552737D01*
X184004001Y11689656D01*
X184004001Y11195656D01*
X184002065Y11176000D01*
X184009788Y11097587D01*
X184032661Y11022186D01*
X184069803Y10952698D01*
X184107265Y10907050D01*
X184107268Y10907047D01*
X184119790Y10891789D01*
X184135048Y10879267D01*
X184628143Y10386171D01*
X184568194Y10241443D01*
X184524000Y10019265D01*
X184524000Y9792735D01*
X184568194Y9570557D01*
X184654884Y9361271D01*
X184780737Y9172918D01*
X184940918Y9012737D01*
X185129271Y8886884D01*
X185338557Y8800194D01*
X185560735Y8756000D01*
X185787265Y8756000D01*
X186009443Y8800194D01*
X186218729Y8886884D01*
X186407082Y9012737D01*
X186567263Y9172918D01*
X186693116Y9361271D01*
X186779806Y9570557D01*
X186824000Y9792735D01*
X186824000Y10019265D01*
X186779806Y10241443D01*
X186693116Y10450729D01*
X186567263Y10639082D01*
X186407082Y10799263D01*
X186218729Y10925116D01*
X186009443Y11011806D01*
X185787265Y11056000D01*
X185560735Y11056000D01*
X185338557Y11011806D01*
X185193829Y10951857D01*
X184804000Y11341685D01*
X184804000Y11689655D01*
X184940918Y11552737D01*
X185129271Y11426884D01*
X185338557Y11340194D01*
X185560735Y11296000D01*
X185787265Y11296000D01*
X186009443Y11340194D01*
X186218729Y11426884D01*
X186407082Y11552737D01*
X186544001Y11689656D01*
X186544001Y11195656D01*
X186542065Y11176000D01*
X186549788Y11097587D01*
X186572661Y11022186D01*
X186609803Y10952698D01*
X186647265Y10907050D01*
X186647268Y10907047D01*
X186659790Y10891789D01*
X186675048Y10879267D01*
X187168143Y10386171D01*
X187108194Y10241443D01*
X187064000Y10019265D01*
X187064000Y9792735D01*
X187108194Y9570557D01*
X187194884Y9361271D01*
X187320737Y9172918D01*
X187480918Y9012737D01*
X187669271Y8886884D01*
X187878557Y8800194D01*
X188100735Y8756000D01*
X188327265Y8756000D01*
X188549443Y8800194D01*
X188758729Y8886884D01*
X188947082Y9012737D01*
X189107263Y9172918D01*
X189233116Y9361271D01*
X189319806Y9570557D01*
X189364000Y9792735D01*
X189364000Y10019265D01*
X189319806Y10241443D01*
X189233116Y10450729D01*
X189107263Y10639082D01*
X188947082Y10799263D01*
X188758729Y10925116D01*
X188549443Y11011806D01*
X188327265Y11056000D01*
X188100735Y11056000D01*
X187878557Y11011806D01*
X187733829Y10951857D01*
X187344000Y11341685D01*
X187344000Y11689655D01*
X187480918Y11552737D01*
X187669271Y11426884D01*
X187878557Y11340194D01*
X188100735Y11296000D01*
X188327265Y11296000D01*
X188549443Y11340194D01*
X188758729Y11426884D01*
X188947082Y11552737D01*
X189107263Y11712918D01*
X189204000Y11857695D01*
X189204000Y11075657D01*
X189202064Y11056001D01*
X189209787Y10977588D01*
X189232660Y10902187D01*
X189269802Y10832699D01*
X189307264Y10787051D01*
X189307267Y10787048D01*
X189319789Y10771790D01*
X189335047Y10759268D01*
X189708143Y10386172D01*
X189648194Y10241443D01*
X189604000Y10019265D01*
X189604000Y9792735D01*
X189648194Y9570557D01*
X189734884Y9361271D01*
X189860737Y9172918D01*
X190020918Y9012737D01*
X190209271Y8886884D01*
X190418557Y8800194D01*
X190640735Y8756000D01*
X190867265Y8756000D01*
X191089443Y8800194D01*
X191298729Y8886884D01*
X191487082Y9012737D01*
X191647263Y9172918D01*
X191773116Y9361271D01*
X191859806Y9570557D01*
X191885842Y9701451D01*
X192162337Y9701451D01*
X192223987Y9484605D01*
X192326757Y9283953D01*
X192466698Y9107206D01*
X192638431Y8961156D01*
X192835357Y8851416D01*
X193049909Y8782203D01*
X193089451Y8774338D01*
X193269000Y8831291D01*
X193269000Y9881000D01*
X193319000Y9881000D01*
X193319000Y8831291D01*
X193498549Y8774338D01*
X193538091Y8782203D01*
X193752643Y8851416D01*
X193949569Y8961156D01*
X194121302Y9107206D01*
X194261243Y9283953D01*
X194364013Y9484605D01*
X194425663Y9701451D01*
X194368729Y9881000D01*
X193319000Y9881000D01*
X193269000Y9881000D01*
X192219271Y9881000D01*
X192162337Y9701451D01*
X191885842Y9701451D01*
X191904000Y9792735D01*
X191904000Y10019265D01*
X191885843Y10110549D01*
X192162337Y10110549D01*
X192219271Y9931000D01*
X193269000Y9931000D01*
X193269000Y10980709D01*
X193319000Y10980709D01*
X193319000Y9931000D01*
X194368729Y9931000D01*
X194425663Y10110549D01*
X194364013Y10327395D01*
X194261243Y10528047D01*
X194121302Y10704794D01*
X193949569Y10850844D01*
X193752643Y10960584D01*
X193538091Y11029797D01*
X193498549Y11037662D01*
X193319000Y10980709D01*
X193269000Y10980709D01*
X193089451Y11037662D01*
X193049909Y11029797D01*
X192835357Y10960584D01*
X192638431Y10850844D01*
X192466698Y10704794D01*
X192326757Y10528047D01*
X192223987Y10327395D01*
X192162337Y10110549D01*
X191885843Y10110549D01*
X191859806Y10241443D01*
X191773116Y10450729D01*
X191647263Y10639082D01*
X191487082Y10799263D01*
X191298729Y10925116D01*
X191089443Y11011806D01*
X190867265Y11056000D01*
X190640735Y11056000D01*
X190418557Y11011806D01*
X190273828Y10951857D01*
X190003999Y11221686D01*
X190003999Y11569656D01*
X190020918Y11552737D01*
X190209271Y11426884D01*
X190418557Y11340194D01*
X190640735Y11296000D01*
X190867265Y11296000D01*
X191089443Y11340194D01*
X191298729Y11426884D01*
X191487082Y11552737D01*
X191647263Y11712918D01*
X191773116Y11901271D01*
X191859806Y12110557D01*
X191904000Y12332735D01*
X191904000Y12559265D01*
X192144000Y12559265D01*
X192144000Y12332735D01*
X192188194Y12110557D01*
X192274884Y11901271D01*
X192400737Y11712918D01*
X192560918Y11552737D01*
X192749271Y11426884D01*
X192958557Y11340194D01*
X193180735Y11296000D01*
X193407265Y11296000D01*
X193629443Y11340194D01*
X193838729Y11426884D01*
X194027082Y11552737D01*
X194187263Y11712918D01*
X194313116Y11901271D01*
X194371166Y12041416D01*
X209770000Y12041416D01*
X209770000Y11834584D01*
X209810350Y11631726D01*
X209889502Y11440638D01*
X210004411Y11268664D01*
X210150664Y11122411D01*
X210322638Y11007502D01*
X210513726Y10928350D01*
X210716584Y10888000D01*
X210923416Y10888000D01*
X211126274Y10928350D01*
X211317362Y11007502D01*
X211489336Y11122411D01*
X211635589Y11268664D01*
X211750498Y11440638D01*
X211829650Y11631726D01*
X211870000Y11834584D01*
X211870000Y12041416D01*
X211829650Y12244274D01*
X211750498Y12435362D01*
X211635589Y12607336D01*
X211489336Y12753589D01*
X211317362Y12868498D01*
X211126274Y12947650D01*
X210923416Y12988000D01*
X210716584Y12988000D01*
X210513726Y12947650D01*
X210322638Y12868498D01*
X210150664Y12753589D01*
X210004411Y12607336D01*
X209889502Y12435362D01*
X209810350Y12244274D01*
X209770000Y12041416D01*
X194371166Y12041416D01*
X194399806Y12110557D01*
X194444000Y12332735D01*
X194444000Y12559265D01*
X194399806Y12781443D01*
X194313116Y12990729D01*
X194187263Y13179082D01*
X194027082Y13339263D01*
X193838729Y13465116D01*
X193629443Y13551806D01*
X193407265Y13596000D01*
X193180735Y13596000D01*
X192958557Y13551806D01*
X192749271Y13465116D01*
X192560918Y13339263D01*
X192400737Y13179082D01*
X192274884Y12990729D01*
X192188194Y12781443D01*
X192144000Y12559265D01*
X191904000Y12559265D01*
X191859806Y12781443D01*
X191773116Y12990729D01*
X191647263Y13179082D01*
X191487082Y13339263D01*
X191298729Y13465116D01*
X191089443Y13551806D01*
X190867265Y13596000D01*
X190640735Y13596000D01*
X190418557Y13551806D01*
X190273828Y13491857D01*
X190133999Y13631686D01*
X190133999Y16921416D01*
X209770000Y16921416D01*
X209770000Y16714584D01*
X209810350Y16511726D01*
X209889502Y16320638D01*
X210004411Y16148664D01*
X210150664Y16002411D01*
X210322638Y15887502D01*
X210513726Y15808350D01*
X210716584Y15768000D01*
X210923416Y15768000D01*
X211126274Y15808350D01*
X211317362Y15887502D01*
X211489336Y16002411D01*
X211635589Y16148664D01*
X211750498Y16320638D01*
X211829650Y16511726D01*
X211870000Y16714584D01*
X211870000Y16921416D01*
X211829650Y17124274D01*
X211750498Y17315362D01*
X211635589Y17487336D01*
X211489336Y17633589D01*
X211317362Y17748498D01*
X211126274Y17827650D01*
X210923416Y17868000D01*
X210716584Y17868000D01*
X210513726Y17827650D01*
X210322638Y17748498D01*
X210150664Y17633589D01*
X210004411Y17487336D01*
X209889502Y17315362D01*
X209810350Y17124274D01*
X209770000Y16921416D01*
X190133999Y16921416D01*
X190133999Y21320355D01*
X190135934Y21340001D01*
X190130993Y21390170D01*
X190712000Y21390170D01*
X190712000Y21281830D01*
X190733136Y21175571D01*
X190774597Y21075477D01*
X190834787Y20985396D01*
X190911396Y20908787D01*
X191001477Y20848597D01*
X191101571Y20807136D01*
X191207830Y20786000D01*
X191316170Y20786000D01*
X191422429Y20807136D01*
X191522523Y20848597D01*
X191612604Y20908787D01*
X191639817Y20936000D01*
X192916183Y20936000D01*
X192943396Y20908787D01*
X193033477Y20848597D01*
X193133571Y20807136D01*
X193239830Y20786000D01*
X193348170Y20786000D01*
X193454429Y20807136D01*
X193554523Y20848597D01*
X193644604Y20908787D01*
X193721213Y20985396D01*
X193781403Y21075477D01*
X193822864Y21175571D01*
X193844000Y21281830D01*
X193844000Y21390170D01*
X193822864Y21496429D01*
X193801502Y21548000D01*
X193856170Y21548000D01*
X193962429Y21569136D01*
X194062523Y21610597D01*
X194152604Y21670787D01*
X194229213Y21747396D01*
X194289403Y21837477D01*
X194330864Y21937571D01*
X194352000Y22043830D01*
X194352000Y22152170D01*
X194330864Y22258429D01*
X194289403Y22358523D01*
X194229213Y22448604D01*
X194152604Y22525213D01*
X194062523Y22585403D01*
X193962429Y22626864D01*
X193856170Y22648000D01*
X193747830Y22648000D01*
X193641571Y22626864D01*
X193541477Y22585403D01*
X193451396Y22525213D01*
X193424183Y22498000D01*
X192147817Y22498000D01*
X192120604Y22525213D01*
X192030523Y22585403D01*
X191930429Y22626864D01*
X191824170Y22648000D01*
X191715830Y22648000D01*
X191609571Y22626864D01*
X191509477Y22585403D01*
X191419396Y22525213D01*
X191342787Y22448604D01*
X191282597Y22358523D01*
X191241136Y22258429D01*
X191220000Y22152170D01*
X191220000Y22043830D01*
X191241136Y21937571D01*
X191262498Y21886000D01*
X191207830Y21886000D01*
X191101571Y21864864D01*
X191001477Y21823403D01*
X190911396Y21763213D01*
X190834787Y21686604D01*
X190774597Y21596523D01*
X190733136Y21496429D01*
X190712000Y21390170D01*
X190130993Y21390170D01*
X190128211Y21418415D01*
X190116150Y21458175D01*
X190105339Y21493815D01*
X190068196Y21563304D01*
X190034000Y21604972D01*
X190034000Y21644170D01*
X190012864Y21750429D01*
X189971403Y21850523D01*
X189911213Y21940604D01*
X189834604Y22017213D01*
X189744523Y22077403D01*
X189644429Y22118864D01*
X189538170Y22140000D01*
X189429830Y22140000D01*
X189323571Y22118864D01*
X189223477Y22077403D01*
X189133396Y22017213D01*
X189056787Y21940604D01*
X188996597Y21850523D01*
X188955136Y21750429D01*
X188934000Y21644170D01*
X188934000Y21535830D01*
X188955136Y21429571D01*
X188976490Y21378018D01*
X188921830Y21378018D01*
X188815571Y21356882D01*
X188715477Y21315421D01*
X188673085Y21287095D01*
X188701403Y21329477D01*
X188742864Y21429571D01*
X188764000Y21535830D01*
X188764000Y21644170D01*
X188742864Y21750429D01*
X188701403Y21850523D01*
X188641213Y21940604D01*
X188564604Y22017213D01*
X188474523Y22077403D01*
X188374429Y22118864D01*
X188268170Y22140000D01*
X188159830Y22140000D01*
X188053571Y22118864D01*
X187953477Y22077403D01*
X187863396Y22017213D01*
X187786787Y21940604D01*
X187726597Y21850523D01*
X187685136Y21750429D01*
X187664000Y21644170D01*
X187664000Y21535830D01*
X187685136Y21429571D01*
X187706498Y21378000D01*
X187651830Y21378000D01*
X187545571Y21356864D01*
X187445477Y21315403D01*
X187403063Y21287063D01*
X187431403Y21329477D01*
X187472864Y21429571D01*
X187494000Y21535830D01*
X187494000Y21644170D01*
X187472864Y21750429D01*
X187431403Y21850523D01*
X187371213Y21940604D01*
X187294604Y22017213D01*
X187204523Y22077403D01*
X187104429Y22118864D01*
X186998170Y22140000D01*
X186889830Y22140000D01*
X186783571Y22118864D01*
X186683477Y22077403D01*
X186593396Y22017213D01*
X186516787Y21940604D01*
X186456597Y21850523D01*
X186415136Y21750429D01*
X186394000Y21644170D01*
X186394000Y21535830D01*
X186415136Y21429571D01*
X186436498Y21378000D01*
X186381830Y21378000D01*
X186275571Y21356864D01*
X186201101Y21326017D01*
X186203413Y21329477D01*
X186244874Y21429571D01*
X186266010Y21535830D01*
X186266010Y21644170D01*
X186244874Y21750429D01*
X186203413Y21850523D01*
X186143223Y21940604D01*
X186066614Y22017213D01*
X185976533Y22077403D01*
X185876439Y22118864D01*
X185770180Y22140000D01*
X185661840Y22140000D01*
X185566000Y22120936D01*
X185566000Y22228183D01*
X185593213Y22255396D01*
X185653403Y22345477D01*
X185694864Y22445571D01*
X185716000Y22551830D01*
X185716000Y22660170D01*
X185694864Y22766429D01*
X185653403Y22866523D01*
X185593213Y22956604D01*
X185516604Y23033213D01*
X185426523Y23093403D01*
X185326429Y23134864D01*
X185220170Y23156000D01*
X185111830Y23156000D01*
X185005571Y23134864D01*
X184905477Y23093403D01*
X184815396Y23033213D01*
X184738787Y22956604D01*
X184678597Y22866523D01*
X184637136Y22766429D01*
X184616000Y22660170D01*
X184616000Y22551830D01*
X184637136Y22445571D01*
X184678597Y22345477D01*
X184738787Y22255396D01*
X184766000Y22228183D01*
X184766001Y16675687D01*
X181715051Y13624736D01*
X181699788Y13612210D01*
X181649802Y13551301D01*
X181612659Y13481812D01*
X181607382Y13464415D01*
X181589787Y13406412D01*
X181582064Y13327999D01*
X181583999Y13308352D01*
X181583999Y13023617D01*
X181561243Y13068047D01*
X181421302Y13244794D01*
X181249569Y13390844D01*
X181052643Y13500584D01*
X180838091Y13569797D01*
X180798549Y13577662D01*
X180619000Y13520709D01*
X180619000Y12471000D01*
X180639000Y12471000D01*
X180639000Y12421000D01*
X180619000Y12421000D01*
X180619000Y11371291D01*
X180798549Y11314338D01*
X180838091Y11322203D01*
X181052643Y11391416D01*
X181249569Y11501156D01*
X181421302Y11647206D01*
X181561243Y11823953D01*
X181584000Y11868384D01*
X181584000Y11075657D01*
X181582064Y11056001D01*
X181585561Y11020500D01*
X181559360Y11034504D01*
X181502810Y11051659D01*
X181444000Y11057451D01*
X179744000Y11057451D01*
X179685190Y11051659D01*
X179628640Y11034504D01*
X179576523Y11006647D01*
X179530842Y10969158D01*
X179493353Y10923477D01*
X179465496Y10871360D01*
X179448341Y10814810D01*
X179442549Y10756000D01*
X155265000Y10756000D01*
X155265000Y12241451D01*
X179462337Y12241451D01*
X179523987Y12024605D01*
X179626757Y11823953D01*
X179766698Y11647206D01*
X179938431Y11501156D01*
X180135357Y11391416D01*
X180349909Y11322203D01*
X180389451Y11314338D01*
X180569000Y11371291D01*
X180569000Y12421000D01*
X179519271Y12421000D01*
X179462337Y12241451D01*
X155265000Y12241451D01*
X155265000Y13135170D01*
X169376000Y13135170D01*
X169376000Y13026830D01*
X169397136Y12920571D01*
X169438597Y12820477D01*
X169498787Y12730396D01*
X169575396Y12653787D01*
X169665477Y12593597D01*
X169765571Y12552136D01*
X169871830Y12531000D01*
X169980170Y12531000D01*
X170086429Y12552136D01*
X170186523Y12593597D01*
X170271757Y12650549D01*
X179462337Y12650549D01*
X179519271Y12471000D01*
X180569000Y12471000D01*
X180569000Y13520709D01*
X180389451Y13577662D01*
X180349909Y13569797D01*
X180135357Y13500584D01*
X179938431Y13390844D01*
X179766698Y13244794D01*
X179626757Y13068047D01*
X179523987Y12867395D01*
X179462337Y12650549D01*
X170271757Y12650549D01*
X170276604Y12653787D01*
X170353213Y12730396D01*
X170413403Y12820477D01*
X170454864Y12920571D01*
X170476000Y13026830D01*
X170476000Y13135170D01*
X170454864Y13241429D01*
X170426000Y13311112D01*
X170426000Y16391000D01*
X174775888Y16391000D01*
X174845571Y16362136D01*
X174951830Y16341000D01*
X175060170Y16341000D01*
X175166429Y16362136D01*
X175266523Y16403597D01*
X175356604Y16463787D01*
X175433213Y16540396D01*
X175493403Y16630477D01*
X175534864Y16730571D01*
X175556000Y16836830D01*
X175556000Y16945170D01*
X175534864Y17051429D01*
X175493403Y17151523D01*
X175433213Y17241604D01*
X175356604Y17318213D01*
X175266523Y17378403D01*
X175166429Y17419864D01*
X175060170Y17441000D01*
X174951830Y17441000D01*
X174845571Y17419864D01*
X174775888Y17391000D01*
X170426000Y17391000D01*
X170426000Y23922895D01*
X171355655Y24852549D01*
X171950000Y24852549D01*
X172008810Y24858341D01*
X172065360Y24875496D01*
X172117477Y24903353D01*
X172163158Y24940842D01*
X172200647Y24986523D01*
X172224278Y25030734D01*
X172270225Y24992406D01*
X172407938Y24917372D01*
X172557643Y24870646D01*
X172570221Y24868146D01*
X172695000Y24929431D01*
X172695000Y25629000D01*
X172745000Y25629000D01*
X172745000Y24929431D01*
X172869779Y24868146D01*
X172882357Y24870646D01*
X173032062Y24917372D01*
X173169775Y24992406D01*
X173290203Y25092865D01*
X173355000Y25173123D01*
X173419797Y25092865D01*
X173540225Y24992406D01*
X173677938Y24917372D01*
X173827643Y24870646D01*
X173840221Y24868146D01*
X173965000Y24929431D01*
X173965000Y25629000D01*
X172745000Y25629000D01*
X172695000Y25629000D01*
X172675000Y25629000D01*
X172675000Y25679000D01*
X172695000Y25679000D01*
X172695000Y25699000D01*
X172745000Y25699000D01*
X172745000Y25679000D01*
X173965000Y25679000D01*
X173965000Y25699000D01*
X174015000Y25699000D01*
X174015000Y25679000D01*
X174035000Y25679000D01*
X174035000Y25629000D01*
X174015000Y25629000D01*
X174015000Y24929431D01*
X174139779Y24868146D01*
X174152357Y24870646D01*
X174302062Y24917372D01*
X174439775Y24992406D01*
X174560203Y25092865D01*
X174621804Y25169165D01*
X174638599Y25144030D01*
X174750030Y25032599D01*
X174881058Y24945049D01*
X175026649Y24884743D01*
X175181207Y24854000D01*
X175338793Y24854000D01*
X175493351Y24884743D01*
X175638942Y24945049D01*
X175769970Y25032599D01*
X175881401Y25144030D01*
X175895000Y25164382D01*
X175908599Y25144030D01*
X176020030Y25032599D01*
X176151058Y24945049D01*
X176296649Y24884743D01*
X176451207Y24854000D01*
X176608793Y24854000D01*
X176763351Y24884743D01*
X176908942Y24945049D01*
X177039970Y25032599D01*
X177151401Y25144030D01*
X177238951Y25275058D01*
X177299257Y25420649D01*
X177327197Y25561118D01*
X179027263Y23861052D01*
X179039789Y23845789D01*
X179055050Y23833265D01*
X179100697Y23795803D01*
X179170186Y23758660D01*
X179245586Y23735788D01*
X179324000Y23728065D01*
X179343647Y23730000D01*
X184788183Y23730000D01*
X184815396Y23702787D01*
X184905477Y23642597D01*
X185005571Y23601136D01*
X185111830Y23580000D01*
X185220170Y23580000D01*
X185326429Y23601136D01*
X185426523Y23642597D01*
X185516604Y23702787D01*
X185593213Y23779396D01*
X185653403Y23869477D01*
X185694864Y23969571D01*
X185716000Y24075830D01*
X185716000Y24184170D01*
X185694864Y24290429D01*
X185653403Y24390523D01*
X185593213Y24480604D01*
X185516604Y24557213D01*
X185426523Y24617403D01*
X185326429Y24658864D01*
X185220170Y24680000D01*
X185165502Y24680000D01*
X185186864Y24731571D01*
X185208000Y24837830D01*
X185208000Y24946170D01*
X185186864Y25052429D01*
X185158000Y25122112D01*
X185158000Y27510793D01*
X206464000Y27510793D01*
X206464000Y27353207D01*
X206494743Y27198649D01*
X206555049Y27053058D01*
X206642599Y26922030D01*
X206754030Y26810599D01*
X206885058Y26723049D01*
X207030649Y26662743D01*
X207185207Y26632000D01*
X207342793Y26632000D01*
X207497351Y26662743D01*
X207642942Y26723049D01*
X207773970Y26810599D01*
X207885401Y26922030D01*
X207972951Y27053058D01*
X208033257Y27198649D01*
X208064000Y27353207D01*
X208064000Y27510793D01*
X208033257Y27665351D01*
X207972951Y27810942D01*
X207885401Y27941970D01*
X207773970Y28053401D01*
X207642942Y28140951D01*
X207497351Y28201257D01*
X207342793Y28232000D01*
X207185207Y28232000D01*
X207030649Y28201257D01*
X206885058Y28140951D01*
X206754030Y28053401D01*
X206642599Y27941970D01*
X206555049Y27810942D01*
X206494743Y27665351D01*
X206464000Y27510793D01*
X185158000Y27510793D01*
X185158000Y29410793D01*
X206464000Y29410793D01*
X206464000Y29253207D01*
X206494743Y29098649D01*
X206555049Y28953058D01*
X206642599Y28822030D01*
X206754030Y28710599D01*
X206885058Y28623049D01*
X207030649Y28562743D01*
X207185207Y28532000D01*
X207342793Y28532000D01*
X207497351Y28562743D01*
X207642942Y28623049D01*
X207773970Y28710599D01*
X207885401Y28822030D01*
X207972951Y28953058D01*
X208033257Y29098649D01*
X208064000Y29253207D01*
X208064000Y29410793D01*
X208033257Y29565351D01*
X207972951Y29710942D01*
X207885401Y29841970D01*
X207773970Y29953401D01*
X207642942Y30040951D01*
X207497351Y30101257D01*
X207342793Y30132000D01*
X207185207Y30132000D01*
X207030649Y30101257D01*
X206885058Y30040951D01*
X206754030Y29953401D01*
X206642599Y29841970D01*
X206555049Y29710942D01*
X206494743Y29565351D01*
X206464000Y29410793D01*
X185158000Y29410793D01*
X185158000Y33297888D01*
X185186864Y33367571D01*
X185208000Y33473830D01*
X185208000Y33582170D01*
X185193307Y33656039D01*
X207996000Y33656039D01*
X207996000Y33399961D01*
X208045958Y33148804D01*
X208143955Y32912219D01*
X208286224Y32699298D01*
X208467298Y32518224D01*
X208680219Y32375955D01*
X208916804Y32277958D01*
X209167961Y32228000D01*
X209424039Y32228000D01*
X209675196Y32277958D01*
X209911781Y32375955D01*
X210124702Y32518224D01*
X210305776Y32699298D01*
X210448045Y32912219D01*
X210546042Y33148804D01*
X210596000Y33399961D01*
X210596000Y33656039D01*
X214496000Y33656039D01*
X214496000Y33399961D01*
X214545958Y33148804D01*
X214643955Y32912219D01*
X214786224Y32699298D01*
X214967298Y32518224D01*
X215180219Y32375955D01*
X215416804Y32277958D01*
X215667961Y32228000D01*
X215924039Y32228000D01*
X216175196Y32277958D01*
X216411781Y32375955D01*
X216624702Y32518224D01*
X216805776Y32699298D01*
X216948045Y32912219D01*
X217046042Y33148804D01*
X217096000Y33399961D01*
X217096000Y33656039D01*
X217046042Y33907196D01*
X216948045Y34143781D01*
X216805776Y34356702D01*
X216624702Y34537776D01*
X216411781Y34680045D01*
X216175196Y34778042D01*
X215924039Y34828000D01*
X215667961Y34828000D01*
X215416804Y34778042D01*
X215180219Y34680045D01*
X214967298Y34537776D01*
X214786224Y34356702D01*
X214643955Y34143781D01*
X214545958Y33907196D01*
X214496000Y33656039D01*
X210596000Y33656039D01*
X210546042Y33907196D01*
X210448045Y34143781D01*
X210305776Y34356702D01*
X210124702Y34537776D01*
X209911781Y34680045D01*
X209675196Y34778042D01*
X209424039Y34828000D01*
X209167961Y34828000D01*
X208916804Y34778042D01*
X208680219Y34680045D01*
X208467298Y34537776D01*
X208286224Y34356702D01*
X208143955Y34143781D01*
X208045958Y33907196D01*
X207996000Y33656039D01*
X185193307Y33656039D01*
X185186864Y33688429D01*
X185145403Y33788523D01*
X185085213Y33878604D01*
X185008604Y33955213D01*
X184918523Y34015403D01*
X184818429Y34056864D01*
X184712170Y34078000D01*
X184603830Y34078000D01*
X184497571Y34056864D01*
X184397477Y34015403D01*
X184307396Y33955213D01*
X184230787Y33878604D01*
X184170597Y33788523D01*
X184129136Y33688429D01*
X184108000Y33582170D01*
X184108000Y33473830D01*
X184129136Y33367571D01*
X184158000Y33297888D01*
X184158001Y25122114D01*
X184129136Y25052429D01*
X184108000Y24946170D01*
X184108000Y24837830D01*
X184129136Y24731571D01*
X184170597Y24631477D01*
X184230787Y24541396D01*
X184242183Y24530000D01*
X179489685Y24530000D01*
X177304198Y26715487D01*
X177330000Y26845207D01*
X177330000Y27002793D01*
X177299257Y27157351D01*
X177238951Y27302942D01*
X177151401Y27433970D01*
X177039970Y27545401D01*
X176908942Y27632951D01*
X176763351Y27693257D01*
X176608793Y27724000D01*
X176451207Y27724000D01*
X176296649Y27693257D01*
X176151058Y27632951D01*
X176020030Y27545401D01*
X175908599Y27433970D01*
X175895000Y27413618D01*
X175881401Y27433970D01*
X175769970Y27545401D01*
X175638942Y27632951D01*
X175493351Y27693257D01*
X175338793Y27724000D01*
X175181207Y27724000D01*
X175026649Y27693257D01*
X174881058Y27632951D01*
X174750030Y27545401D01*
X174638599Y27433970D01*
X174625000Y27413618D01*
X174611401Y27433970D01*
X174499970Y27545401D01*
X174368942Y27632951D01*
X174223351Y27693257D01*
X174068793Y27724000D01*
X173911207Y27724000D01*
X173756649Y27693257D01*
X173611058Y27632951D01*
X173480030Y27545401D01*
X173368599Y27433970D01*
X173355000Y27413618D01*
X173341401Y27433970D01*
X173229970Y27545401D01*
X173098942Y27632951D01*
X172953351Y27693257D01*
X172798793Y27724000D01*
X172641207Y27724000D01*
X172486649Y27693257D01*
X172341058Y27632951D01*
X172210030Y27545401D01*
X172098599Y27433970D01*
X172085000Y27413618D01*
X172071401Y27433970D01*
X171959970Y27545401D01*
X171828942Y27632951D01*
X171683351Y27693257D01*
X171528793Y27724000D01*
X171371207Y27724000D01*
X171216649Y27693257D01*
X171071058Y27632951D01*
X170940030Y27545401D01*
X170828599Y27433970D01*
X170741049Y27302942D01*
X170680743Y27157351D01*
X170650000Y27002793D01*
X170650000Y26845207D01*
X170680743Y26690649D01*
X170741049Y26545058D01*
X170821093Y26425263D01*
X170782523Y26404647D01*
X170736842Y26367158D01*
X170699353Y26321477D01*
X170671496Y26269360D01*
X170654341Y26212810D01*
X170648549Y26154000D01*
X170648549Y25559655D01*
X169589819Y24500924D01*
X169570737Y24485264D01*
X169508255Y24409129D01*
X169483671Y24363136D01*
X169461826Y24322267D01*
X169433235Y24228017D01*
X169423581Y24130000D01*
X169426001Y24105430D01*
X169426000Y17042560D01*
X169423581Y17018000D01*
X169426001Y16993430D01*
X169426000Y13311112D01*
X169397136Y13241429D01*
X169376000Y13135170D01*
X155265000Y13135170D01*
X155265000Y20320000D01*
X157739581Y20320000D01*
X157742000Y20295440D01*
X157742001Y17717596D01*
X157739581Y17693026D01*
X157749235Y17595009D01*
X157771862Y17520419D01*
X157777826Y17500759D01*
X157824255Y17413897D01*
X157886737Y17337762D01*
X157905819Y17322102D01*
X158820106Y16407813D01*
X158835762Y16388736D01*
X158911897Y16326254D01*
X158998759Y16279825D01*
X159093009Y16251235D01*
X159137628Y16246840D01*
X159082819Y16144541D01*
X159045531Y16022053D01*
X159032855Y15894643D01*
X159045280Y15767209D01*
X159082327Y15644647D01*
X159142574Y15531668D01*
X159143287Y15530598D01*
X159259895Y15503250D01*
X159650645Y15894000D01*
X159636503Y15908143D01*
X159671858Y15943498D01*
X159686000Y15929355D01*
X159700143Y15943498D01*
X159735498Y15908143D01*
X159721355Y15894000D01*
X160112105Y15503250D01*
X160228713Y15530598D01*
X160289181Y15643459D01*
X160326469Y15765947D01*
X160339145Y15893357D01*
X160326720Y16020791D01*
X160289673Y16143353D01*
X160236002Y16244000D01*
X160486107Y16244000D01*
X160432819Y16144541D01*
X160395531Y16022053D01*
X160382855Y15894643D01*
X160395280Y15767209D01*
X160432327Y15644647D01*
X160492574Y15531668D01*
X160493287Y15530598D01*
X160609895Y15503250D01*
X161000645Y15894000D01*
X160986503Y15908143D01*
X161021858Y15943498D01*
X161036000Y15929355D01*
X161050143Y15943498D01*
X161085498Y15908143D01*
X161071355Y15894000D01*
X161462105Y15503250D01*
X161578713Y15530598D01*
X161639181Y15643459D01*
X161676469Y15765947D01*
X161689145Y15893357D01*
X161676720Y16020791D01*
X161639673Y16143353D01*
X161579426Y16256332D01*
X161578713Y16257402D01*
X161489552Y16278313D01*
X161540888Y16329649D01*
X161612022Y16436110D01*
X161661021Y16554402D01*
X161686000Y16679981D01*
X161686000Y16808019D01*
X161661021Y16933598D01*
X161612022Y17051890D01*
X161540888Y17158351D01*
X161530239Y17169000D01*
X161540888Y17179649D01*
X161612022Y17286110D01*
X161661021Y17404402D01*
X161686000Y17529981D01*
X161686000Y17658019D01*
X161661021Y17783598D01*
X161612022Y17901890D01*
X161540888Y18008351D01*
X161530239Y18019000D01*
X161540888Y18029649D01*
X161612022Y18136110D01*
X161661021Y18254402D01*
X161686000Y18379981D01*
X161686000Y18508019D01*
X161661021Y18633598D01*
X161612022Y18751890D01*
X161540888Y18858351D01*
X161530239Y18869000D01*
X161540888Y18879649D01*
X161612022Y18986110D01*
X161661021Y19104402D01*
X161686000Y19229981D01*
X161686000Y19358019D01*
X161661021Y19483598D01*
X161612022Y19601890D01*
X161540888Y19708351D01*
X161530239Y19719000D01*
X161540888Y19729649D01*
X161612022Y19836110D01*
X161661021Y19954402D01*
X161686000Y20079981D01*
X161686000Y20208019D01*
X161661021Y20333598D01*
X161612022Y20451890D01*
X161540888Y20558351D01*
X161530239Y20569000D01*
X161540888Y20579649D01*
X161612022Y20686110D01*
X161661021Y20804402D01*
X161686000Y20929981D01*
X161686000Y21058019D01*
X161661021Y21183598D01*
X161612022Y21301890D01*
X161540888Y21408351D01*
X161489552Y21459687D01*
X161578713Y21480598D01*
X161639181Y21593459D01*
X161676469Y21715947D01*
X161689145Y21843357D01*
X161676720Y21970791D01*
X161639673Y22093353D01*
X161579426Y22206332D01*
X161578713Y22207402D01*
X161462105Y22234750D01*
X161071355Y21844000D01*
X161085498Y21829858D01*
X161050143Y21794503D01*
X161036000Y21808645D01*
X161021858Y21794503D01*
X160986503Y21829858D01*
X161000645Y21844000D01*
X160609895Y22234750D01*
X160493287Y22207402D01*
X160432819Y22094541D01*
X160395531Y21972053D01*
X160382855Y21844643D01*
X160395280Y21717209D01*
X160432327Y21594647D01*
X160485998Y21494000D01*
X160235893Y21494000D01*
X160289181Y21593459D01*
X160326469Y21715947D01*
X160339145Y21843357D01*
X160326720Y21970791D01*
X160289673Y22093353D01*
X160229426Y22206332D01*
X160228713Y22207402D01*
X160112105Y22234750D01*
X159721355Y21844000D01*
X159735498Y21829858D01*
X159700143Y21794503D01*
X159686000Y21808645D01*
X159671858Y21794503D01*
X159636503Y21829858D01*
X159650645Y21844000D01*
X159259895Y22234750D01*
X159143287Y22207402D01*
X159082819Y22094541D01*
X159045531Y21972053D01*
X159032855Y21844643D01*
X159045280Y21717209D01*
X159082327Y21594647D01*
X159135998Y21494000D01*
X158940560Y21494000D01*
X158916000Y21496419D01*
X158817983Y21486765D01*
X158723733Y21458175D01*
X158636871Y21411746D01*
X158560736Y21349264D01*
X158545075Y21330181D01*
X157905824Y20690929D01*
X157886736Y20675264D01*
X157824254Y20599129D01*
X157777825Y20512266D01*
X157759510Y20451890D01*
X157749235Y20418017D01*
X157739581Y20320000D01*
X155265000Y20320000D01*
X155265000Y23194000D01*
X155522372Y23194000D01*
X155536853Y23046974D01*
X155579739Y22905599D01*
X155649381Y22775307D01*
X155743105Y22661105D01*
X155857307Y22567381D01*
X155987599Y22497739D01*
X156128974Y22454853D01*
X156239165Y22444000D01*
X157112835Y22444000D01*
X157223026Y22454853D01*
X157364401Y22497739D01*
X157494693Y22567381D01*
X157608895Y22661105D01*
X157635891Y22694000D01*
X158746109Y22694000D01*
X158773105Y22661105D01*
X158887307Y22567381D01*
X159017599Y22497739D01*
X159158974Y22454853D01*
X159269165Y22444000D01*
X159429759Y22444000D01*
X159323668Y22387426D01*
X159322598Y22386713D01*
X159295250Y22270105D01*
X159686000Y21879355D01*
X160076750Y22270105D01*
X160049402Y22386713D01*
X159942478Y22444000D01*
X160779759Y22444000D01*
X160673668Y22387426D01*
X160672598Y22386713D01*
X160645250Y22270105D01*
X161036000Y21879355D01*
X161426750Y22270105D01*
X161399402Y22386713D01*
X161286541Y22447181D01*
X161164053Y22484469D01*
X161078662Y22492965D01*
X161094401Y22497739D01*
X161224693Y22567381D01*
X161338895Y22661105D01*
X161365891Y22694000D01*
X162018895Y22694000D01*
X163838000Y20874894D01*
X163838001Y19026114D01*
X163809136Y18956429D01*
X163788000Y18850170D01*
X163788000Y18741830D01*
X163809136Y18635571D01*
X163838001Y18565886D01*
X163838000Y16971106D01*
X161910895Y15044000D01*
X161365891Y15044000D01*
X161338895Y15076895D01*
X161224693Y15170619D01*
X161094401Y15240261D01*
X161078558Y15245067D01*
X161162791Y15253280D01*
X161285353Y15290327D01*
X161398332Y15350574D01*
X161399402Y15351287D01*
X161426750Y15467895D01*
X161036000Y15858645D01*
X160645250Y15467895D01*
X160672598Y15351287D01*
X160779522Y15294000D01*
X159942241Y15294000D01*
X160048332Y15350574D01*
X160049402Y15351287D01*
X160076750Y15467895D01*
X159686000Y15858645D01*
X159295250Y15467895D01*
X159322598Y15351287D01*
X159429522Y15294000D01*
X159269165Y15294000D01*
X159158974Y15283147D01*
X159017599Y15240261D01*
X158887307Y15170619D01*
X158773105Y15076895D01*
X158746109Y15044000D01*
X157635891Y15044000D01*
X157608895Y15076895D01*
X157494693Y15170619D01*
X157364401Y15240261D01*
X157223026Y15283147D01*
X157112835Y15294000D01*
X156239165Y15294000D01*
X156128974Y15283147D01*
X155987599Y15240261D01*
X155857307Y15170619D01*
X155743105Y15076895D01*
X155649381Y14962693D01*
X155579739Y14832401D01*
X155536853Y14691026D01*
X155522372Y14544000D01*
X155536853Y14396974D01*
X155579739Y14255599D01*
X155649381Y14125307D01*
X155743105Y14011105D01*
X155857307Y13917381D01*
X155987599Y13847739D01*
X156128974Y13804853D01*
X156239165Y13794000D01*
X157112835Y13794000D01*
X157223026Y13804853D01*
X157364401Y13847739D01*
X157494693Y13917381D01*
X157608895Y14011105D01*
X157635891Y14044000D01*
X158746109Y14044000D01*
X158773105Y14011105D01*
X158887307Y13917381D01*
X159017599Y13847739D01*
X159158974Y13804853D01*
X159269165Y13794000D01*
X160842835Y13794000D01*
X160953026Y13804853D01*
X161094401Y13847739D01*
X161224693Y13917381D01*
X161338895Y14011105D01*
X161365891Y14044000D01*
X162093440Y14044000D01*
X162118000Y14041581D01*
X162142560Y14044000D01*
X162216017Y14051235D01*
X162310267Y14079825D01*
X162397129Y14126254D01*
X162473264Y14188736D01*
X162488929Y14207824D01*
X164674181Y16393075D01*
X164693264Y16408736D01*
X164755746Y16484871D01*
X164802175Y16571733D01*
X164830765Y16665983D01*
X164838000Y16739440D01*
X164838000Y16739441D01*
X164840419Y16763999D01*
X164838000Y16788557D01*
X164838000Y18565888D01*
X164866864Y18635571D01*
X164888000Y18741830D01*
X164888000Y18850170D01*
X164866864Y18956429D01*
X164838000Y19026112D01*
X164838000Y21057441D01*
X164840419Y21082001D01*
X164830765Y21180018D01*
X164802174Y21274269D01*
X164796178Y21285487D01*
X164755746Y21361129D01*
X164693264Y21437264D01*
X164674181Y21452925D01*
X162596929Y23530176D01*
X162581264Y23549264D01*
X162505129Y23611746D01*
X162418267Y23658175D01*
X162324017Y23686765D01*
X162250560Y23694000D01*
X162226000Y23696419D01*
X162201440Y23694000D01*
X161365891Y23694000D01*
X161338895Y23726895D01*
X161224693Y23820619D01*
X161094401Y23890261D01*
X160953026Y23933147D01*
X160842835Y23944000D01*
X159269165Y23944000D01*
X159158974Y23933147D01*
X159017599Y23890261D01*
X158887307Y23820619D01*
X158773105Y23726895D01*
X158746109Y23694000D01*
X157635891Y23694000D01*
X157608895Y23726895D01*
X157494693Y23820619D01*
X157364401Y23890261D01*
X157223026Y23933147D01*
X157112835Y23944000D01*
X156239165Y23944000D01*
X156128974Y23933147D01*
X155987599Y23890261D01*
X155857307Y23820619D01*
X155743105Y23726895D01*
X155649381Y23612693D01*
X155579739Y23482401D01*
X155536853Y23341026D01*
X155522372Y23194000D01*
X155265000Y23194000D01*
X155265000Y37139848D01*
X208443204Y37139848D01*
X208548549Y36956688D01*
X208771914Y36831452D01*
X209015419Y36752200D01*
X209269706Y36721975D01*
X209525004Y36741940D01*
X209771502Y36811327D01*
X209999726Y36927471D01*
X210043451Y36956688D01*
X210148796Y37139848D01*
X214943204Y37139848D01*
X215048549Y36956688D01*
X215271914Y36831452D01*
X215515419Y36752200D01*
X215769706Y36721975D01*
X216025004Y36741940D01*
X216271502Y36811327D01*
X216499726Y36927471D01*
X216543451Y36956688D01*
X216648796Y37139848D01*
X215796000Y37992645D01*
X214943204Y37139848D01*
X210148796Y37139848D01*
X209296000Y37992645D01*
X208443204Y37139848D01*
X155265000Y37139848D01*
X155265000Y38054294D01*
X207989975Y38054294D01*
X208009940Y37798996D01*
X208079327Y37552498D01*
X208195471Y37324274D01*
X208224688Y37280549D01*
X208407848Y37175204D01*
X209260645Y38028000D01*
X209331355Y38028000D01*
X210184152Y37175204D01*
X210367312Y37280549D01*
X210492548Y37503914D01*
X210571800Y37747419D01*
X210602025Y38001706D01*
X210597913Y38054294D01*
X214489975Y38054294D01*
X214509940Y37798996D01*
X214579327Y37552498D01*
X214695471Y37324274D01*
X214724688Y37280549D01*
X214907848Y37175204D01*
X215760645Y38028000D01*
X215831355Y38028000D01*
X216684152Y37175204D01*
X216867312Y37280549D01*
X216992548Y37503914D01*
X217071800Y37747419D01*
X217102025Y38001706D01*
X217082060Y38257004D01*
X217012673Y38503502D01*
X216896529Y38731726D01*
X216867312Y38775451D01*
X216684152Y38880796D01*
X215831355Y38028000D01*
X215760645Y38028000D01*
X214907848Y38880796D01*
X214724688Y38775451D01*
X214599452Y38552086D01*
X214520200Y38308581D01*
X214489975Y38054294D01*
X210597913Y38054294D01*
X210582060Y38257004D01*
X210512673Y38503502D01*
X210396529Y38731726D01*
X210367312Y38775451D01*
X210184152Y38880796D01*
X209331355Y38028000D01*
X209260645Y38028000D01*
X208407848Y38880796D01*
X208224688Y38775451D01*
X208099452Y38552086D01*
X208020200Y38308581D01*
X207989975Y38054294D01*
X155265000Y38054294D01*
X155265000Y38916152D01*
X208443204Y38916152D01*
X209296000Y38063355D01*
X210148796Y38916152D01*
X214943204Y38916152D01*
X215796000Y38063355D01*
X216648796Y38916152D01*
X216543451Y39099312D01*
X216320086Y39224548D01*
X216076581Y39303800D01*
X215822294Y39334025D01*
X215566996Y39314060D01*
X215320498Y39244673D01*
X215092274Y39128529D01*
X215048549Y39099312D01*
X214943204Y38916152D01*
X210148796Y38916152D01*
X210043451Y39099312D01*
X209820086Y39224548D01*
X209576581Y39303800D01*
X209322294Y39334025D01*
X209066996Y39314060D01*
X208820498Y39244673D01*
X208592274Y39128529D01*
X208548549Y39099312D01*
X208443204Y38916152D01*
X155265000Y38916152D01*
X155265000Y42601000D01*
X228529000Y42601000D01*
X228529001Y5913000D01*
G04 #@! TA.AperFunction,Conductor*
D25*
G36*
X228529001Y5913000D02*
G01*
X155265000Y5913000D01*
X155265000Y10756000D01*
X179442549Y10756000D01*
X179442549Y9056000D01*
X179448341Y8997190D01*
X179465496Y8940640D01*
X179493353Y8888523D01*
X179530842Y8842842D01*
X179576523Y8805353D01*
X179628640Y8777496D01*
X179685190Y8760341D01*
X179744000Y8754549D01*
X181444000Y8754549D01*
X181502810Y8760341D01*
X181559360Y8777496D01*
X181611477Y8805353D01*
X181657158Y8842842D01*
X181694647Y8888523D01*
X181722504Y8940640D01*
X181739659Y8997190D01*
X181745451Y9056000D01*
X181745451Y10728864D01*
X182088143Y10386172D01*
X182028194Y10241443D01*
X181984000Y10019265D01*
X181984000Y9792735D01*
X182028194Y9570557D01*
X182114884Y9361271D01*
X182240737Y9172918D01*
X182400918Y9012737D01*
X182589271Y8886884D01*
X182798557Y8800194D01*
X183020735Y8756000D01*
X183247265Y8756000D01*
X183469443Y8800194D01*
X183678729Y8886884D01*
X183867082Y9012737D01*
X184027263Y9172918D01*
X184153116Y9361271D01*
X184239806Y9570557D01*
X184284000Y9792735D01*
X184284000Y10019265D01*
X184239806Y10241443D01*
X184153116Y10450729D01*
X184027263Y10639082D01*
X183867082Y10799263D01*
X183678729Y10925116D01*
X183469443Y11011806D01*
X183247265Y11056000D01*
X183020735Y11056000D01*
X182798557Y11011806D01*
X182653828Y10951857D01*
X182383999Y11221686D01*
X182383999Y11569656D01*
X182400918Y11552737D01*
X182589271Y11426884D01*
X182798557Y11340194D01*
X183020735Y11296000D01*
X183247265Y11296000D01*
X183469443Y11340194D01*
X183678729Y11426884D01*
X183867082Y11552737D01*
X184004001Y11689656D01*
X184004001Y11195656D01*
X184002065Y11176000D01*
X184009788Y11097587D01*
X184032661Y11022186D01*
X184069803Y10952698D01*
X184107265Y10907050D01*
X184107268Y10907047D01*
X184119790Y10891789D01*
X184135048Y10879267D01*
X184628143Y10386171D01*
X184568194Y10241443D01*
X184524000Y10019265D01*
X184524000Y9792735D01*
X184568194Y9570557D01*
X184654884Y9361271D01*
X184780737Y9172918D01*
X184940918Y9012737D01*
X185129271Y8886884D01*
X185338557Y8800194D01*
X185560735Y8756000D01*
X185787265Y8756000D01*
X186009443Y8800194D01*
X186218729Y8886884D01*
X186407082Y9012737D01*
X186567263Y9172918D01*
X186693116Y9361271D01*
X186779806Y9570557D01*
X186824000Y9792735D01*
X186824000Y10019265D01*
X186779806Y10241443D01*
X186693116Y10450729D01*
X186567263Y10639082D01*
X186407082Y10799263D01*
X186218729Y10925116D01*
X186009443Y11011806D01*
X185787265Y11056000D01*
X185560735Y11056000D01*
X185338557Y11011806D01*
X185193829Y10951857D01*
X184804000Y11341685D01*
X184804000Y11689655D01*
X184940918Y11552737D01*
X185129271Y11426884D01*
X185338557Y11340194D01*
X185560735Y11296000D01*
X185787265Y11296000D01*
X186009443Y11340194D01*
X186218729Y11426884D01*
X186407082Y11552737D01*
X186544001Y11689656D01*
X186544001Y11195656D01*
X186542065Y11176000D01*
X186549788Y11097587D01*
X186572661Y11022186D01*
X186609803Y10952698D01*
X186647265Y10907050D01*
X186647268Y10907047D01*
X186659790Y10891789D01*
X186675048Y10879267D01*
X187168143Y10386171D01*
X187108194Y10241443D01*
X187064000Y10019265D01*
X187064000Y9792735D01*
X187108194Y9570557D01*
X187194884Y9361271D01*
X187320737Y9172918D01*
X187480918Y9012737D01*
X187669271Y8886884D01*
X187878557Y8800194D01*
X188100735Y8756000D01*
X188327265Y8756000D01*
X188549443Y8800194D01*
X188758729Y8886884D01*
X188947082Y9012737D01*
X189107263Y9172918D01*
X189233116Y9361271D01*
X189319806Y9570557D01*
X189364000Y9792735D01*
X189364000Y10019265D01*
X189319806Y10241443D01*
X189233116Y10450729D01*
X189107263Y10639082D01*
X188947082Y10799263D01*
X188758729Y10925116D01*
X188549443Y11011806D01*
X188327265Y11056000D01*
X188100735Y11056000D01*
X187878557Y11011806D01*
X187733829Y10951857D01*
X187344000Y11341685D01*
X187344000Y11689655D01*
X187480918Y11552737D01*
X187669271Y11426884D01*
X187878557Y11340194D01*
X188100735Y11296000D01*
X188327265Y11296000D01*
X188549443Y11340194D01*
X188758729Y11426884D01*
X188947082Y11552737D01*
X189107263Y11712918D01*
X189204000Y11857695D01*
X189204000Y11075657D01*
X189202064Y11056001D01*
X189209787Y10977588D01*
X189232660Y10902187D01*
X189269802Y10832699D01*
X189307264Y10787051D01*
X189307267Y10787048D01*
X189319789Y10771790D01*
X189335047Y10759268D01*
X189708143Y10386172D01*
X189648194Y10241443D01*
X189604000Y10019265D01*
X189604000Y9792735D01*
X189648194Y9570557D01*
X189734884Y9361271D01*
X189860737Y9172918D01*
X190020918Y9012737D01*
X190209271Y8886884D01*
X190418557Y8800194D01*
X190640735Y8756000D01*
X190867265Y8756000D01*
X191089443Y8800194D01*
X191298729Y8886884D01*
X191487082Y9012737D01*
X191647263Y9172918D01*
X191773116Y9361271D01*
X191859806Y9570557D01*
X191885842Y9701451D01*
X192162337Y9701451D01*
X192223987Y9484605D01*
X192326757Y9283953D01*
X192466698Y9107206D01*
X192638431Y8961156D01*
X192835357Y8851416D01*
X193049909Y8782203D01*
X193089451Y8774338D01*
X193269000Y8831291D01*
X193269000Y9881000D01*
X193319000Y9881000D01*
X193319000Y8831291D01*
X193498549Y8774338D01*
X193538091Y8782203D01*
X193752643Y8851416D01*
X193949569Y8961156D01*
X194121302Y9107206D01*
X194261243Y9283953D01*
X194364013Y9484605D01*
X194425663Y9701451D01*
X194368729Y9881000D01*
X193319000Y9881000D01*
X193269000Y9881000D01*
X192219271Y9881000D01*
X192162337Y9701451D01*
X191885842Y9701451D01*
X191904000Y9792735D01*
X191904000Y10019265D01*
X191885843Y10110549D01*
X192162337Y10110549D01*
X192219271Y9931000D01*
X193269000Y9931000D01*
X193269000Y10980709D01*
X193319000Y10980709D01*
X193319000Y9931000D01*
X194368729Y9931000D01*
X194425663Y10110549D01*
X194364013Y10327395D01*
X194261243Y10528047D01*
X194121302Y10704794D01*
X193949569Y10850844D01*
X193752643Y10960584D01*
X193538091Y11029797D01*
X193498549Y11037662D01*
X193319000Y10980709D01*
X193269000Y10980709D01*
X193089451Y11037662D01*
X193049909Y11029797D01*
X192835357Y10960584D01*
X192638431Y10850844D01*
X192466698Y10704794D01*
X192326757Y10528047D01*
X192223987Y10327395D01*
X192162337Y10110549D01*
X191885843Y10110549D01*
X191859806Y10241443D01*
X191773116Y10450729D01*
X191647263Y10639082D01*
X191487082Y10799263D01*
X191298729Y10925116D01*
X191089443Y11011806D01*
X190867265Y11056000D01*
X190640735Y11056000D01*
X190418557Y11011806D01*
X190273828Y10951857D01*
X190003999Y11221686D01*
X190003999Y11569656D01*
X190020918Y11552737D01*
X190209271Y11426884D01*
X190418557Y11340194D01*
X190640735Y11296000D01*
X190867265Y11296000D01*
X191089443Y11340194D01*
X191298729Y11426884D01*
X191487082Y11552737D01*
X191647263Y11712918D01*
X191773116Y11901271D01*
X191859806Y12110557D01*
X191904000Y12332735D01*
X191904000Y12559265D01*
X192144000Y12559265D01*
X192144000Y12332735D01*
X192188194Y12110557D01*
X192274884Y11901271D01*
X192400737Y11712918D01*
X192560918Y11552737D01*
X192749271Y11426884D01*
X192958557Y11340194D01*
X193180735Y11296000D01*
X193407265Y11296000D01*
X193629443Y11340194D01*
X193838729Y11426884D01*
X194027082Y11552737D01*
X194187263Y11712918D01*
X194313116Y11901271D01*
X194371166Y12041416D01*
X209770000Y12041416D01*
X209770000Y11834584D01*
X209810350Y11631726D01*
X209889502Y11440638D01*
X210004411Y11268664D01*
X210150664Y11122411D01*
X210322638Y11007502D01*
X210513726Y10928350D01*
X210716584Y10888000D01*
X210923416Y10888000D01*
X211126274Y10928350D01*
X211317362Y11007502D01*
X211489336Y11122411D01*
X211635589Y11268664D01*
X211750498Y11440638D01*
X211829650Y11631726D01*
X211870000Y11834584D01*
X211870000Y12041416D01*
X211829650Y12244274D01*
X211750498Y12435362D01*
X211635589Y12607336D01*
X211489336Y12753589D01*
X211317362Y12868498D01*
X211126274Y12947650D01*
X210923416Y12988000D01*
X210716584Y12988000D01*
X210513726Y12947650D01*
X210322638Y12868498D01*
X210150664Y12753589D01*
X210004411Y12607336D01*
X209889502Y12435362D01*
X209810350Y12244274D01*
X209770000Y12041416D01*
X194371166Y12041416D01*
X194399806Y12110557D01*
X194444000Y12332735D01*
X194444000Y12559265D01*
X194399806Y12781443D01*
X194313116Y12990729D01*
X194187263Y13179082D01*
X194027082Y13339263D01*
X193838729Y13465116D01*
X193629443Y13551806D01*
X193407265Y13596000D01*
X193180735Y13596000D01*
X192958557Y13551806D01*
X192749271Y13465116D01*
X192560918Y13339263D01*
X192400737Y13179082D01*
X192274884Y12990729D01*
X192188194Y12781443D01*
X192144000Y12559265D01*
X191904000Y12559265D01*
X191859806Y12781443D01*
X191773116Y12990729D01*
X191647263Y13179082D01*
X191487082Y13339263D01*
X191298729Y13465116D01*
X191089443Y13551806D01*
X190867265Y13596000D01*
X190640735Y13596000D01*
X190418557Y13551806D01*
X190273828Y13491857D01*
X190133999Y13631686D01*
X190133999Y16921416D01*
X209770000Y16921416D01*
X209770000Y16714584D01*
X209810350Y16511726D01*
X209889502Y16320638D01*
X210004411Y16148664D01*
X210150664Y16002411D01*
X210322638Y15887502D01*
X210513726Y15808350D01*
X210716584Y15768000D01*
X210923416Y15768000D01*
X211126274Y15808350D01*
X211317362Y15887502D01*
X211489336Y16002411D01*
X211635589Y16148664D01*
X211750498Y16320638D01*
X211829650Y16511726D01*
X211870000Y16714584D01*
X211870000Y16921416D01*
X211829650Y17124274D01*
X211750498Y17315362D01*
X211635589Y17487336D01*
X211489336Y17633589D01*
X211317362Y17748498D01*
X211126274Y17827650D01*
X210923416Y17868000D01*
X210716584Y17868000D01*
X210513726Y17827650D01*
X210322638Y17748498D01*
X210150664Y17633589D01*
X210004411Y17487336D01*
X209889502Y17315362D01*
X209810350Y17124274D01*
X209770000Y16921416D01*
X190133999Y16921416D01*
X190133999Y21320355D01*
X190135934Y21340001D01*
X190130993Y21390170D01*
X190712000Y21390170D01*
X190712000Y21281830D01*
X190733136Y21175571D01*
X190774597Y21075477D01*
X190834787Y20985396D01*
X190911396Y20908787D01*
X191001477Y20848597D01*
X191101571Y20807136D01*
X191207830Y20786000D01*
X191316170Y20786000D01*
X191422429Y20807136D01*
X191522523Y20848597D01*
X191612604Y20908787D01*
X191639817Y20936000D01*
X192916183Y20936000D01*
X192943396Y20908787D01*
X193033477Y20848597D01*
X193133571Y20807136D01*
X193239830Y20786000D01*
X193348170Y20786000D01*
X193454429Y20807136D01*
X193554523Y20848597D01*
X193644604Y20908787D01*
X193721213Y20985396D01*
X193781403Y21075477D01*
X193822864Y21175571D01*
X193844000Y21281830D01*
X193844000Y21390170D01*
X193822864Y21496429D01*
X193801502Y21548000D01*
X193856170Y21548000D01*
X193962429Y21569136D01*
X194062523Y21610597D01*
X194152604Y21670787D01*
X194229213Y21747396D01*
X194289403Y21837477D01*
X194330864Y21937571D01*
X194352000Y22043830D01*
X194352000Y22152170D01*
X194330864Y22258429D01*
X194289403Y22358523D01*
X194229213Y22448604D01*
X194152604Y22525213D01*
X194062523Y22585403D01*
X193962429Y22626864D01*
X193856170Y22648000D01*
X193747830Y22648000D01*
X193641571Y22626864D01*
X193541477Y22585403D01*
X193451396Y22525213D01*
X193424183Y22498000D01*
X192147817Y22498000D01*
X192120604Y22525213D01*
X192030523Y22585403D01*
X191930429Y22626864D01*
X191824170Y22648000D01*
X191715830Y22648000D01*
X191609571Y22626864D01*
X191509477Y22585403D01*
X191419396Y22525213D01*
X191342787Y22448604D01*
X191282597Y22358523D01*
X191241136Y22258429D01*
X191220000Y22152170D01*
X191220000Y22043830D01*
X191241136Y21937571D01*
X191262498Y21886000D01*
X191207830Y21886000D01*
X191101571Y21864864D01*
X191001477Y21823403D01*
X190911396Y21763213D01*
X190834787Y21686604D01*
X190774597Y21596523D01*
X190733136Y21496429D01*
X190712000Y21390170D01*
X190130993Y21390170D01*
X190128211Y21418415D01*
X190116150Y21458175D01*
X190105339Y21493815D01*
X190068196Y21563304D01*
X190034000Y21604972D01*
X190034000Y21644170D01*
X190012864Y21750429D01*
X189971403Y21850523D01*
X189911213Y21940604D01*
X189834604Y22017213D01*
X189744523Y22077403D01*
X189644429Y22118864D01*
X189538170Y22140000D01*
X189429830Y22140000D01*
X189323571Y22118864D01*
X189223477Y22077403D01*
X189133396Y22017213D01*
X189056787Y21940604D01*
X188996597Y21850523D01*
X188955136Y21750429D01*
X188934000Y21644170D01*
X188934000Y21535830D01*
X188955136Y21429571D01*
X188976490Y21378018D01*
X188921830Y21378018D01*
X188815571Y21356882D01*
X188715477Y21315421D01*
X188673085Y21287095D01*
X188701403Y21329477D01*
X188742864Y21429571D01*
X188764000Y21535830D01*
X188764000Y21644170D01*
X188742864Y21750429D01*
X188701403Y21850523D01*
X188641213Y21940604D01*
X188564604Y22017213D01*
X188474523Y22077403D01*
X188374429Y22118864D01*
X188268170Y22140000D01*
X188159830Y22140000D01*
X188053571Y22118864D01*
X187953477Y22077403D01*
X187863396Y22017213D01*
X187786787Y21940604D01*
X187726597Y21850523D01*
X187685136Y21750429D01*
X187664000Y21644170D01*
X187664000Y21535830D01*
X187685136Y21429571D01*
X187706498Y21378000D01*
X187651830Y21378000D01*
X187545571Y21356864D01*
X187445477Y21315403D01*
X187403063Y21287063D01*
X187431403Y21329477D01*
X187472864Y21429571D01*
X187494000Y21535830D01*
X187494000Y21644170D01*
X187472864Y21750429D01*
X187431403Y21850523D01*
X187371213Y21940604D01*
X187294604Y22017213D01*
X187204523Y22077403D01*
X187104429Y22118864D01*
X186998170Y22140000D01*
X186889830Y22140000D01*
X186783571Y22118864D01*
X186683477Y22077403D01*
X186593396Y22017213D01*
X186516787Y21940604D01*
X186456597Y21850523D01*
X186415136Y21750429D01*
X186394000Y21644170D01*
X186394000Y21535830D01*
X186415136Y21429571D01*
X186436498Y21378000D01*
X186381830Y21378000D01*
X186275571Y21356864D01*
X186201101Y21326017D01*
X186203413Y21329477D01*
X186244874Y21429571D01*
X186266010Y21535830D01*
X186266010Y21644170D01*
X186244874Y21750429D01*
X186203413Y21850523D01*
X186143223Y21940604D01*
X186066614Y22017213D01*
X185976533Y22077403D01*
X185876439Y22118864D01*
X185770180Y22140000D01*
X185661840Y22140000D01*
X185566000Y22120936D01*
X185566000Y22228183D01*
X185593213Y22255396D01*
X185653403Y22345477D01*
X185694864Y22445571D01*
X185716000Y22551830D01*
X185716000Y22660170D01*
X185694864Y22766429D01*
X185653403Y22866523D01*
X185593213Y22956604D01*
X185516604Y23033213D01*
X185426523Y23093403D01*
X185326429Y23134864D01*
X185220170Y23156000D01*
X185111830Y23156000D01*
X185005571Y23134864D01*
X184905477Y23093403D01*
X184815396Y23033213D01*
X184738787Y22956604D01*
X184678597Y22866523D01*
X184637136Y22766429D01*
X184616000Y22660170D01*
X184616000Y22551830D01*
X184637136Y22445571D01*
X184678597Y22345477D01*
X184738787Y22255396D01*
X184766000Y22228183D01*
X184766001Y16675687D01*
X181715051Y13624736D01*
X181699788Y13612210D01*
X181649802Y13551301D01*
X181612659Y13481812D01*
X181607382Y13464415D01*
X181589787Y13406412D01*
X181582064Y13327999D01*
X181583999Y13308352D01*
X181583999Y13023617D01*
X181561243Y13068047D01*
X181421302Y13244794D01*
X181249569Y13390844D01*
X181052643Y13500584D01*
X180838091Y13569797D01*
X180798549Y13577662D01*
X180619000Y13520709D01*
X180619000Y12471000D01*
X180639000Y12471000D01*
X180639000Y12421000D01*
X180619000Y12421000D01*
X180619000Y11371291D01*
X180798549Y11314338D01*
X180838091Y11322203D01*
X181052643Y11391416D01*
X181249569Y11501156D01*
X181421302Y11647206D01*
X181561243Y11823953D01*
X181584000Y11868384D01*
X181584000Y11075657D01*
X181582064Y11056001D01*
X181585561Y11020500D01*
X181559360Y11034504D01*
X181502810Y11051659D01*
X181444000Y11057451D01*
X179744000Y11057451D01*
X179685190Y11051659D01*
X179628640Y11034504D01*
X179576523Y11006647D01*
X179530842Y10969158D01*
X179493353Y10923477D01*
X179465496Y10871360D01*
X179448341Y10814810D01*
X179442549Y10756000D01*
X155265000Y10756000D01*
X155265000Y12241451D01*
X179462337Y12241451D01*
X179523987Y12024605D01*
X179626757Y11823953D01*
X179766698Y11647206D01*
X179938431Y11501156D01*
X180135357Y11391416D01*
X180349909Y11322203D01*
X180389451Y11314338D01*
X180569000Y11371291D01*
X180569000Y12421000D01*
X179519271Y12421000D01*
X179462337Y12241451D01*
X155265000Y12241451D01*
X155265000Y13135170D01*
X169376000Y13135170D01*
X169376000Y13026830D01*
X169397136Y12920571D01*
X169438597Y12820477D01*
X169498787Y12730396D01*
X169575396Y12653787D01*
X169665477Y12593597D01*
X169765571Y12552136D01*
X169871830Y12531000D01*
X169980170Y12531000D01*
X170086429Y12552136D01*
X170186523Y12593597D01*
X170271757Y12650549D01*
X179462337Y12650549D01*
X179519271Y12471000D01*
X180569000Y12471000D01*
X180569000Y13520709D01*
X180389451Y13577662D01*
X180349909Y13569797D01*
X180135357Y13500584D01*
X179938431Y13390844D01*
X179766698Y13244794D01*
X179626757Y13068047D01*
X179523987Y12867395D01*
X179462337Y12650549D01*
X170271757Y12650549D01*
X170276604Y12653787D01*
X170353213Y12730396D01*
X170413403Y12820477D01*
X170454864Y12920571D01*
X170476000Y13026830D01*
X170476000Y13135170D01*
X170454864Y13241429D01*
X170426000Y13311112D01*
X170426000Y16391000D01*
X174775888Y16391000D01*
X174845571Y16362136D01*
X174951830Y16341000D01*
X175060170Y16341000D01*
X175166429Y16362136D01*
X175266523Y16403597D01*
X175356604Y16463787D01*
X175433213Y16540396D01*
X175493403Y16630477D01*
X175534864Y16730571D01*
X175556000Y16836830D01*
X175556000Y16945170D01*
X175534864Y17051429D01*
X175493403Y17151523D01*
X175433213Y17241604D01*
X175356604Y17318213D01*
X175266523Y17378403D01*
X175166429Y17419864D01*
X175060170Y17441000D01*
X174951830Y17441000D01*
X174845571Y17419864D01*
X174775888Y17391000D01*
X170426000Y17391000D01*
X170426000Y23922895D01*
X171355655Y24852549D01*
X171950000Y24852549D01*
X172008810Y24858341D01*
X172065360Y24875496D01*
X172117477Y24903353D01*
X172163158Y24940842D01*
X172200647Y24986523D01*
X172224278Y25030734D01*
X172270225Y24992406D01*
X172407938Y24917372D01*
X172557643Y24870646D01*
X172570221Y24868146D01*
X172695000Y24929431D01*
X172695000Y25629000D01*
X172745000Y25629000D01*
X172745000Y24929431D01*
X172869779Y24868146D01*
X172882357Y24870646D01*
X173032062Y24917372D01*
X173169775Y24992406D01*
X173290203Y25092865D01*
X173355000Y25173123D01*
X173419797Y25092865D01*
X173540225Y24992406D01*
X173677938Y24917372D01*
X173827643Y24870646D01*
X173840221Y24868146D01*
X173965000Y24929431D01*
X173965000Y25629000D01*
X172745000Y25629000D01*
X172695000Y25629000D01*
X172675000Y25629000D01*
X172675000Y25679000D01*
X172695000Y25679000D01*
X172695000Y25699000D01*
X172745000Y25699000D01*
X172745000Y25679000D01*
X173965000Y25679000D01*
X173965000Y25699000D01*
X174015000Y25699000D01*
X174015000Y25679000D01*
X174035000Y25679000D01*
X174035000Y25629000D01*
X174015000Y25629000D01*
X174015000Y24929431D01*
X174139779Y24868146D01*
X174152357Y24870646D01*
X174302062Y24917372D01*
X174439775Y24992406D01*
X174560203Y25092865D01*
X174621804Y25169165D01*
X174638599Y25144030D01*
X174750030Y25032599D01*
X174881058Y24945049D01*
X175026649Y24884743D01*
X175181207Y24854000D01*
X175338793Y24854000D01*
X175493351Y24884743D01*
X175638942Y24945049D01*
X175769970Y25032599D01*
X175881401Y25144030D01*
X175895000Y25164382D01*
X175908599Y25144030D01*
X176020030Y25032599D01*
X176151058Y24945049D01*
X176296649Y24884743D01*
X176451207Y24854000D01*
X176608793Y24854000D01*
X176763351Y24884743D01*
X176908942Y24945049D01*
X177039970Y25032599D01*
X177151401Y25144030D01*
X177238951Y25275058D01*
X177299257Y25420649D01*
X177327197Y25561118D01*
X179027263Y23861052D01*
X179039789Y23845789D01*
X179055050Y23833265D01*
X179100697Y23795803D01*
X179170186Y23758660D01*
X179245586Y23735788D01*
X179324000Y23728065D01*
X179343647Y23730000D01*
X184788183Y23730000D01*
X184815396Y23702787D01*
X184905477Y23642597D01*
X185005571Y23601136D01*
X185111830Y23580000D01*
X185220170Y23580000D01*
X185326429Y23601136D01*
X185426523Y23642597D01*
X185516604Y23702787D01*
X185593213Y23779396D01*
X185653403Y23869477D01*
X185694864Y23969571D01*
X185716000Y24075830D01*
X185716000Y24184170D01*
X185694864Y24290429D01*
X185653403Y24390523D01*
X185593213Y24480604D01*
X185516604Y24557213D01*
X185426523Y24617403D01*
X185326429Y24658864D01*
X185220170Y24680000D01*
X185165502Y24680000D01*
X185186864Y24731571D01*
X185208000Y24837830D01*
X185208000Y24946170D01*
X185186864Y25052429D01*
X185158000Y25122112D01*
X185158000Y27510793D01*
X206464000Y27510793D01*
X206464000Y27353207D01*
X206494743Y27198649D01*
X206555049Y27053058D01*
X206642599Y26922030D01*
X206754030Y26810599D01*
X206885058Y26723049D01*
X207030649Y26662743D01*
X207185207Y26632000D01*
X207342793Y26632000D01*
X207497351Y26662743D01*
X207642942Y26723049D01*
X207773970Y26810599D01*
X207885401Y26922030D01*
X207972951Y27053058D01*
X208033257Y27198649D01*
X208064000Y27353207D01*
X208064000Y27510793D01*
X208033257Y27665351D01*
X207972951Y27810942D01*
X207885401Y27941970D01*
X207773970Y28053401D01*
X207642942Y28140951D01*
X207497351Y28201257D01*
X207342793Y28232000D01*
X207185207Y28232000D01*
X207030649Y28201257D01*
X206885058Y28140951D01*
X206754030Y28053401D01*
X206642599Y27941970D01*
X206555049Y27810942D01*
X206494743Y27665351D01*
X206464000Y27510793D01*
X185158000Y27510793D01*
X185158000Y29410793D01*
X206464000Y29410793D01*
X206464000Y29253207D01*
X206494743Y29098649D01*
X206555049Y28953058D01*
X206642599Y28822030D01*
X206754030Y28710599D01*
X206885058Y28623049D01*
X207030649Y28562743D01*
X207185207Y28532000D01*
X207342793Y28532000D01*
X207497351Y28562743D01*
X207642942Y28623049D01*
X207773970Y28710599D01*
X207885401Y28822030D01*
X207972951Y28953058D01*
X208033257Y29098649D01*
X208064000Y29253207D01*
X208064000Y29410793D01*
X208033257Y29565351D01*
X207972951Y29710942D01*
X207885401Y29841970D01*
X207773970Y29953401D01*
X207642942Y30040951D01*
X207497351Y30101257D01*
X207342793Y30132000D01*
X207185207Y30132000D01*
X207030649Y30101257D01*
X206885058Y30040951D01*
X206754030Y29953401D01*
X206642599Y29841970D01*
X206555049Y29710942D01*
X206494743Y29565351D01*
X206464000Y29410793D01*
X185158000Y29410793D01*
X185158000Y33297888D01*
X185186864Y33367571D01*
X185208000Y33473830D01*
X185208000Y33582170D01*
X185193307Y33656039D01*
X207996000Y33656039D01*
X207996000Y33399961D01*
X208045958Y33148804D01*
X208143955Y32912219D01*
X208286224Y32699298D01*
X208467298Y32518224D01*
X208680219Y32375955D01*
X208916804Y32277958D01*
X209167961Y32228000D01*
X209424039Y32228000D01*
X209675196Y32277958D01*
X209911781Y32375955D01*
X210124702Y32518224D01*
X210305776Y32699298D01*
X210448045Y32912219D01*
X210546042Y33148804D01*
X210596000Y33399961D01*
X210596000Y33656039D01*
X214496000Y33656039D01*
X214496000Y33399961D01*
X214545958Y33148804D01*
X214643955Y32912219D01*
X214786224Y32699298D01*
X214967298Y32518224D01*
X215180219Y32375955D01*
X215416804Y32277958D01*
X215667961Y32228000D01*
X215924039Y32228000D01*
X216175196Y32277958D01*
X216411781Y32375955D01*
X216624702Y32518224D01*
X216805776Y32699298D01*
X216948045Y32912219D01*
X217046042Y33148804D01*
X217096000Y33399961D01*
X217096000Y33656039D01*
X217046042Y33907196D01*
X216948045Y34143781D01*
X216805776Y34356702D01*
X216624702Y34537776D01*
X216411781Y34680045D01*
X216175196Y34778042D01*
X215924039Y34828000D01*
X215667961Y34828000D01*
X215416804Y34778042D01*
X215180219Y34680045D01*
X214967298Y34537776D01*
X214786224Y34356702D01*
X214643955Y34143781D01*
X214545958Y33907196D01*
X214496000Y33656039D01*
X210596000Y33656039D01*
X210546042Y33907196D01*
X210448045Y34143781D01*
X210305776Y34356702D01*
X210124702Y34537776D01*
X209911781Y34680045D01*
X209675196Y34778042D01*
X209424039Y34828000D01*
X209167961Y34828000D01*
X208916804Y34778042D01*
X208680219Y34680045D01*
X208467298Y34537776D01*
X208286224Y34356702D01*
X208143955Y34143781D01*
X208045958Y33907196D01*
X207996000Y33656039D01*
X185193307Y33656039D01*
X185186864Y33688429D01*
X185145403Y33788523D01*
X185085213Y33878604D01*
X185008604Y33955213D01*
X184918523Y34015403D01*
X184818429Y34056864D01*
X184712170Y34078000D01*
X184603830Y34078000D01*
X184497571Y34056864D01*
X184397477Y34015403D01*
X184307396Y33955213D01*
X184230787Y33878604D01*
X184170597Y33788523D01*
X184129136Y33688429D01*
X184108000Y33582170D01*
X184108000Y33473830D01*
X184129136Y33367571D01*
X184158000Y33297888D01*
X184158001Y25122114D01*
X184129136Y25052429D01*
X184108000Y24946170D01*
X184108000Y24837830D01*
X184129136Y24731571D01*
X184170597Y24631477D01*
X184230787Y24541396D01*
X184242183Y24530000D01*
X179489685Y24530000D01*
X177304198Y26715487D01*
X177330000Y26845207D01*
X177330000Y27002793D01*
X177299257Y27157351D01*
X177238951Y27302942D01*
X177151401Y27433970D01*
X177039970Y27545401D01*
X176908942Y27632951D01*
X176763351Y27693257D01*
X176608793Y27724000D01*
X176451207Y27724000D01*
X176296649Y27693257D01*
X176151058Y27632951D01*
X176020030Y27545401D01*
X175908599Y27433970D01*
X175895000Y27413618D01*
X175881401Y27433970D01*
X175769970Y27545401D01*
X175638942Y27632951D01*
X175493351Y27693257D01*
X175338793Y27724000D01*
X175181207Y27724000D01*
X175026649Y27693257D01*
X174881058Y27632951D01*
X174750030Y27545401D01*
X174638599Y27433970D01*
X174625000Y27413618D01*
X174611401Y27433970D01*
X174499970Y27545401D01*
X174368942Y27632951D01*
X174223351Y27693257D01*
X174068793Y27724000D01*
X173911207Y27724000D01*
X173756649Y27693257D01*
X173611058Y27632951D01*
X173480030Y27545401D01*
X173368599Y27433970D01*
X173355000Y27413618D01*
X173341401Y27433970D01*
X173229970Y27545401D01*
X173098942Y27632951D01*
X172953351Y27693257D01*
X172798793Y27724000D01*
X172641207Y27724000D01*
X172486649Y27693257D01*
X172341058Y27632951D01*
X172210030Y27545401D01*
X172098599Y27433970D01*
X172085000Y27413618D01*
X172071401Y27433970D01*
X171959970Y27545401D01*
X171828942Y27632951D01*
X171683351Y27693257D01*
X171528793Y27724000D01*
X171371207Y27724000D01*
X171216649Y27693257D01*
X171071058Y27632951D01*
X170940030Y27545401D01*
X170828599Y27433970D01*
X170741049Y27302942D01*
X170680743Y27157351D01*
X170650000Y27002793D01*
X170650000Y26845207D01*
X170680743Y26690649D01*
X170741049Y26545058D01*
X170821093Y26425263D01*
X170782523Y26404647D01*
X170736842Y26367158D01*
X170699353Y26321477D01*
X170671496Y26269360D01*
X170654341Y26212810D01*
X170648549Y26154000D01*
X170648549Y25559655D01*
X169589819Y24500924D01*
X169570737Y24485264D01*
X169508255Y24409129D01*
X169483671Y24363136D01*
X169461826Y24322267D01*
X169433235Y24228017D01*
X169423581Y24130000D01*
X169426001Y24105430D01*
X169426000Y17042560D01*
X169423581Y17018000D01*
X169426001Y16993430D01*
X169426000Y13311112D01*
X169397136Y13241429D01*
X169376000Y13135170D01*
X155265000Y13135170D01*
X155265000Y20320000D01*
X157739581Y20320000D01*
X157742000Y20295440D01*
X157742001Y17717596D01*
X157739581Y17693026D01*
X157749235Y17595009D01*
X157771862Y17520419D01*
X157777826Y17500759D01*
X157824255Y17413897D01*
X157886737Y17337762D01*
X157905819Y17322102D01*
X158820106Y16407813D01*
X158835762Y16388736D01*
X158911897Y16326254D01*
X158998759Y16279825D01*
X159093009Y16251235D01*
X159137628Y16246840D01*
X159082819Y16144541D01*
X159045531Y16022053D01*
X159032855Y15894643D01*
X159045280Y15767209D01*
X159082327Y15644647D01*
X159142574Y15531668D01*
X159143287Y15530598D01*
X159259895Y15503250D01*
X159650645Y15894000D01*
X159636503Y15908143D01*
X159671858Y15943498D01*
X159686000Y15929355D01*
X159700143Y15943498D01*
X159735498Y15908143D01*
X159721355Y15894000D01*
X160112105Y15503250D01*
X160228713Y15530598D01*
X160289181Y15643459D01*
X160326469Y15765947D01*
X160339145Y15893357D01*
X160326720Y16020791D01*
X160289673Y16143353D01*
X160236002Y16244000D01*
X160486107Y16244000D01*
X160432819Y16144541D01*
X160395531Y16022053D01*
X160382855Y15894643D01*
X160395280Y15767209D01*
X160432327Y15644647D01*
X160492574Y15531668D01*
X160493287Y15530598D01*
X160609895Y15503250D01*
X161000645Y15894000D01*
X160986503Y15908143D01*
X161021858Y15943498D01*
X161036000Y15929355D01*
X161050143Y15943498D01*
X161085498Y15908143D01*
X161071355Y15894000D01*
X161462105Y15503250D01*
X161578713Y15530598D01*
X161639181Y15643459D01*
X161676469Y15765947D01*
X161689145Y15893357D01*
X161676720Y16020791D01*
X161639673Y16143353D01*
X161579426Y16256332D01*
X161578713Y16257402D01*
X161489552Y16278313D01*
X161540888Y16329649D01*
X161612022Y16436110D01*
X161661021Y16554402D01*
X161686000Y16679981D01*
X161686000Y16808019D01*
X161661021Y16933598D01*
X161612022Y17051890D01*
X161540888Y17158351D01*
X161530239Y17169000D01*
X161540888Y17179649D01*
X161612022Y17286110D01*
X161661021Y17404402D01*
X161686000Y17529981D01*
X161686000Y17658019D01*
X161661021Y17783598D01*
X161612022Y17901890D01*
X161540888Y18008351D01*
X161530239Y18019000D01*
X161540888Y18029649D01*
X161612022Y18136110D01*
X161661021Y18254402D01*
X161686000Y18379981D01*
X161686000Y18508019D01*
X161661021Y18633598D01*
X161612022Y18751890D01*
X161540888Y18858351D01*
X161530239Y18869000D01*
X161540888Y18879649D01*
X161612022Y18986110D01*
X161661021Y19104402D01*
X161686000Y19229981D01*
X161686000Y19358019D01*
X161661021Y19483598D01*
X161612022Y19601890D01*
X161540888Y19708351D01*
X161530239Y19719000D01*
X161540888Y19729649D01*
X161612022Y19836110D01*
X161661021Y19954402D01*
X161686000Y20079981D01*
X161686000Y20208019D01*
X161661021Y20333598D01*
X161612022Y20451890D01*
X161540888Y20558351D01*
X161530239Y20569000D01*
X161540888Y20579649D01*
X161612022Y20686110D01*
X161661021Y20804402D01*
X161686000Y20929981D01*
X161686000Y21058019D01*
X161661021Y21183598D01*
X161612022Y21301890D01*
X161540888Y21408351D01*
X161489552Y21459687D01*
X161578713Y21480598D01*
X161639181Y21593459D01*
X161676469Y21715947D01*
X161689145Y21843357D01*
X161676720Y21970791D01*
X161639673Y22093353D01*
X161579426Y22206332D01*
X161578713Y22207402D01*
X161462105Y22234750D01*
X161071355Y21844000D01*
X161085498Y21829858D01*
X161050143Y21794503D01*
X161036000Y21808645D01*
X161021858Y21794503D01*
X160986503Y21829858D01*
X161000645Y21844000D01*
X160609895Y22234750D01*
X160493287Y22207402D01*
X160432819Y22094541D01*
X160395531Y21972053D01*
X160382855Y21844643D01*
X160395280Y21717209D01*
X160432327Y21594647D01*
X160485998Y21494000D01*
X160235893Y21494000D01*
X160289181Y21593459D01*
X160326469Y21715947D01*
X160339145Y21843357D01*
X160326720Y21970791D01*
X160289673Y22093353D01*
X160229426Y22206332D01*
X160228713Y22207402D01*
X160112105Y22234750D01*
X159721355Y21844000D01*
X159735498Y21829858D01*
X159700143Y21794503D01*
X159686000Y21808645D01*
X159671858Y21794503D01*
X159636503Y21829858D01*
X159650645Y21844000D01*
X159259895Y22234750D01*
X159143287Y22207402D01*
X159082819Y22094541D01*
X159045531Y21972053D01*
X159032855Y21844643D01*
X159045280Y21717209D01*
X159082327Y21594647D01*
X159135998Y21494000D01*
X158940560Y21494000D01*
X158916000Y21496419D01*
X158817983Y21486765D01*
X158723733Y21458175D01*
X158636871Y21411746D01*
X158560736Y21349264D01*
X158545075Y21330181D01*
X157905824Y20690929D01*
X157886736Y20675264D01*
X157824254Y20599129D01*
X157777825Y20512266D01*
X157759510Y20451890D01*
X157749235Y20418017D01*
X157739581Y20320000D01*
X155265000Y20320000D01*
X155265000Y23194000D01*
X155522372Y23194000D01*
X155536853Y23046974D01*
X155579739Y22905599D01*
X155649381Y22775307D01*
X155743105Y22661105D01*
X155857307Y22567381D01*
X155987599Y22497739D01*
X156128974Y22454853D01*
X156239165Y22444000D01*
X157112835Y22444000D01*
X157223026Y22454853D01*
X157364401Y22497739D01*
X157494693Y22567381D01*
X157608895Y22661105D01*
X157635891Y22694000D01*
X158746109Y22694000D01*
X158773105Y22661105D01*
X158887307Y22567381D01*
X159017599Y22497739D01*
X159158974Y22454853D01*
X159269165Y22444000D01*
X159429759Y22444000D01*
X159323668Y22387426D01*
X159322598Y22386713D01*
X159295250Y22270105D01*
X159686000Y21879355D01*
X160076750Y22270105D01*
X160049402Y22386713D01*
X159942478Y22444000D01*
X160779759Y22444000D01*
X160673668Y22387426D01*
X160672598Y22386713D01*
X160645250Y22270105D01*
X161036000Y21879355D01*
X161426750Y22270105D01*
X161399402Y22386713D01*
X161286541Y22447181D01*
X161164053Y22484469D01*
X161078662Y22492965D01*
X161094401Y22497739D01*
X161224693Y22567381D01*
X161338895Y22661105D01*
X161365891Y22694000D01*
X162018895Y22694000D01*
X163838000Y20874894D01*
X163838001Y19026114D01*
X163809136Y18956429D01*
X163788000Y18850170D01*
X163788000Y18741830D01*
X163809136Y18635571D01*
X163838001Y18565886D01*
X163838000Y16971106D01*
X161910895Y15044000D01*
X161365891Y15044000D01*
X161338895Y15076895D01*
X161224693Y15170619D01*
X161094401Y15240261D01*
X161078558Y15245067D01*
X161162791Y15253280D01*
X161285353Y15290327D01*
X161398332Y15350574D01*
X161399402Y15351287D01*
X161426750Y15467895D01*
X161036000Y15858645D01*
X160645250Y15467895D01*
X160672598Y15351287D01*
X160779522Y15294000D01*
X159942241Y15294000D01*
X160048332Y15350574D01*
X160049402Y15351287D01*
X160076750Y15467895D01*
X159686000Y15858645D01*
X159295250Y15467895D01*
X159322598Y15351287D01*
X159429522Y15294000D01*
X159269165Y15294000D01*
X159158974Y15283147D01*
X159017599Y15240261D01*
X158887307Y15170619D01*
X158773105Y15076895D01*
X158746109Y15044000D01*
X157635891Y15044000D01*
X157608895Y15076895D01*
X157494693Y15170619D01*
X157364401Y15240261D01*
X157223026Y15283147D01*
X157112835Y15294000D01*
X156239165Y15294000D01*
X156128974Y15283147D01*
X155987599Y15240261D01*
X155857307Y15170619D01*
X155743105Y15076895D01*
X155649381Y14962693D01*
X155579739Y14832401D01*
X155536853Y14691026D01*
X155522372Y14544000D01*
X155536853Y14396974D01*
X155579739Y14255599D01*
X155649381Y14125307D01*
X155743105Y14011105D01*
X155857307Y13917381D01*
X155987599Y13847739D01*
X156128974Y13804853D01*
X156239165Y13794000D01*
X157112835Y13794000D01*
X157223026Y13804853D01*
X157364401Y13847739D01*
X157494693Y13917381D01*
X157608895Y14011105D01*
X157635891Y14044000D01*
X158746109Y14044000D01*
X158773105Y14011105D01*
X158887307Y13917381D01*
X159017599Y13847739D01*
X159158974Y13804853D01*
X159269165Y13794000D01*
X160842835Y13794000D01*
X160953026Y13804853D01*
X161094401Y13847739D01*
X161224693Y13917381D01*
X161338895Y14011105D01*
X161365891Y14044000D01*
X162093440Y14044000D01*
X162118000Y14041581D01*
X162142560Y14044000D01*
X162216017Y14051235D01*
X162310267Y14079825D01*
X162397129Y14126254D01*
X162473264Y14188736D01*
X162488929Y14207824D01*
X164674181Y16393075D01*
X164693264Y16408736D01*
X164755746Y16484871D01*
X164802175Y16571733D01*
X164830765Y16665983D01*
X164838000Y16739440D01*
X164838000Y16739441D01*
X164840419Y16763999D01*
X164838000Y16788557D01*
X164838000Y18565888D01*
X164866864Y18635571D01*
X164888000Y18741830D01*
X164888000Y18850170D01*
X164866864Y18956429D01*
X164838000Y19026112D01*
X164838000Y21057441D01*
X164840419Y21082001D01*
X164830765Y21180018D01*
X164802174Y21274269D01*
X164796178Y21285487D01*
X164755746Y21361129D01*
X164693264Y21437264D01*
X164674181Y21452925D01*
X162596929Y23530176D01*
X162581264Y23549264D01*
X162505129Y23611746D01*
X162418267Y23658175D01*
X162324017Y23686765D01*
X162250560Y23694000D01*
X162226000Y23696419D01*
X162201440Y23694000D01*
X161365891Y23694000D01*
X161338895Y23726895D01*
X161224693Y23820619D01*
X161094401Y23890261D01*
X160953026Y23933147D01*
X160842835Y23944000D01*
X159269165Y23944000D01*
X159158974Y23933147D01*
X159017599Y23890261D01*
X158887307Y23820619D01*
X158773105Y23726895D01*
X158746109Y23694000D01*
X157635891Y23694000D01*
X157608895Y23726895D01*
X157494693Y23820619D01*
X157364401Y23890261D01*
X157223026Y23933147D01*
X157112835Y23944000D01*
X156239165Y23944000D01*
X156128974Y23933147D01*
X155987599Y23890261D01*
X155857307Y23820619D01*
X155743105Y23726895D01*
X155649381Y23612693D01*
X155579739Y23482401D01*
X155536853Y23341026D01*
X155522372Y23194000D01*
X155265000Y23194000D01*
X155265000Y37139848D01*
X208443204Y37139848D01*
X208548549Y36956688D01*
X208771914Y36831452D01*
X209015419Y36752200D01*
X209269706Y36721975D01*
X209525004Y36741940D01*
X209771502Y36811327D01*
X209999726Y36927471D01*
X210043451Y36956688D01*
X210148796Y37139848D01*
X214943204Y37139848D01*
X215048549Y36956688D01*
X215271914Y36831452D01*
X215515419Y36752200D01*
X215769706Y36721975D01*
X216025004Y36741940D01*
X216271502Y36811327D01*
X216499726Y36927471D01*
X216543451Y36956688D01*
X216648796Y37139848D01*
X215796000Y37992645D01*
X214943204Y37139848D01*
X210148796Y37139848D01*
X209296000Y37992645D01*
X208443204Y37139848D01*
X155265000Y37139848D01*
X155265000Y38054294D01*
X207989975Y38054294D01*
X208009940Y37798996D01*
X208079327Y37552498D01*
X208195471Y37324274D01*
X208224688Y37280549D01*
X208407848Y37175204D01*
X209260645Y38028000D01*
X209331355Y38028000D01*
X210184152Y37175204D01*
X210367312Y37280549D01*
X210492548Y37503914D01*
X210571800Y37747419D01*
X210602025Y38001706D01*
X210597913Y38054294D01*
X214489975Y38054294D01*
X214509940Y37798996D01*
X214579327Y37552498D01*
X214695471Y37324274D01*
X214724688Y37280549D01*
X214907848Y37175204D01*
X215760645Y38028000D01*
X215831355Y38028000D01*
X216684152Y37175204D01*
X216867312Y37280549D01*
X216992548Y37503914D01*
X217071800Y37747419D01*
X217102025Y38001706D01*
X217082060Y38257004D01*
X217012673Y38503502D01*
X216896529Y38731726D01*
X216867312Y38775451D01*
X216684152Y38880796D01*
X215831355Y38028000D01*
X215760645Y38028000D01*
X214907848Y38880796D01*
X214724688Y38775451D01*
X214599452Y38552086D01*
X214520200Y38308581D01*
X214489975Y38054294D01*
X210597913Y38054294D01*
X210582060Y38257004D01*
X210512673Y38503502D01*
X210396529Y38731726D01*
X210367312Y38775451D01*
X210184152Y38880796D01*
X209331355Y38028000D01*
X209260645Y38028000D01*
X208407848Y38880796D01*
X208224688Y38775451D01*
X208099452Y38552086D01*
X208020200Y38308581D01*
X207989975Y38054294D01*
X155265000Y38054294D01*
X155265000Y38916152D01*
X208443204Y38916152D01*
X209296000Y38063355D01*
X210148796Y38916152D01*
X214943204Y38916152D01*
X215796000Y38063355D01*
X216648796Y38916152D01*
X216543451Y39099312D01*
X216320086Y39224548D01*
X216076581Y39303800D01*
X215822294Y39334025D01*
X215566996Y39314060D01*
X215320498Y39244673D01*
X215092274Y39128529D01*
X215048549Y39099312D01*
X214943204Y38916152D01*
X210148796Y38916152D01*
X210043451Y39099312D01*
X209820086Y39224548D01*
X209576581Y39303800D01*
X209322294Y39334025D01*
X209066996Y39314060D01*
X208820498Y39244673D01*
X208592274Y39128529D01*
X208548549Y39099312D01*
X208443204Y38916152D01*
X155265000Y38916152D01*
X155265000Y42601000D01*
X228529000Y42601000D01*
X228529001Y5913000D01*
G37*
G04 #@! TD.AperFunction*
G04 #@! TD*
M02*
